<?xml version="1.0" encoding="utf-8"?>
<!-- Generator: Adobe Illustrator 24.1.2, SVG Export Plug-In . SVG Version: 6.00 Build 0)  -->
<svg version="1.1" id="Warstwa_1" xmlns="http://www.w3.org/2000/svg" xmlns:xlink="http://www.w3.org/1999/xlink" x="0px" y="0px"
	 viewBox="0 0 66 52" style="enable-background:new 0 0 66 52;" xml:space="preserve">
<style type="text/css">
	.st0{fill:#F45E20;}
</style>
<path class="st0" d="M58.1,29.5c-1.1-8.8-9.6-16.7-10-17.1c-1.9-1.8-3.4-2.7-5.5-1.9c-0.6,0.2-1.1,0.6-1.6,1c-1.3-1-2.4-1.2-3.8-0.8
	L31.3,5c-1.6-1.6-4.2-1.6-5.9,0c0,0,0,0,0,0c-1.6-1.2-3.8-1-5.2,0.4C20,5.6,19.9,5.8,19.7,6c-0.6,0.2-1.2,0.5-1.6,1
	c-1.6-1.1-3.8-0.9-5.2,0.5c-0.8,0.8-1.2,1.8-1.2,2.9c0,0.9,0.3,1.8,0.9,2.5c-0.9,0.1-1.8,0.5-2.4,1.2C9.4,14.8,9,15.8,9,16.9
	c0,1.1,0.4,2.1,1.2,2.9l1.2,1.2c-0.9,0.1-1.7,0.5-2.4,1.2C8.3,22.9,7.8,24,7.8,25s0.4,2.1,1.2,2.9l15.1,15.1
	c3.1,3.1,7.2,4.8,11.6,4.8c0.5,0,1.1,0,1.6-0.1c1.3,0.3,2.6,0.5,4,0.5c4.5,0,8.7-1.7,11.9-4.9c2.3-2.3,3.9-5.2,4.6-8.4
	C58.2,33.2,58.3,31.3,58.1,29.5z M38.5,12.2c0.5,0,1,0.3,1.6,0.7c-0.1,0.2-0.2,0.4-0.2,0.7L38.5,12.2z M11.3,15.2
	c0.9-0.9,2.2-1,3.2-0.3c-0.8,1.6-0.5,3.5,0.8,4.8l1.2,1.2c-0.8,0.1-1.5,0.4-2.1,0.9l-3.1-3.1c-0.5-0.5-0.7-1.1-0.7-1.8
	C10.6,16.3,10.9,15.6,11.3,15.2L11.3,15.2z M17.7,12.5c-0.8,0.1-1.6,0.4-2.3,1L14,12.1c-0.5-0.5-0.7-1.1-0.7-1.8
	c0-0.7,0.3-1.3,0.7-1.8c0.5-0.5,1.1-0.7,1.8-0.7c0.5,0,1,0.1,1.4,0.4C16.6,9.7,16.8,11.3,17.7,12.5z M11.9,22.6c0.5,0,1,0.2,1.4,0.5
	c-0.3,0.6-0.5,1.3-0.5,2c0,1.1,0.4,2.2,1.2,2.9l15.4,15.4c1,1,2.2,1.9,3.5,2.7c-2.9-0.6-5.6-2-7.7-4.1L10.1,26.8
	c-0.5-0.5-0.7-1.1-0.7-1.8s0.3-1.3,0.7-1.8C10.6,22.8,11.3,22.6,11.9,22.6z M15.2,23.2c0.5-0.5,1.2-0.7,1.8-0.7
	c0.7,0,1.3,0.2,1.8,0.7l7.7,7.7c0.3,0.3,0.8,0.3,1.1,0c0.1-0.1,0.2-0.3,0.2-0.6c0-0.2-0.1-0.4-0.2-0.6L16.4,18.5
	c-0.5-0.5-0.7-1.1-0.7-1.8c0-0.7,0.3-1.3,0.7-1.8c0.5-0.5,1.1-0.8,1.8-0.8c0.7,0,1.3,0.3,1.8,0.8l11.2,11.2c0.3,0.3,0.8,0.3,1.1,0
	c0.3-0.3,0.3-0.8,0-1.1L19.2,11.8c-1-1-1-2.6,0-3.6c1-1,2.6-1,3.6,0L36,21.3c0.3,0.3,0.8,0.3,1.1,0c0.2-0.1,0.2-0.3,0.2-0.6
	c0-0.2-0.1-0.4-0.2-0.6L26.6,9.7c-1-1-1-2.6,0-3.6c1-1,2.6-1,3.6,0l10.2,10.3l6.7,7.6c0.3,0.3,0.8,0.4,1.1,0.1
	c0.3-0.3,0.4-0.8,0.1-1.1l-6.8-7.7c-0.2-0.6-0.1-1.3,0.1-1.8c0.3-0.6,0.8-1.1,1.4-1.3c1.2-0.4,2-0.3,3.9,1.6
	c0.1,0.1,8.5,7.9,9.5,16.1c0.2,1.6,0.1,3.3-0.2,4.9c-0.6,2.9-2,5.5-4.1,7.6c-2.9,2.9-6.7,4.5-10.7,4.5s-7.9-1.6-10.7-4.5L15.2,26.8
	C14.2,25.8,14.2,24.2,15.2,23.2z M24.3,7.4L23.9,7c-0.5-0.5-1.1-0.8-1.7-1c0.8-0.3,1.7-0.2,2.4,0.3C24.4,6.7,24.3,7,24.3,7.4z"/>
</svg>
