<?xml version="1.0" encoding="utf-8"?>
<!-- Generator: Adobe Illustrator 24.1.1, SVG Export Plug-In . SVG Version: 6.00 Build 0)  -->
<svg version="1.1" id="Warstwa_1" xmlns="http://www.w3.org/2000/svg" xmlns:xlink="http://www.w3.org/1999/xlink" x="0px" y="0px"
	 viewBox="0 0 66 52" style="enable-background:new 0 0 66 52;" xml:space="preserve">
<style type="text/css">
	.st0{fill:#F45E20;stroke:#F45E20;stroke-width:0.7738;stroke-miterlimit:10;}
</style>
<g>
	<path class="st0" d="M59.5,20c-0.7,0-1.3,0.3-1.8,0.7v-1c0,0,0,0,0,0c0,0,0,0,0,0c0-1.4-1.2-2.6-2.6-2.6c-0.7,0-1.3,0.3-1.8,0.7v0
		c0,0,0-0.1,0-0.1c-0.1-1.3-1.3-2.4-2.6-2.4c-1.4,0-2.6,1.1-2.6,2.5c0,0,0,0,0,0.1v0.5c-0.5-0.4-1.1-0.7-1.8-0.7
		c-1.4,0-2.6,1.2-2.6,2.6V34l-7.1-1.9c0,0,0,0,0,0c0,0,0,0,0,0c-1.1-0.3-2.3,0.2-2.9,1.2c-0.7,1.2-0.3,2.8,0.9,3.6c0,0,0,0,0,0
		l10.6,6.5c1.8,1.2,3.8,1.8,5.9,1.8c6,0,10.9-4.9,10.9-10.9V22.6C62.1,21.1,60.9,20,59.5,20z M51.2,44.3c-2,0-3.8-0.6-5.5-1.6
		l-10.6-6.5c0,0,0,0,0,0c0,0,0,0,0,0c-0.4-0.2-0.7-0.6-0.8-1.1c-0.1-0.5-0.1-0.9,0.2-1.3c0.4-0.7,1.2-1,1.9-0.8l7.6,2c0,0,0,0,0,0
		c0,0,0.1,0,0.1,0c0,0,0,0,0,0c0,0,0,0,0,0c0,0,0.1,0,0.1,0c0,0,0,0,0,0c0,0,0.1,0,0.1-0.1c0,0,0,0,0,0c0,0,0.1-0.1,0.1-0.1
		c0,0,0,0,0,0c0,0,0-0.1,0.1-0.1c0,0,0,0,0,0c0,0,0,0,0,0c0,0,0,0,0,0c0,0,0,0,0,0c0,0,0,0,0,0V20.2c0-1,0.8-1.8,1.8-1.8
		c1,0,1.8,0.8,1.8,1.8v9.4c0,0.2,0.2,0.4,0.4,0.4c0.2,0,0.4-0.2,0.4-0.4V17.8c0-1,0.8-1.8,1.8-1.8c1,0,1.8,0.8,1.8,1.8v11.7
		c0,0.2,0.2,0.4,0.4,0.4c0.2,0,0.4-0.2,0.4-0.4v-10c0-1,0.8-1.8,1.8-1.8c1,0,1.8,0.8,1.8,1.8c0,0,0,0,0,0c0,0,0,0,0,0v9.9
		c0,0.2,0.2,0.4,0.4,0.4c0.2,0,0.4-0.2,0.4-0.4v-7c0-1,0.8-1.8,1.8-1.8c1,0,1.8,0.8,1.8,1.8v11.7C61.3,39.8,56.8,44.3,51.2,44.3z"/>
	<path class="st0" d="M20.7,43.7l10.6-6.5c0,0,0,0,0,0c1.2-0.7,1.7-2.3,0.9-3.6c-0.6-1-1.7-1.5-2.9-1.2c0,0,0,0,0,0c0,0,0,0,0,0
		l-7.1,1.9V20.4c0-1.4-1.2-2.6-2.6-2.6c-0.7,0-1.3,0.3-1.8,0.7V18c0,0,0,0,0-0.1c-0.1-1.4-1.2-2.5-2.6-2.5c-1.4,0-2.5,1-2.6,2.4
		c0,0,0,0.1,0,0.1v0c-0.5-0.4-1.1-0.7-1.8-0.7c-1.4,0-2.6,1.2-2.6,2.6c0,0,0,0,0,0c0,0,0,0,0,0v1c-0.5-0.4-1.1-0.7-1.8-0.7
		c-1.4,0-2.6,1.2-2.6,2.6v11.7c0,6,4.9,10.9,10.9,10.9C16.9,45.4,19,44.8,20.7,43.7z M4.7,34.5V22.8c0-1,0.8-1.8,1.8-1.8
		c1,0,1.8,0.8,1.8,1.8v7c0,0.2,0.2,0.4,0.4,0.4c0.2,0,0.4-0.2,0.4-0.4v-9.9c0,0,0,0,0,0c0,0,0,0,0,0c0-1,0.8-1.8,1.8-1.8
		c1,0,1.8,0.8,1.8,1.8v10c0,0.2,0.2,0.4,0.4,0.4s0.4-0.2,0.4-0.4V18.1c0-1,0.8-1.8,1.8-1.8c1,0,1.8,0.8,1.8,1.8v11.7
		c0,0.2,0.2,0.4,0.4,0.4c0.2,0,0.4-0.2,0.4-0.4v-9.4c0-1,0.8-1.8,1.8-1.8c1,0,1.8,0.8,1.8,1.8v14.3c0,0,0,0,0,0c0,0,0,0,0,0
		c0,0,0,0,0,0c0,0,0,0,0,0c0,0,0,0,0,0c0,0,0,0.1,0.1,0.1c0,0,0,0,0,0c0,0,0.1,0.1,0.1,0.1c0,0,0,0,0,0c0,0,0.1,0,0.1,0.1
		c0,0,0,0,0,0c0,0,0.1,0,0.1,0c0,0,0,0,0,0c0,0,0,0,0,0c0,0,0.1,0,0.1,0c0,0,0,0,0,0l7.6-2c0.8-0.2,1.5,0.2,1.9,0.8
		c0.2,0.4,0.3,0.9,0.2,1.3c-0.1,0.5-0.4,0.8-0.8,1.1c0,0,0,0,0,0c0,0,0,0,0,0L20.2,43c-1.6,1.1-3.5,1.6-5.5,1.6
		C9.2,44.6,4.7,40.1,4.7,34.5z"/>
	<g>
		<path class="st0" d="M30.3,15.2c0,0.2,0.2,0.3,0.4,0.3c0,0,0.1,0,0.1,0c0.2,0,0.4-0.3,0.3-0.5l-1.7-8.2c0-0.2-0.3-0.4-0.5-0.3
			c-0.2,0-0.4,0.3-0.3,0.5L30.3,15.2z"/>
		<path class="st0" d="M25.7,16.1c0.1,0.1,0.2,0.2,0.4,0.2c0.1,0,0.1,0,0.2-0.1c0.2-0.1,0.3-0.4,0.2-0.6l-4.2-7.2
			c-0.1-0.2-0.4-0.3-0.6-0.2c-0.2,0.1-0.3,0.4-0.2,0.6L25.7,16.1z"/>
		<path class="st0" d="M39.4,16.2c0.1,0,0.2,0.1,0.2,0.1c0.1,0,0.3-0.1,0.4-0.2l4.5-7c0.1-0.2,0.1-0.5-0.1-0.6
			c-0.2-0.1-0.5-0.1-0.6,0.1l-4.5,7C39.1,15.8,39.2,16.1,39.4,16.2z"/>
		<path class="st0" d="M35.6,15.4C35.6,15.4,35.6,15.4,35.6,15.4c0.3,0,0.5-0.2,0.5-0.4L37,7.4c0-0.2-0.1-0.4-0.4-0.5
			c-0.2,0-0.4,0.1-0.5,0.4l-0.9,7.6C35.2,15.1,35.3,15.3,35.6,15.4z"/>
	</g>
</g>
</svg>
