<?xml version="1.0" encoding="utf-8"?>
<!-- Generator: Adobe Illustrator 24.1.1, SVG Export Plug-In . SVG Version: 6.00 Build 0)  -->
<svg version="1.1" id="Warstwa_1" xmlns="http://www.w3.org/2000/svg" xmlns:xlink="http://www.w3.org/1999/xlink" x="0px" y="0px"
	 viewBox="0 0 66 52" style="enable-background:new 0 0 66 52;" xml:space="preserve">
<style type="text/css">
	.st0{fill:#F45E20;stroke:#F45E20;stroke-width:0.7738;stroke-miterlimit:10;}
</style>
<path class="st0" d="M30.2,51c3.2,0,6.3-0.9,9-2.7c1.5-1,2.8-2.2,4-3.6c0,0,0,0,0,0c0,0,0,0,0,0c5.2-6.7,8.5-17.6,8.7-18.2
	c0.4-0.9,0.5-1.9,0.1-2.9c-0.3-1-1-1.7-2-2.1c-1.9-0.9-4.2-0.1-5.1,1.8l-3.4,7.3v-4.8l0-17c0,0,0,0,0,0c0-1-0.3-2-1-2.7
	c-0.7-0.7-1.6-1.2-2.6-1.2c-1.2,0-2.4,0.5-3.1,1.4V4.8C34.8,2.7,33.1,1,31,1c-2,0-3.6,1.5-3.8,3.5c0,0,0,0.1,0,0.1v0.2
	c-0.7-0.9-1.9-1.4-3.1-1.4c-1,0.1-1.9,0.5-2.6,1.3c-0.7,0.8-1,1.7-1,2.7c0,0,0,0,0,0l0.1,3.3c-0.7-0.9-1.9-1.5-3.1-1.5
	c-1,0-2,0.5-2.6,1.2c-0.7,0.7-1,1.7-1,2.7c0,0,0,0,0,0l-0.1,16.1c0,0,0,0,0,0c0,0,0,0,0,0v5.3C13.7,43.6,21.1,51,30.2,51z
	 M14.6,29.2l0.1-16.1c0,0,0,0,0,0c0-0.8,0.2-1.5,0.8-2.1c0.5-0.6,1.3-0.9,2.1-0.9c1.6-0.1,3,1.2,3.1,2.8L21,27
	c0,0.2,0.2,0.4,0.4,0.4c0,0,0,0,0,0c0.2,0,0.4-0.2,0.4-0.4l-0.1-1.8c0-0.1,0-0.1,0-0.2L21.4,7.3c0,0,0,0,0,0c0,0,0,0,0,0
	c0-0.8,0.2-1.5,0.7-2.1c0.5-0.6,1.2-0.9,2-1c1.5-0.1,2.9,1,3.1,2.5v0.8c0,0.1,0,0.1,0,0.2l0.4,18c0,0.2,0.2,0.4,0.4,0.4c0,0,0,0,0,0
	c0.2,0,0.4-0.2,0.4-0.4L28.1,7c0,0,0-0.1,0-0.1c0,0,0,0,0-0.1l0-0.1c0,0,0-0.1,0-0.1V4.8c0-1.6,1.3-2.9,2.9-2.9
	c1.6,0,2.9,1.3,2.9,2.9v21.1c0,0.2,0.2,0.4,0.4,0.4c0.2,0,0.4-0.2,0.4-0.4l0-17.2c0.1-1.6,1.4-2.9,3.1-2.8c0.8,0,1.5,0.4,2.1,0.9
	c0.5,0.6,0.8,1.3,0.8,2.1c0,0,0,0,0,0c0,0,0,0,0,0l0,17v6.7c0,0,0,0,0,0c0,0,0,0,0,0c0,0,0,0,0,0.1c0,0,0,0,0,0c0,0,0,0,0,0
	c0,0,0,0,0,0c0,0,0,0,0,0c0,0,0,0,0,0c0,0,0,0,0,0c0,0,0,0,0,0c0,0,0,0,0,0c0,0,0,0,0,0c0,0,0,0,0,0c0,0,0,0,0,0c0,0,0,0,0,0
	c0,0,0,0,0,0c0,0,0,0,0.1,0c0,0,0,0,0,0c0,0,0,0,0,0c0,0,0,0,0.1,0c0,0,0,0,0,0c0,0,0,0,0,0c0,0,0,0,0,0c0,0,0,0,0,0c0,0,0,0,0,0
	c0,0,0,0,0,0c0,0,0,0,0,0c0,0,0,0,0,0c0,0,0,0,0,0c0,0,0,0,0,0l4.2-9.1c0.7-1.5,2.4-2.1,3.9-1.4c0.7,0.3,1.3,0.9,1.5,1.7
	c0.3,0.7,0.2,1.5-0.1,2.2c0,0,0,0,0,0.1c0,0.1-3.4,11.3-8.6,18c-1.1,1.3-2.3,2.5-3.8,3.4c-2.5,1.6-5.5,2.5-8.5,2.5
	c-8.6,0-15.7-7-15.7-15.6V29.2z"/>
</svg>
