<?xml version="1.0" encoding="utf-8"?>
<!-- Generator: Adobe Illustrator 24.1.1, SVG Export Plug-In . SVG Version: 6.00 Build 0)  -->
<svg version="1.1" id="Warstwa_1" xmlns="http://www.w3.org/2000/svg" xmlns:xlink="http://www.w3.org/1999/xlink" x="0px" y="0px"
	 viewBox="0 0 66 52" style="enable-background:new 0 0 66 52;" xml:space="preserve">
<style type="text/css">
	.st0{fill:#FFFFFF;stroke:#F45E20;stroke-width:0.7738;stroke-miterlimit:10;}
	.st1{fill:#F45E20;stroke:#F45E20;stroke-width:0.7738;stroke-miterlimit:10;}
	.st2{fill:#F45E20;stroke:#F45E20;stroke-width:0.7756;stroke-miterlimit:10;}
</style>
<g>
	<path class="st0" d="M41.3,20.4c-0.9-0.7-1.5-0.9-2.2-0.7l1.9,1.9C41,21.1,41.1,20.7,41.3,20.4z"/>
	<path class="st0" d="M27,15.6l0.7,0.7c0-0.5,0.1-1.1,0.3-1.6c-0.9-0.8-2.1-0.8-3-0.1C25.8,14.7,26.5,15,27,15.6z"/>
	<path class="st1" d="M18,20.5l0.1,0.1c-0.9,0-1.8,0.3-2.4,0.9c-0.6,0.6-0.9,1.4-0.9,2.3c0,0.9,0.3,1.7,0.9,2.3l1.4,1.4
		c-0.9,0-1.8,0.3-2.4,0.9c-0.6,0.6-0.9,1.4-0.9,2.3c0,0.9,0.3,1.7,0.9,2.3L27.6,46c2.7,2.7,6.2,4,9.8,4c0.5,0,0.9,0,1.4-0.1
		c1.1,0.3,2.2,0.4,3.4,0.4c3.8,0,7.3-1.5,10-4.1c1.9-1.9,3.3-4.4,3.8-7c0.3-1.5,0.4-3,0.2-4.6c0,0,0,0,0,0c0,0,0,0,0,0
		c-1-7.4-8.2-14.1-8.5-14.4c-1.6-1.5-2.7-2.2-4.5-1.6c-0.6,0.2-1,0.5-1.4,1c-1.1-0.9-2-1.2-3.3-0.7l-5.1-5.1c-1.3-1.3-3.4-1.3-4.7,0
		c-0.1,0.1-0.1,0.1-0.2,0.2c-1.3-1-3.2-1-4.3,0.2c-0.2,0.2-0.3,0.3-0.4,0.5c-0.5,0.1-1,0.4-1.4,0.8c0,0-0.1,0.1-0.1,0.1
		c-1.3-1-3.1-0.9-4.3,0.3C16.7,17.2,16.7,19.3,18,20.5z M26.4,16.2l2.3,2.3c0,0,0,0,0,0l9,9c0.2,0.2,0.4,0.2,0.6,0
		c0.2-0.2,0.2-0.4,0-0.6l-9-9c-0.9-1-0.9-2.5,0-3.4c1-0.9,2.5-0.9,3.4,0l8.7,8.8l5.7,6.5c0.2,0.2,0.4,0.2,0.6,0
		c0.2-0.2,0.2-0.4,0-0.6L42,22.5c-0.2-0.6-0.2-1.2,0.1-1.8c0.3-0.6,0.8-1,1.4-1.3c1.2-0.4,2-0.1,3.6,1.4c0.1,0.1,7.3,6.8,8.2,13.9
		c0.2,1.4,0.1,2.9-0.2,4.3c-0.5,2.5-1.8,4.8-3.6,6.6c-2.5,2.5-5.8,3.9-9.3,3.9c-3.5,0-6.9-1.4-9.3-3.9L19.6,32.4
		c-0.9-0.9-0.9-2.5,0-3.4c0.9-0.9,2.5-0.9,3.4,0l6.6,6.6c0.2,0.2,0.4,0.2,0.6,0c0.2-0.2,0.2-0.4,0-0.6l-6.5-6.5c0,0,0,0,0,0l-3-3
		c-0.9-0.9-0.9-2.5,0-3.4c0.5-0.5,1.1-0.7,1.7-0.7c0.7,0,1.3,0.3,1.7,0.7l9.6,9.6c0.2,0.2,0.4,0.2,0.6,0c0.2-0.2,0.2-0.4,0-0.6
		L23,19.6c-0.9-0.9-0.9-2.5,0-3.4C23.9,15.2,25.5,15.2,26.4,16.2z M16.3,22.2c0.9-0.9,2.3-0.9,3.2-0.2c-0.7,1.3-0.5,2.9,0.5,4
		l1.5,1.5c-0.9,0-1.7,0.3-2.4,0.9l-2.8-2.8c-0.4-0.4-0.7-1-0.7-1.7C15.6,23.2,15.8,22.6,16.3,22.2z M28.2,45.4L15.3,32.5
		c-0.4-0.4-0.7-1-0.7-1.7c0-0.6,0.2-1.2,0.7-1.7c0.9-0.9,2.3-0.9,3.2-0.1c-0.3,0.5-0.5,1.1-0.5,1.7c0,0.9,0.3,1.7,1,2.3l13.2,13.2
		c1.2,1.2,2.7,2.2,4.2,2.9C33.4,48.9,30.5,47.7,28.2,45.4z M41.3,20.4c-0.2,0.4-0.3,0.8-0.3,1.2l-1.9-1.9
		C39.8,19.5,40.4,19.7,41.3,20.4z M28.1,14.7c-0.2,0.5-0.3,1-0.3,1.6L27,15.6c-0.6-0.6-1.3-0.9-2-0.9C25.9,13.9,27.2,14,28.1,14.7z
		 M21.8,16.4c-0.6,1.2-0.4,2.8,0.6,3.9l0.1,0.1c-0.9,0-1.8,0.3-2.5,1c0,0,0,0,0,0l-1.4-1.4c-0.9-0.9-0.9-2.4,0-3.4
		C19.5,15.7,20.8,15.6,21.8,16.4z"/>
	<path class="st1" d="M14.8,12.1c0.1,0.1,0.2,0.2,0.3,0.2c0.1,0,0.2,0,0.3-0.1c0.2-0.1,0.2-0.4,0.1-0.6l-4.9-6.2
		c-0.1-0.2-0.4-0.2-0.6-0.1C9.8,5.4,9.8,5.7,9.9,5.9L14.8,12.1z"/>
	<path class="st2" d="M19.1,10.4c0.1,0.2,0.2,0.3,0.4,0.3c0.1,0,0.1,0,0.2,0c0.2-0.1,0.3-0.3,0.2-0.6l-2.8-6.7
		C17,3.1,16.8,3,16.6,3.1c-0.2,0.1-0.3,0.3-0.2,0.6L19.1,10.4z"/>
	<path class="st2" d="M23.7,9.6c0,0.2,0.2,0.4,0.4,0.4c0,0,0.1,0,0.1,0c0.2,0,0.4-0.3,0.3-0.5L23.2,2c0-0.2-0.3-0.4-0.5-0.3
		c-0.2,0-0.4,0.3-0.3,0.5L23.7,9.6z"/>
	<path class="st1" d="M36,12.6c0.1,0,0.2,0,0.3-0.1l6.3-6c0.2-0.2,0.2-0.4,0-0.6c-0.2-0.2-0.4-0.2-0.6,0l-6.3,6
		c-0.2,0.2-0.2,0.4,0,0.6C35.8,12.6,35.9,12.6,36,12.6z"/>
	<path class="st1" d="M39.3,14c0.1,0.1,0.2,0.2,0.4,0.2c0.1,0,0.2,0,0.2-0.1l7.3-5.1c0.2-0.1,0.2-0.4,0.1-0.6
		c-0.1-0.2-0.4-0.2-0.6-0.1l-7.3,5.1C39.2,13.6,39.2,13.8,39.3,14z"/>
	<path class="st1" d="M42.5,15.8c0.1,0.2,0.2,0.3,0.4,0.3c0.1,0,0.1,0,0.2,0l8.7-3.6c0.2-0.1,0.3-0.3,0.2-0.6
		c-0.1-0.2-0.3-0.3-0.6-0.2l-8.7,3.6C42.5,15.4,42.4,15.6,42.5,15.8z"/>
</g>
</svg>
