<?xml version="1.0" encoding="utf-8"?>
<!-- Generator: Adobe Illustrator 24.1.1, SVG Export Plug-In . SVG Version: 6.00 Build 0)  -->
<svg version="1.1" id="Warstwa_1" xmlns="http://www.w3.org/2000/svg" xmlns:xlink="http://www.w3.org/1999/xlink" x="0px" y="0px"
	 viewBox="0 0 66 52" style="enable-background:new 0 0 66 52;" xml:space="preserve">
<style type="text/css">
	.st0{fill:#F45E20;stroke:#F45E20;stroke-width:0.7738;stroke-miterlimit:10;}
</style>
<path class="st0" d="M27.7,50.4c0.7,0.7,1.7,1.1,2.7,1.1h13.3c2.6,0,4.7-2.1,4.7-4.7V25.9l3.7-12.2c0,0,0,0,0,0
	c0.2-0.4,0.3-0.9,0.3-1.4c0-2.1-1.7-3.9-3.9-3.9c0,0-0.1,0-0.1,0V7.2c0-2.1-1.7-3.9-3.9-3.9c-1.1,0-2.1,0.4-2.8,1.2l-0.3-0.8
	c-0.3-1.9-1.9-3.2-3.8-3.2c-2.1,0-3.9,1.7-3.9,3.9c0,0.6,0.1,1.1,0.4,1.6l3.3,9.9c-2.7-2.7-6.3-4.2-10.1-4.2
	c-6.2,0-11.6,3.9-13.5,9.7c-0.4,1.1-0.2,2.3,0.5,3.3c0.4,0.5,0.8,0.9,1.3,1.2c-0.5,0.3-1,0.7-1.3,1.2c-0.7,1-0.9,2.2-0.5,3.4
	C14.6,32.6,27.1,49.6,27.7,50.4C27.7,50.4,27.7,50.4,27.7,50.4z M48.5,9.3c1.7,0,3,1.4,3,3c0,0.4-0.1,0.7-0.2,1c0,0,0,0,0,0.1
	L48.4,23L48.5,9.3C48.5,9.3,48.5,9.3,48.5,9.3z M44.6,4.2c1.7,0,3,1.4,3,3v15.9L42.1,5.5C42.6,4.7,43.6,4.2,44.6,4.2z M15,27.5
	c0.6-0.8,1.4-1.2,2.4-1.2h0.2c1.2,0,2.4,0.8,2.8,2c1,2.9,3.8,4.9,6.9,4.9c2,0,3.9-0.8,5.3-2.3c1.4-1.5,2.1-3.4,2-5.4
	c-0.2-3.7-3.2-6.7-6.9-6.9c-3.3-0.2-6.2,1.8-7.3,4.8c-0.4,1.2-1.5,2-2.8,2h-0.2c-0.9,0-1.8-0.5-2.4-1.2c-0.5-0.7-0.7-1.7-0.4-2.5
	c1.8-5.5,6.9-9.1,12.7-9.1c3.7,0,7.3,1.6,9.8,4.3c2.5,2.7,3.8,6.3,3.5,10c0,0.2,0.2,0.4,0.4,0.5c0.2,0,0.4-0.2,0.5-0.4
	c0.2-3.3-0.7-6.6-2.6-9.2L35,5.7c0,0,0,0,0,0c0,0,0,0,0,0c-0.2-0.4-0.3-0.9-0.3-1.3c0-1.7,1.4-3,3-3c1.5,0,2.7,1,3,2.5
	c0,0,0,0.1,0,0.1l0.5,1.6c0,0.1,0,0.1,0.1,0.2l6.4,20.2v20.9c0,2.1-1.7,3.8-3.8,3.8H30.5c-0.8,0-1.5-0.3-2.1-0.9
	c-3.6-4.9-13.1-18-13.7-19.7C14.3,29.2,14.5,28.3,15,27.5z M19.3,25.8c0.8-0.4,1.5-1.2,1.9-2.2c1-2.7,3.6-4.4,6.5-4.3
	c3.3,0.2,5.9,2.8,6.1,6.1c0.1,1.8-0.5,3.5-1.8,4.8c-1.2,1.3-2.9,2-4.7,2c-2.7,0-5.2-1.7-6.1-4.3C20.9,27,20.2,26.3,19.3,25.8z"/>
</svg>
