<?xml version="1.0" encoding="utf-8"?>
<!-- Generator: Adobe Illustrator 24.1.1, SVG Export Plug-In . SVG Version: 6.00 Build 0)  -->
<svg version="1.1" id="Warstwa_1" xmlns="http://www.w3.org/2000/svg" xmlns:xlink="http://www.w3.org/1999/xlink" x="0px" y="0px"
	 viewBox="0 0 66 52" style="enable-background:new 0 0 66 52;" xml:space="preserve">
<style type="text/css">
	.st0{fill:#F45E20;stroke:#F45E20;stroke-width:0.7738;stroke-miterlimit:10;}
</style>
<path class="st0" d="M52.1,40.7C52.1,40.7,52.1,40.7,52.1,40.7l-5,0c1.1-0.8,1.8-2.1,1.8-3.5c0-1.2-0.4-2.2-1.3-3
	c-0.4-0.4-0.8-0.6-1.2-0.8c1.4-0.7,2.4-2.2,2.4-3.9c0-1.2-0.4-2.2-1.3-3c-0.4-0.4-0.8-0.7-1.3-0.9c1.4-0.7,2.3-2.2,2.3-3.8
	c0-1.2-0.4-2.2-1.3-3c-0.8-0.8-1.9-1.3-3-1.3c0,0,0,0,0,0c0,0,0,0,0,0c0,0,0,0,0,0l-0.2,0l-12.2,0.1l7.5-7.5
	c0.8-0.8,1.3-1.9,1.3-3.1c0-1.1-0.4-2.2-1.3-3c-1.5-1.5-4-1.7-5.7-0.3c0,0,0,0,0,0c-0.1,0.1-14.4,10.3-16.9,12.1c0,0,0,0,0,0
	c0,0,0,0,0,0c-1.6,1.3-3,2.8-4.2,4.6c-2,3.1-3.1,6.7-3.1,10.3c0,5.1,1.9,9.8,5.5,13.4c3.6,3.6,8.3,5.5,13.3,5.5c0,0,0.1,0,0.1,0
	c0,0,0,0,0,0l23.5-0.1c0,0,0.1,0,0.1,0c2.3-0.1,4.2-2,4.3-4.3c0-1.2-0.4-2.2-1.3-3C54.3,41.1,53.3,40.7,52.1,40.7z M52.1,48.4
	C52,48.4,52,48.4,52.1,48.4l-23.5,0.1c0,0,0,0,0,0c0,0-0.1,0-0.1,0c-4.8,0-9.3-1.9-12.7-5.3c-3.4-3.4-5.3-7.9-5.2-12.8
	c0-3.5,1-6.9,3-9.9c1.1-1.7,2.4-3.1,4-4.3c2.5-1.9,16.7-12,16.9-12.1c0,0,0,0,0,0c0,0,0,0,0,0c1.4-1.1,3.3-1,4.6,0.3
	c0.6,0.6,1,1.5,1,2.4c0,0.9-0.4,1.8-1,2.5l-8.2,8.2c-0.1,0.1-0.2,0.3-0.1,0.5c0.1,0.2,0.2,0.3,0.4,0.3c0,0,0,0,0,0l3.4,0
	c0,0,0.1,0,0.1,0c0,0,0,0,0,0l9.7-0.1l0.2,0v0c0.9,0,1.8,0.4,2.4,1c0.6,0.6,1,1.5,1,2.4c0,1.9-1.6,3.5-3.5,3.5c0,0,0,0,0,0l-9.3,0.1
	c-0.2,0-0.4,0.2-0.4,0.4c0,0.2,0.2,0.4,0.4,0.4c0,0,0,0,0,0l9.3-0.1h0.3c0,0,0,0,0,0c0.9,0,1.8,0.4,2.4,1c0.6,0.6,1,1.5,1,2.4
	c0,1.9-1.6,3.5-3.5,3.5c0,0,0,0-0.1,0H35c-0.2,0-0.4,0.2-0.4,0.4c0,0.2,0.2,0.4,0.4,0.4h9.5c0,0,0,0,0.1,0h0c0,0,0,0,0,0
	c0.9,0,1.8,0.4,2.4,1c0.6,0.6,1,1.5,1,2.4c0,1.9-1.6,3.5-3.5,3.5c0,0-0.1,0-0.1,0H35c-0.2,0-0.4,0.2-0.4,0.4c0,0.2,0.2,0.4,0.4,0.4
	h9.5c0,0,0.1,0,0.1,0l7.5,0c0,0,0,0,0,0c0.9,0,1.8,0.4,2.4,1c0.6,0.6,1,1.5,1,2.4C55.5,46.9,54,48.4,52.1,48.4z"/>
</svg>
