<?xml version="1.0" encoding="utf-8"?>
<!-- Generator: Adobe Illustrator 24.1.1, SVG Export Plug-In . SVG Version: 6.00 Build 0)  -->
<svg version="1.1" id="Warstwa_1" xmlns="http://www.w3.org/2000/svg" xmlns:xlink="http://www.w3.org/1999/xlink" x="0px" y="0px"
	 viewBox="0 0 66 52" style="enable-background:new 0 0 66 52;" xml:space="preserve">
<style type="text/css">
	.st0{fill:#F45E20;stroke:#F45E20;stroke-width:0.7738;stroke-miterlimit:10;}
</style>
<g>
	<path class="st0" d="M33.7,44.9c3.8,0,7.5-1.1,10.7-3.2c1-0.7,2-1.5,2.9-2.3c1.2-1.1,2-2.6,2.4-4.2l2.1-9.6
		c0.4-1.8-0.3-3.6-1.8-4.6c-0.2-0.1-1.3-1.1-2.8-2.2v-7.2c0-2.5-2-4.5-4.5-4.5c-1.8,0-3.3,1.1-4,2.6c-0.7-1.5-2.3-2.6-4-2.6
		c-2,0-3.6,1.3-4.2,3c-0.8-1.3-2.2-2.2-3.9-2.2c-2,0-3.6,1.3-4.2,3c-0.8-1.3-2.2-2.2-3.9-2.2c-2.5,0-4.5,2-4.5,4.5v4.4
		c0,0,0,0.1,0,0.1c0,0.1,0,0.2,0,0.3v7.3C14,36.1,22.9,44.9,33.7,44.9z M42.8,7.9c2,0,3.6,1.6,3.6,3.6v6.6c-0.1-0.1-0.3-0.2-0.4-0.3
		c-1.3-0.8-4.2-0.9-6.8-0.9v-5.5C39.2,9.6,40.8,7.9,42.8,7.9z M34.7,7.9c2,0,3.6,1.6,3.6,3.6v5.5c-1.9,0.1-3.4,0.2-3.7,0.3
		c-1.4,0-2.7,0.7-3.5,1.7v-7.4C31.1,9.6,32.7,7.9,34.7,7.9z M26.6,8.7c2,0,3.6,1.6,3.6,3.6v5.2c0,0,0,0,0,0.1c0,2-1.6,3.6-3.6,3.6
		c-2,0-3.6-1.6-3.6-3.6c0-0.1,0-0.1,0-0.2v-5.1C23,10.4,24.6,8.7,26.6,8.7z M18.5,9.6c2,0,3.6,1.6,3.6,3.6v4.7
		c-0.1,1.9-1.7,3.4-3.6,3.4c-1.9,0-3.5-1.5-3.6-3.3v-4.8C14.9,11.2,16.5,9.6,18.5,9.6z M18.5,22.2c1.8,0,3.4-1.1,4.1-2.6
		c0.7,1.5,2.2,2.6,4,2.6c1.5,0,2.8-0.7,3.6-1.8v0.2c0,0,0,0.1,0,0.1C30.1,21,30,21.5,30,22c0,2.6,2.1,4.7,4.7,4.7c0,0,0,0,0,0
		c3-0.1,6.6-0.1,7.1,0.3c0.2,0.1,0.5,0.1,0.6-0.1c0.1-0.2,0.1-0.5-0.1-0.6c-1-0.7-6-0.5-7.6-0.4c-2.1,0-3.8-1.7-3.8-3.8
		s1.7-3.8,3.8-3.8c0,0,0,0,0,0c2.4-0.3,9-0.7,10.8,0.5c2.3,1.4,4,3,4,3c0,0,0,0,0,0c1.2,0.8,1.8,2.3,1.4,3.7L48.9,35
		c-0.3,1.5-1.1,2.8-2.1,3.8C45.9,39.6,45,40.4,44,41c-3.1,2-6.6,3-10.3,3c-10.4,0-18.8-8.5-18.8-18.8v-4.9
		C15.7,21.4,17,22.2,18.5,22.2z"/>
</g>
</svg>
