<?xml version="1.0" encoding="utf-8"?>
<!-- Generator: Adobe Illustrator 24.1.1, SVG Export Plug-In . SVG Version: 6.00 Build 0)  -->
<svg version="1.1" id="Warstwa_1" xmlns="http://www.w3.org/2000/svg" xmlns:xlink="http://www.w3.org/1999/xlink" x="0px" y="0px"
	 viewBox="0 0 66 52" style="enable-background:new 0 0 66 52;" xml:space="preserve">
<style type="text/css">
	.st0{fill:#F45E20;stroke:#F45E20;stroke-width:0.7738;stroke-miterlimit:10;}
</style>
<g>
	<path class="st0" d="M41.3,30.2v-2.4V4.5c0-2.3-1.9-4.2-4.2-4.2c-2.3,0-4.2,1.9-4.2,4.2v11c-0.8-1-2-1.7-3.3-1.7
		c-2,0-3.7,1.4-4.1,3.3c-0.8-1.1-2-1.8-3.4-1.8c-1.4,0-2.6,0.7-3.3,1.7V9.6c0,0,0,0,0,0c0-2.3-1.9-4.2-4.2-4.2
		c-2.3,0-4.2,1.9-4.2,4.2c0,0,0,0,0,0v23.8c0,0,0,0,0,0c0,10.1,8.2,18.3,18.4,18.3c3.6,0,7-1,10-3c1.7-1.1,3.2-2.4,4.4-4
		c0,0,0,0,0,0c0,0,0,0,0,0c1.8-2.4,11.6-16.1,11.7-16.2c0,0,0,0,0,0c1.3-1.7,1.1-4-0.4-5.5c-1.6-1.6-4.3-1.6-5.9,0L41.3,30.2z
		 M29.6,14.7c1.8,0,3.3,1.5,3.3,3.3v10.4c0,0,0,0,0,0c0,1.8-1.5,3.3-3.3,3.3c-1.8,0-3.3-1.5-3.3-3.3V18
		C26.3,16.2,27.8,14.7,29.6,14.7z M22.1,16.2c1.8,0,3.3,1.5,3.3,3.3v8.8c0,0,0,0.1,0,0.1c0,1.8-1.5,3.3-3.3,3.3
		c-1.8,0-3.3-1.5-3.3-3.3c0,0,0,0,0-0.1v-8.9C18.7,17.7,20.2,16.2,22.1,16.2z M53.8,23.6c1.2,1.2,1.3,3.1,0.3,4.4c0,0,0,0,0,0
		c0,0,0,0,0,0c-0.1,0.1-9.8,13.8-11.6,16.2c-1.2,1.5-2.6,2.8-4.2,3.8c-2.8,1.8-6.1,2.8-9.5,2.8c-9.6,0-17.5-7.8-17.5-17.5
		c0,0,0,0,0,0V9.6c0,0,0,0,0,0c0-1.8,1.5-3.3,3.3-3.3c1.8,0,3.3,1.5,3.3,3.3c0,0,0,0,0,0v9.9c0,0,0,0,0,0c0,0,0,0,0,0v8.9
		c0,0,0,0,0,0.1c0,2.3,1.9,4.2,4.2,4.2c1.7,0,3.1-1,3.8-2.4c0.7,1.4,2.1,2.3,3.8,2.3c2.3,0,4.2-1.9,4.2-4.2c0,0,0,0,0-0.1V4.5
		c0-1.8,1.5-3.3,3.3-3.3c1.8,0,3.3,1.5,3.3,3.3v23.3v3.4c0,0,0,0.1,0,0.1c0,0.1,0.1,0.3,0.2,0.3c0.1,0,0.1,0,0.2,0
		c0.1,0,0.2,0,0.2-0.1c0,0,0.1,0,0.1-0.1l7.9-7.9C50.4,22.3,52.5,22.3,53.8,23.6z"/>
</g>
</svg>
