<?xml version="1.0" encoding="utf-8"?>
<!-- Generator: Adobe Illustrator 24.1.1, SVG Export Plug-In . SVG Version: 6.00 Build 0)  -->
<svg version="1.1" id="Warstwa_1" xmlns="http://www.w3.org/2000/svg" xmlns:xlink="http://www.w3.org/1999/xlink" x="0px" y="0px"
	 viewBox="0 0 66 52" style="enable-background:new 0 0 66 52;" xml:space="preserve">
<style type="text/css">
	.st0{fill:#F45E20;stroke:#F45E20;stroke-width:0.7738;stroke-miterlimit:10;}
</style>
<path class="st0" d="M49.8,28.2c-0.2-0.1-1.3-1.1-2.8-2.2V4.6c0,0,0-0.1,0-0.1c-0.1-2.4-2-4.2-4.4-4.2c-2.4,0-4.3,1.9-4.4,4.2
	c0,0,0,0.1,0,0.1v11.7c-0.8-1.1-2.1-1.8-3.5-1.8c-1.9,0-3.6,1.2-4.2,3c-0.8-1.3-2.2-2.2-3.8-2.2c-1.5,0-2.7,0.7-3.5,1.8V8.8
	c0,0,0,0,0,0c0,0,0,0,0,0c0-2.4-2-4.4-4.4-4.4c-2.4,0-4.3,1.9-4.4,4.2c0,0,0,0.1,0,0.1v23.7c0,10.7,8.7,19.4,19.4,19.4
	c3.8,0,7.4-1.1,10.5-3.1c1-0.7,2-1.4,2.9-2.3c1.2-1.1,2-2.6,2.3-4.2l2.1-9.4C51.9,31,51.2,29.2,49.8,28.2z M39.1,4.7
	c0-2,1.6-3.5,3.5-3.5c2,0,3.5,1.6,3.5,3.5v20.8c-0.1-0.1-0.3-0.2-0.4-0.3c-1.2-0.8-4.1-0.9-6.7-0.9V4.7z M34.7,15.4
	c2,0,3.5,1.6,3.5,3.5v5.4c-1.9,0.1-3.4,0.2-3.6,0.3c-1.4,0-2.6,0.6-3.5,1.6v-7.3C31.1,17,32.7,15.4,34.7,15.4z M26.7,16.2
	c2,0,3.5,1.6,3.5,3.5v5.8c0,0,0,0,0,0.1c0,2-1.6,3.5-3.5,3.5s-3.5-1.6-3.5-3.5c0,0,0,0,0-0.1c0,0,0,0,0,0v-5.8
	C23.2,17.8,24.8,16.2,26.7,16.2z M50.7,32.6L48.6,42c-0.3,1.5-1,2.7-2.1,3.7c-0.8,0.8-1.8,1.5-2.7,2.2c-3,2-6.5,3-10.1,3
	c-10.2,0-18.5-8.3-18.5-18.5V8.8c0-2,1.6-3.5,3.5-3.5c2,0,3.5,1.6,3.5,3.5c0,0,0,0,0,0c0,0,0,0,0,0v16.7c0,0,0,0,0,0.1c0,0,0,0,0,0
	c0,2.4,2,4.4,4.4,4.4c1.4,0,2.6-0.6,3.4-1.6c0,0.2-0.1,0.5-0.1,0.7c0,2.5,2.1,4.6,4.6,4.6c0,0,0,0,0,0c3-0.1,6.4-0.1,6.9,0.2
	c0.2,0.1,0.5,0.1,0.6-0.1c0.1-0.2,0.1-0.5-0.1-0.6c-0.9-0.7-5.9-0.5-7.4-0.4c-2.1,0-3.7-1.7-3.7-3.7s1.7-3.7,3.7-3.7c0,0,0,0,0,0
	c2.4-0.3,8.9-0.7,10.6,0.4c2.2,1.4,3.9,2.9,4,2.9c0,0,0,0,0,0C50.4,29.7,51,31.2,50.7,32.6z"/>
</svg>
