<?xml version="1.0" encoding="utf-8"?>
<!-- Generator: Adobe Illustrator 24.3.0, SVG Export Plug-In . SVG Version: 6.00 Build 0)  -->
<svg version="1.1" id="Warstwa_1" xmlns="http://www.w3.org/2000/svg" xmlns:xlink="http://www.w3.org/1999/xlink" x="0px" y="0px"
	 viewBox="0 0 96.9 96.9" style="enable-background:new 0 0 96.9 96.9;" xml:space="preserve">
<style type="text/css">
	.st0{fill:#F45E20;}
</style>
<g>
	<path class="st0" d="M48.5,0C21.7,0,0,21.7,0,48.5s21.7,48.5,48.5,48.5s48.5-21.7,48.5-48.5S75.2,0,48.5,0z M48.5,93.1
		c-24.6,0-44.7-20-44.7-44.7s20-44.7,44.7-44.7s44.7,20,44.7,44.7S73.1,93.1,48.5,93.1z"/>
	<path class="st0" d="M89,43.5C87.6,33,77.4,23.4,77,23c-2.4-2.3-4.1-3.3-6.8-2.3c-1.3,0.5-2.3,1.4-2.9,2.7
		c-0.1,0.2-0.2,0.5-0.3,0.8L57,14c-1-1-2.3-1.5-3.6-1.5c0,0,0,0,0,0c-1.4,0-2.7,0.5-3.7,1.5c-0.7,0.7-1.2,1.7-1.4,2.6l-0.2-0.2
		c-1-1-2.3-1.5-3.7-1.5c-1.4,0-2.7,0.5-3.7,1.5l0,0c-1.8,1.8-2,4.6-0.6,6.6c-1,0.2-2,0.7-2.7,1.4c-1,1-1.5,2.2-1.5,3.6
		c-0.9-0.3-1.9-0.5-2.9-0.5c-5.3,0-9.6,4.3-9.6,9.6c0,1.4,1,1.9,1.9,1.9s1.9-0.5,1.9-1.9c0-3.2,2.6-5.8,5.8-5.8c1.7,0,3.3,0.8,4.4,2
		c-0.5,0.2-1,0.6-1.4,1c-1,1-1.5,2.3-1.5,3.7c0,1.4,0.5,2.7,1.5,3.7l14.7,14.7c-0.7-0.1-1.5-0.1-2.3-0.1c-9.7,0-18.4,5.4-22.7,14.2
		c-0.3,0.7-0.3,1.3,0,1.8c0.4,0.6,1.1,1,1.8,1c0.5,0,1.2-0.2,1.6-1.1c3.6-7.4,11-12,19.2-12c1.8,0,3.6,0.2,5.2,0.6
		c0.7,0.2,1.4,0.4,2.1,0.7c1.9,1.6,3.9,2.7,6.2,3.5c2.3,1.9,4.3,4.4,5.7,7.2c0.4,0.9,1.1,1.1,1.6,1.1c0.7,0,1.4-0.4,1.8-1
		c0.3-0.5,0.3-1.1,0-1.8c-0.8-1.6-1.7-3-2.7-4.4c0.1,0,0.3,0,0.4,0c5.4,0,10.5-2.1,14.3-5.9c2.8-2.8,4.7-6.3,5.5-10.1
		C89.1,47.9,89.2,45.7,89,43.5z M85.2,49.4c-0.7,3.2-2.2,6.1-4.5,8.4c-3.2,3.2-7.4,4.9-11.9,4.9s-8.7-1.7-11.9-4.9L38.5,39.3
		C38.2,39,38,38.5,38,38.1s0.2-0.9,0.5-1.2c0.3-0.3,0.8-0.5,1.2-0.5c0.4,0,0.8,0.2,1.2,0.5l9.2,9.2c0.9,0.9,2.4,0.9,3.3,0
		c0.9-0.9,0.9-2.4,0-3.3L39.9,29.4c-0.3-0.3-0.5-0.7-0.5-1.2s0.2-0.9,0.5-1.2c0.6-0.6,1.7-0.6,2.4,0l13.4,13.4
		c0.9,0.9,2.4,0.9,3.3,0c0.9-0.9,0.9-2.4,0-3.3L43.3,21.3c-0.6-0.6-0.6-1.7,0-2.4c0.6-0.6,1.7-0.6,2.4,0l15.8,15.8
		c0.9,0.9,2.4,0.9,3.3,0c0.4-0.4,0.7-1,0.7-1.7s-0.2-1.2-0.7-1.7L52.1,18.8c-0.6-0.6-0.6-1.7,0-2.3c0.3-0.3,0.7-0.5,1.2-0.5
		c0,0,0,0,0,0c0.4,0,0.9,0.2,1.2,0.5l12.2,12.3l8,9c0.9,1,2.3,1.1,3.3,0.2c0.5-0.4,0.8-1,0.8-1.6c0-0.6-0.2-1.2-0.6-1.7l-7.9-8.9
		c0-0.3,0-0.6,0.1-0.9c0.2-0.4,0.5-0.7,0.9-0.9c0.7-0.3,1.1-0.4,3.2,1.6c0.1,0.1,9.8,9.2,10.9,18.4C85.7,45.7,85.6,47.6,85.2,49.4z"
		/>
</g>
</svg>
