<?xml version="1.0" encoding="utf-8"?>
<!-- Generator: Adobe Illustrator 24.1.2, SVG Export Plug-In . SVG Version: 6.00 Build 0)  -->
<svg version="1.1" id="Warstwa_1" xmlns="http://www.w3.org/2000/svg" xmlns:xlink="http://www.w3.org/1999/xlink" x="0px" y="0px"
	 viewBox="0 0 50 50" style="enable-background:new 0 0 50 50;" xml:space="preserve">
<style type="text/css">
	.st0{fill:#F45E20;}
</style>
<g>
	<path class="st0" d="M25,0C11.2,0,0,11.2,0,25s11.2,25,25,25s25-11.2,25-25S38.8,0,25,0z M25,48C12.3,48,2,37.7,2,25S12.3,2,25,2
		s23,10.3,23,23S37.7,48,25,48z"/>
	<path class="st0" d="M31.3,19.7c1.2,0,2.3-1,2.3-2.3c0-1.2-1-2.3-2.3-2.3c-1.2,0-2.3,1-2.3,2.3C29,18.7,30,19.7,31.3,19.7z"/>
	<path class="st0" d="M18.7,19.7c1.2,0,2.3-1,2.3-2.3c0-1.2-1-2.3-2.3-2.3c-1.2,0-2.3,1-2.3,2.3C16.5,18.7,17.5,19.7,18.7,19.7z"/>
	<path class="st0" d="M37.6,29.3L37.6,29.3l-25.2,0c-0.4,0-0.9,0.2-1.1,0.6c-0.2,0.3-0.2,0.7,0,1.1c2.6,5.3,7.8,8.5,13.6,8.5
		s11.1-3.3,13.6-8.5c0.2-0.4,0.2-0.8,0-1.1C38.4,29.5,38,29.3,37.6,29.3z"/>
</g>
</svg>
