<?xml version="1.0" encoding="utf-8"?>
<!-- Generator: Adobe Illustrator 24.1.1, SVG Export Plug-In . SVG Version: 6.00 Build 0)  -->
<svg version="1.1" id="Warstwa_1" xmlns="http://www.w3.org/2000/svg" xmlns:xlink="http://www.w3.org/1999/xlink" x="0px" y="0px"
	 viewBox="0 0 66 52" style="enable-background:new 0 0 66 52;" xml:space="preserve">
<style type="text/css">
	.st0{fill:#F45E20;stroke:#F45E20;stroke-width:0.7738;stroke-miterlimit:10;}
</style>
<path class="st0" d="M45.7,18.7c-1.3,0-2.4,0.6-3.1,1.5v0c0-2.2-1.8-3.9-4-3.9c-1.3,0-2.4,0.6-3.1,1.5V4.9c0-2.2-1.8-3.9-4-3.9
	s-4,1.8-4,3.9c0,0,0,0,0,0v12.3c-0.7-0.9-1.8-1.5-3.1-1.5c-2.2,0-4,1.8-4,3.9v6.9l-2.4,1.7c-1.3,0.9-1.9,2.5-1.6,4.1
	c0.3,1.2,0.6,3.3,1,5.2c0.3,1.9,0.7,3.8,0.9,4.9c0.3,1.4,1,2.7,2.1,3.7c0.8,0.7,1.6,1.4,2.5,2c2.8,1.8,6.1,2.8,9.4,2.8
	c9.5,0,17.3-7.7,17.3-17.2V22.7C49.6,20.5,47.9,18.7,45.7,18.7z M48.8,33.8c0,9-7.4,16.3-16.4,16.3c-3.2,0-6.3-0.9-8.9-2.6
	c-0.9-0.6-1.7-1.2-2.4-1.9c-0.9-0.9-1.5-2-1.8-3.3c-0.2-1.1-0.6-2.9-0.9-4.8c-0.3-2-0.7-4-1-5.3c-0.3-1.2,0.2-2.5,1.2-3.2l2-1.4v6.7
	c0,0.2,0.2,0.4,0.4,0.4c0.2,0,0.4-0.2,0.4-0.4v-7.5c0,0,0,0,0,0v-7.1c0-1.7,1.4-3.1,3.1-3.1s3.1,1.4,3.1,3.1c0,0,0,0,0,0v7.2
	c0,0.2,0.2,0.4,0.4,0.4c0.2,0,0.4-0.2,0.4-0.4v-22c0,0,0,0,0,0c0-1.7,1.4-3.1,3.1-3.1c1.7,0,3.1,1.4,3.1,3.1v21.3
	c0,0.2,0.2,0.4,0.4,0.4c0.2,0,0.4-0.2,0.4-0.4v-6c0-1.7,1.4-3.1,3.1-3.1c1.7,0,3.1,1.4,3.1,3.1v7.4c0,0.2,0.2,0.4,0.4,0.4
	c0.2,0,0.4-0.2,0.4-0.4v-4.9c0-1.7,1.4-3.1,3.1-3.1c1.7,0,3.1,1.4,3.1,3.1V33.8z"/>
</svg>
