<?xml version="1.0" encoding="utf-8"?>
<!-- Generator: Adobe Illustrator 24.1.2, SVG Export Plug-In . SVG Version: 6.00 Build 0)  -->
<svg version="1.1" id="Warstwa_1" xmlns="http://www.w3.org/2000/svg" xmlns:xlink="http://www.w3.org/1999/xlink" x="0px" y="0px"
	 viewBox="0 0 50 50" style="enable-background:new 0 0 50 50;" xml:space="preserve">
<style type="text/css">
	.st0{fill:#F45E20;}
</style>
<g>
	<path class="st0" d="M25,0C11.2,0,0,11.2,0,25c0,3,0.5,5.8,1.5,8.5c-0.2,0.3-0.4,0.7-0.5,1c-0.5,1.1-0.8,2.2-0.9,3.4
		c-0.2,2.1,0.2,4.2,1.2,6.1l0,0.1c1.4,2.6,3.6,4.5,6.4,5.3C8.8,49.8,9.9,50,11,50c1.7,0,3.5-0.4,5.1-1.2l0.5-0.2
		c2.7,1,5.5,1.5,8.5,1.5c13.8,0,25-11.2,25-25C50,11.2,38.8,0,25,0z M8.3,47.5c-2.3-0.7-4.1-2.2-5.2-4.4c-0.8-1.5-1.1-3.3-1-5
		c0.1-1,0.3-1.9,0.7-2.8c2.2-4.7,7.2-9.6,7.4-9.8l0.1-0.2c0.2-0.2,0.4-0.3,0.7-0.3c0.2,0,0.4,0.1,0.5,0.2c0.2,0.1,0.3,0.3,0.3,0.6
		c0,0.2,0,0.5-0.2,0.6l-3.9,5c-0.2,0.2-0.3,0.5-0.3,0.7c0,0.4,0.2,0.9,0.5,1.1c0.4,0.3,0.9,0.3,1.4,0.1l13.5-7
		c0.2-0.1,0.4-0.1,0.7-0.1c0.2,0.1,0.4,0.2,0.5,0.4c0.2,0.4,0.1,0.9-0.4,1.2l-9.1,4.8c-0.6,0.3-0.9,1.1-0.5,1.7
		c0.3,0.6,1.1,0.9,1.7,0.5l0.9-0.5c0.2-0.1,0.4-0.1,0.7-0.1c0.2,0.1,0.4,0.2,0.5,0.4C18,35,18,35.3,18,35.5
		c-0.1,0.2-0.2,0.4-0.4,0.5l-0.9,0.5c-0.6,0.3-0.9,1.1-0.5,1.7c0.3,0.6,1.1,0.9,1.7,0.5l0.6-0.3c0.2-0.1,0.4-0.1,0.7-0.1
		c0.2,0.1,0.4,0.2,0.5,0.4c0.2,0.4,0.1,0.9-0.4,1.2l-0.6,0.3c-0.5,0.3-0.8,0.9-0.7,1.4v0.1L18,42c0,0,0,0,0,0l0.1,0.1l0,0
		c0.4,0.5,1.1,0.6,1.6,0.4l0.2-0.1c0.2-0.1,0.4-0.1,0.7-0.1c0.2,0.1,0.4,0.2,0.5,0.4c0.1,0.2,0.1,0.4,0.1,0.7
		c-0.1,0.2-0.2,0.4-0.4,0.5l-5.6,2.9C13,48,10.6,48.2,8.3,47.5z M25,48c-2.1,0-4.1-0.3-6-0.8l2.7-1.4c0.7-0.4,1.2-1,1.4-1.7
		c0.2-0.7,0.2-1.5-0.2-2.2l0,0c-0.3-0.6-0.9-1.1-1.5-1.4c0.4-0.8,0.4-1.8-0.1-2.6c-0.3-0.6-0.9-1.1-1.5-1.4c0.1-0.1,0.1-0.2,0.1-0.4
		c0.2-0.7,0.2-1.5-0.2-2.2c-0.2-0.4-0.5-0.8-0.9-1l5.9-3.1c1.4-0.7,2-2.5,1.2-4c-0.4-0.7-1-1.2-1.7-1.4c-0.7-0.2-1.5-0.2-2.2,0.2
		L11.7,30l1.7-2.2c0.5-0.6,0.7-1.4,0.6-2.2c-0.1-0.8-0.5-1.5-1.1-1.9c-1.3-1-3.1-0.7-4.1,0.5c-0.4,0.4-3.5,3.5-5.9,7.1
		C2.3,29.3,2,27.2,2,25C2,12.3,12.3,2,25,2s23,10.3,23,23S37.7,48,25,48z"/>
	<path class="st0" d="M33.2,11.8c-1.2-0.4-2.5,0.2-2.9,1.3s0.2,2.5,1.3,2.9c1.2,0.4,2.5-0.2,2.9-1.3C35,13.5,34.4,12.2,33.2,11.8z"
		/>
	<path class="st0" d="M18.3,13.8c1.2,0.4,2.5-0.2,2.9-1.3c0.4-1.2-0.2-2.5-1.3-2.9c-1.2-0.4-2.5,0.2-2.9,1.3S17.2,13.4,18.3,13.8z"
		/>
	<path class="st0" d="M29.8,21.2c-1.7-1-3.8-1.5-6.2-1.5h0c-2.2,0.1-4.3,0.5-6.4,1.3c-0.5,0.2-0.7,0.4-0.9,0.7
		c-0.1,0.2-0.1,0.5,0,0.7c0.2,0.4,0.6,0.8,1.5,0.4c2.2-0.8,4.2-1.2,6.2-1.1c3,0,5.2,1,6.8,3c0.2,0.2,0.4,0.4,0.7,0.4
		c0,0,0.1,0,0.1,0c0.2,0,0.4-0.1,0.6-0.2c0.4-0.4,0.5-0.9,0.1-1.4C31.7,22.6,30.8,21.8,29.8,21.2z"/>
</g>
</svg>
