<?xml version="1.0" encoding="utf-8"?>
<!-- Generator: Adobe Illustrator 24.1.1, SVG Export Plug-In . SVG Version: 6.00 Build 0)  -->
<svg version="1.1" id="Warstwa_1" xmlns="http://www.w3.org/2000/svg" xmlns:xlink="http://www.w3.org/1999/xlink" x="0px" y="0px"
	 viewBox="0 0 66 52" style="enable-background:new 0 0 66 52;" xml:space="preserve">
<style type="text/css">
	.st0{fill:#F45E20;stroke:#F45E20;stroke-width:0.7738;stroke-miterlimit:10;}
</style>
<path class="st0" d="M27.9,15.3c-2.3,0-4.1,1.8-4.2,4c-0.8-1-2-1.7-3.4-1.7c-2.3,0-4.3,1.9-4.3,4.2v11.4c0,10.2,8.4,18.6,18.6,18.6
	C40,51.7,50,48.3,50,40.2v-6.7c0-1.5-0.2-3.2-1.8-4.3l-0.8-0.5l-0.1-3.1c-0.1-1.5-0.4-3-0.9-4.4L44,14.8l4.1-8.2c0,0,0,0,0,0
	c0,0,0,0,0,0c0.5-1,0.6-2.2,0.2-3.2c-0.4-1.1-1.1-1.9-2.2-2.4c-2-1-4.4-0.2-5.5,1.6c0,0-0.1,0.1-0.1,0.1l-0.1,0.2c0,0,0,0,0,0
	c0,0,0,0,0,0l-0.6,1.2l-0.4-1c-0.8-2.2-3.2-3.4-5.4-2.6c-1.1,0.4-1.9,1.2-2.4,2.2c-0.5,1-0.5,2.2-0.2,3.2l3.2,8.8L32.2,20v-0.5
	C32.2,17.2,30.2,15.3,27.9,15.3z M27.9,16.1c1.9,0,3.4,1.5,3.4,3.4v1c-0.4,0.3-0.8,0.6-1.1,1.1c-0.7,0.9-0.9,2-0.7,3.2
	c0.2,1.1,0.8,2.1,1.7,2.7l0.1,0.1v0.3c0,1.9-1.5,3.4-3.4,3.4c-1.9,0-3.4-1.5-3.4-3.4v-8.4C24.5,17.6,26,16.1,27.9,16.1z M20.3,18.4
	c1.9,0,3.4,1.5,3.4,3.4v6.1c0,1.9-1.5,3.4-3.4,3.4c-1.9,0-3.4-1.5-3.4-3.4v-6.1C16.9,19.9,18.4,18.4,20.3,18.4z M49.1,33.5v6.7
	c0,7.6-9.4,10.7-14.5,10.7c-9.8,0-17.8-8-17.8-17.7v-2.7c0.8,1,2,1.7,3.4,1.7c1.7,0,3.1-1,3.8-2.4c0.7,1.4,2.1,2.4,3.8,2.4
	c2.2,0,4.1-1.7,4.2-3.9l5.9,4.1c0.4,0.3,0.6,0.7,0.6,1.2c0,0.5-0.2,0.9-0.7,1.2c-3.3,2.3-5.3,5.9-5.3,9.6c0,0.2,0.2,0.4,0.4,0.4
	c0.2,0,0.4-0.2,0.4-0.4c0-3.4,1.9-6.9,5-8.9c0.6-0.4,1-1.1,1-1.9c0-0.8-0.4-1.5-1-1.9L32,27c0,0,0,0,0,0l-0.3-0.2
	c-0.7-0.5-1.2-1.3-1.4-2.2c-0.2-0.9,0-1.8,0.6-2.5c1.1-1.5,3.2-1.9,4.7-0.8l12.1,8.5C48.7,30.6,49.1,31.6,49.1,33.5z M32.4,3.1
	c0.4-0.8,1.1-1.4,1.9-1.7c1.8-0.6,3.7,0.3,4.3,2.1l6.9,18c0.5,1.3,0.8,2.7,0.9,4.1l0.1,2.4l-8.1-5.7c0,0,0-0.1,0-0.1L32.3,5.6
	C32,4.8,32,3.9,32.4,3.1z M41.2,3.3c0.8-1.7,2.9-2.4,4.5-1.5c0.8,0.4,1.4,1.1,1.7,1.9c0.3,0.9,0.2,1.8-0.2,2.6l-3.7,7.5l-3.3-8.5
	L41.2,3.3z M37.2,21.4l-1.1-0.8c-0.9-0.6-1.9-0.9-2.9-0.7l2-4L37.2,21.4z"/>
</svg>
