<?xml version="1.0" encoding="utf-8"?>
<!-- Generator: Adobe Illustrator 24.1.1, SVG Export Plug-In . SVG Version: 6.00 Build 0)  -->
<svg version="1.1" id="Warstwa_1" xmlns="http://www.w3.org/2000/svg" xmlns:xlink="http://www.w3.org/1999/xlink" x="0px" y="0px"
	 viewBox="0 0 50 50" style="enable-background:new 0 0 50 50;" xml:space="preserve">
<style type="text/css">
	.st0{fill:#F45E20;}
</style>
<path class="st0" d="M25,50C11.4,50,0.2,38.9,0,25.4c-0.1-6.7,2.4-13,7.1-17.8C11.7,2.8,18,0.1,24.6,0c0.1,0,0.2,0,0.4,0
	c13.6,0,24.8,11.1,25,24.6c0.1,6.7-2.4,13-7.1,17.8C38.3,47.2,32,49.9,25.4,50C25.2,50,25.1,50,25,50z M24.7,2
	c-6.2,0.1-11.9,2.6-16.2,7S1.9,19.2,2,25.3C2.1,37.9,12.5,48,25,48l0.3,0C38,47.9,48.2,37.4,48,24.7C47.9,12.1,37.5,2,25,2L24.7,2z
	 M25,37.8c-4.9,0-9.4-2.7-11.6-7.2c-0.2-0.3-0.2-0.7,0-0.9c0.2-0.3,0.6-0.5,0.9-0.5c0.2,0,0.6,0.1,0.8,0.6c1.9,3.7,5.7,6.1,9.9,6.1
	l0.2,0c4.3-0.1,8-2.5,9.8-6.4c0.2-0.5,0.6-0.6,0.8-0.6c0.4,0,0.7,0.2,0.9,0.5c0.2,0.3,0.2,0.6,0,0.9c-2.1,4.5-6.6,7.4-11.6,7.5
	L25,37.8z M17.3,21.2c-1.1-1.6-2.5-2.5-3.2-2.9L14,18.2c-0.8-0.5-2.1-1.3-2.1-2.9c0-0.9,0.4-1.6,0.8-1.9c0.5-0.4,1.1-0.7,1.7-0.7
	c0,0,0,0,0,0c1,0,1.8,0.5,2.4,1.4l0.5,0.8l0.5-0.9c0.6-1,1.4-1.5,2.4-1.5h0c1.1,0,2.5,0.9,2.5,2.5c0,1.6-1.2,2.4-2.1,3l-0.1,0.1
	C19.8,18.6,18.4,19.5,17.3,21.2z M32.6,21c-1.1-1.6-2.5-2.5-3.2-2.9L29.3,18c-0.8-0.5-2.1-1.3-2.1-2.9c0-1.7,1.4-2.6,2.5-2.6
	c0,0,0,0,0,0c1,0,1.8,0.5,2.4,1.4l0.5,0.8l0.5-0.9c0.6-1,1.4-1.5,2.4-1.5c0,0,0,0,0,0c1.1,0,2.5,0.9,2.5,2.5c0,1.6-1.2,2.4-2.1,3
	L35.7,18C35.1,18.4,33.7,19.3,32.6,21z"/>
</svg>
