<?xml version="1.0" encoding="utf-8"?>
<!-- Generator: Adobe Illustrator 24.1.1, SVG Export Plug-In . SVG Version: 6.00 Build 0)  -->
<svg version="1.1" id="Warstwa_1" xmlns="http://www.w3.org/2000/svg" xmlns:xlink="http://www.w3.org/1999/xlink" x="0px" y="0px"
	 viewBox="0 0 66 52" style="enable-background:new 0 0 66 52;" xml:space="preserve">
<style type="text/css">
	.st0{fill:#F45E20;stroke:#F45E20;stroke-width:0.7738;stroke-miterlimit:10;}
</style>
<g>
	<g>
		<path class="st0" d="M20.5,43.5c0.1,0,0.1,0.1,0.2,0.1c0.2,0,0.3-0.1,0.4-0.2c0.1-0.2,0-0.5-0.2-0.6c-2.8-1.5-5.1-3.9-6.4-6.8
			c-0.1-0.2-0.4-0.3-0.6-0.2c-0.2,0.1-0.3,0.4-0.2,0.6C15.1,39.3,17.5,41.9,20.5,43.5z"/>
		<path class="st0" d="M19.8,47.1c0.1,0,0.1,0.1,0.2,0.1c0.2,0,0.3-0.1,0.4-0.2c0.1-0.2,0-0.5-0.2-0.6c-4-2.2-7.3-5.6-9.3-9.8
			c-0.1-0.2-0.4-0.3-0.6-0.2c-0.2,0.1-0.3,0.4-0.2,0.6C12.2,41.3,15.6,44.9,19.8,47.1z"/>
	</g>
	<path class="st0" d="M16.1,31.8C16.1,31.8,16.1,31.8,16.1,31.8l10.7,8.7l2.9,3.7c2.9,3.7,7.2,5.6,11.6,5.6c3.2,0,6.3-1,9-3.1
		c2.2-1.8,3.9-4.1,4.9-6.8c0.5-1.5,0.8-3.1,0.8-4.7c0,0,0,0,0,0c0,0,0,0,0,0c0-7.5-3.6-16.9-3.8-17.5c-0.2-0.9-0.7-1.6-1.5-2.1
		c-0.8-0.5-1.7-0.6-2.6-0.4c-1.8,0.4-3,2.3-2.6,4.1L47,26l-2.5-3.2l-7.3-12.7c0,0,0,0,0,0c-0.4-0.8-1.1-1.4-2-1.6
		c-0.9-0.3-1.8-0.2-2.6,0.2c-1.7,0.9-2.3,3-1.4,4.6c0,0,0,0,0,0c0,0,0,0,0,0l4.8,8.3l-7.7-9.9c-1.2-1.5-3.3-1.7-4.8-0.6
		c-1.4,1.1-1.7,3.1-0.8,4.5c0,0,0,0.1,0.1,0.1l0.1,0.2c0,0,0,0,0,0c0,0,0,0,0,0l7.7,9.9L23,18.6c0,0,0,0,0,0c0,0,0,0,0,0l-0.1-0.1
		c0,0,0,0,0,0c-1.4-1.1-3.5-1-4.7,0.4c-0.6,0.7-0.9,1.6-0.9,2.5c0,0.9,0.4,1.7,1.1,2.3c0,0,0,0,0,0l6.4,6.1l-4.6-3.4c0,0,0,0,0,0
		c0,0,0,0,0,0l0,0c0,0,0,0,0,0c-1.5-1.1-3.6-0.7-4.8,0.8c-0.5,0.7-0.8,1.6-0.6,2.5C14.9,30.5,15.4,31.2,16.1,31.8z M16.1,27.5
		c0.8-1.1,2.4-1.4,3.6-0.6l10.1,7.5c0,0,0,0,0.1,0c0,0,0,0,0,0c0,0,0.1,0,0.1,0c0,0,0,0,0,0l0,0c0,0,0.1,0,0.1,0c0,0,0,0,0,0
		c0,0,0,0,0.1,0c0,0,0,0,0,0c0,0,0,0,0,0c0,0,0,0,0,0c0,0,0,0,0,0c0,0,0,0,0,0c0,0,0,0,0,0c0,0,0-0.1,0.1-0.1c0,0,0,0,0,0
		c0,0,0-0.1,0-0.1c0,0,0,0,0,0c0,0,0-0.1,0-0.1c0,0,0,0,0,0c0,0,0-0.1-0.1-0.1c0,0,0,0,0,0L19,23c0,0,0,0,0,0c0,0,0,0,0,0
		c-0.5-0.5-0.8-1.1-0.8-1.8c0-0.7,0.2-1.3,0.7-1.8c0.9-1,2.5-1.1,3.6-0.2l12,11.6c0,0,0,0,0,0c0,0,0.1,0.1,0.1,0.1c0,0,0,0,0,0
		c0,0,0.1,0,0.1,0c0,0,0,0,0,0c0,0,0,0,0,0l0,0c0,0,0,0,0,0c0,0,0.1,0,0.1,0c0,0,0,0,0,0c0,0,0.1,0,0.1-0.1c0,0,0,0,0,0c0,0,0,0,0,0
		c0,0,0,0,0,0c0,0,0,0,0,0c0,0,0.1-0.1,0.1-0.1c0,0,0,0,0,0c0,0,0-0.1,0-0.1c0,0,0,0,0,0c0,0,0-0.1,0-0.1c0,0,0,0,0,0
		c0,0,0-0.1-0.1-0.1L23.6,15.5c-0.9-1.1-0.7-2.7,0.5-3.6c1.1-0.9,2.7-0.7,3.6,0.4L39.1,27c0,0,0,0,0,0c0,0,0,0,0,0c0,0,0,0,0.1,0
		c0,0,0,0,0,0c0,0,0,0,0.1,0c0,0,0,0,0,0c0,0,0.1,0,0.1,0c0,0,0,0,0,0c0,0,0.1,0,0.1,0c0,0,0,0,0,0c0,0,0,0,0.1,0c0,0,0,0,0,0
		c0,0,0,0,0,0c0,0,0,0,0,0c0,0,0,0,0,0c0,0,0,0,0,0c0,0,0,0,0,0c0,0,0,0,0,0c0,0,0,0,0,0c0,0,0,0,0,0c0,0,0,0,0,0c0,0,0,0,0,0
		c0,0,0,0,0,0c0,0,0,0,0,0c0,0,0,0,0,0c0,0,0,0,0,0c0,0,0,0,0,0c0,0,0,0,0,0c0,0,0,0,0,0L32,12.9c-0.7-1.2-0.2-2.8,1.1-3.5
		c0.6-0.3,1.3-0.4,1.9-0.2c0.7,0.2,1.2,0.6,1.5,1.2c0,0,0,0,0,0c0,0,0,0,0,0l7.3,12.8c0,0,0,0,0,0c0,0,0,0,0,0l3.7,4.7c0,0,0,0,0,0
		c0,0,0,0,0,0c0,0,0,0,0,0c0,0,0,0,0,0c0,0,0,0,0,0c0,0,0,0,0,0c0,0,0,0,0,0c0,0,0,0,0.1,0c0,0,0,0,0,0c0,0,0,0,0,0c0,0,0.1,0,0.1,0
		c0,0,0,0,0,0c0,0,0,0,0,0c0,0,0.1,0,0.1-0.1c0,0,0,0,0,0c0,0,0,0,0,0c0,0,0,0,0,0c0,0,0,0,0,0c0,0,0,0,0,0c0,0,0,0,0,0c0,0,0,0,0,0
		c0,0,0,0,0,0c0,0,0,0,0,0c0,0,0,0,0,0c0,0,0,0,0,0c0,0,0,0,0,0c0,0,0,0,0,0l-2-8.6c-0.3-1.4,0.6-2.7,1.9-3.1c0.7-0.2,1.4,0,1.9,0.3
		c0.6,0.4,1,0.9,1.1,1.6c0,0,0,0,0,0.1c0,0.1,3.8,9.7,3.8,17.2c0,1.5-0.3,3-0.8,4.4c-0.9,2.5-2.5,4.7-4.6,6.4
		c-6,4.7-14.7,3.6-19.4-2.4l-2.9-3.7c0,0,0,0,0,0c0,0,0,0,0,0c0,0,0,0,0,0c0,0,0,0,0,0l-10.7-8.7c0,0,0,0,0,0c0,0,0,0,0,0
		c-0.6-0.4-0.9-1-1-1.7C15.5,28.8,15.7,28.1,16.1,27.5z"/>
	<path class="st0" d="M37.5,6.7c2.8,1.5,5.1,3.9,6.4,6.8c0.1,0.2,0.2,0.2,0.4,0.2c0.1,0,0.1,0,0.2,0c0.2-0.1,0.3-0.4,0.2-0.6
		c-1.4-3-3.8-5.6-6.8-7.2c-0.2-0.1-0.5,0-0.6,0.2C37.2,6.4,37.3,6.6,37.5,6.7z"/>
	<path class="st0" d="M38.2,3.1c4,2.2,7.3,5.6,9.3,9.8c0.1,0.2,0.2,0.2,0.4,0.2c0.1,0,0.1,0,0.2,0c0.2-0.1,0.3-0.4,0.2-0.6
		c-2-4.3-5.4-7.9-9.6-10.2c-0.2-0.1-0.5,0-0.6,0.2C37.9,2.7,38,3,38.2,3.1z"/>
</g>
</svg>
