<?xml version="1.0" encoding="utf-8"?>
<!-- Generator: Adobe Illustrator 24.1.2, SVG Export Plug-In . SVG Version: 6.00 Build 0)  -->
<svg version="1.1" id="Warstwa_1" xmlns="http://www.w3.org/2000/svg" xmlns:xlink="http://www.w3.org/1999/xlink" x="0px" y="0px"
	 viewBox="0 0 50 50" style="enable-background:new 0 0 50 50;" xml:space="preserve">
<style type="text/css">
	.st0{fill:#F45E20;}
</style>
<g>
	<path class="st0" d="M25,0C11.2,0,0,11.2,0,25s11.2,25,25,25s25-11.2,25-25S38.8,0,25,0z M25,48C12.3,48,2,37.7,2,25S12.3,2,25,2
		s23,10.3,23,23S37.7,48,25,48z"/>
	<path class="st0" d="M9.1,25.3c-0.1,0.8-0.1,1.6,0,2.4h12.3c0.1-0.8,0.1-1.6,0-2.4H9.1z"/>
	<path class="st0" d="M29.4,13.5l-5.8,2.9c-0.2,1-0.2,1.9,0,2.9l5.2-2.7l0.2,0.2c-0.1,0.6-0.2,1.2-0.2,1.8v18.6
		c0.9,0.2,1.9,0.2,2.9,0V13.5C30.9,13.4,30.3,13.4,29.4,13.5z"/>
</g>
</svg>
