<?xml version="1.0" encoding="utf-8"?>
<!-- Generator: Adobe Illustrator 24.1.1, SVG Export Plug-In . SVG Version: 6.00 Build 0)  -->
<svg version="1.1" id="Warstwa_1" xmlns="http://www.w3.org/2000/svg" xmlns:xlink="http://www.w3.org/1999/xlink" x="0px" y="0px"
	 viewBox="0 0 66 52" style="enable-background:new 0 0 66 52;" xml:space="preserve">
<style type="text/css">
	.st0{fill:#F45E20;}
</style>
<path class="st0" d="M57.5,38.3c-0.6-3.9-2.7-7.3-5.9-9.6c-3.2-2.2-7.3-3-11.1-2.2c-5.2,1.2-9.9,3.1-13.3,5.6c0,0,0,0,0,0
	c0.5-1.8,0.9-3.8,1.4-5.9c1-4.9,2.1-10,4.4-11.8c0,0,0,0,0,0c1.4,2.2,2.8,3.4,5.5,3.3c0,0,0,0,0,0l2.3-0.1c0,0,0,0,0,0
	c0.5,0.7,1,1.2,1.8,1.5c0.2,0.1,0.4,0.1,0.7,0.1c1.2-0.1,2.5-1.4,2.9-2.5c0.1-0.3,0.1-0.5,0.1-0.8c0,0,0,0,0,0
	c0.7-0.9,1.3-2,1.8-3.5c0-0.2,0.1-0.3,0-0.5c-0.6-2.2-1.5-3.4-2.8-4.9c-0.5-0.6-1.1-1.3-1.7-2.2c-0.1-0.2-0.3-0.3-0.6-0.4
	c-6.7-0.9-9.8-0.9-14.9,1c-0.5,0.2-1,0.5-1.3,1c-0.8,1.2-1.9,2.6-3,4.3c-5,6.9-11.8,16.3-14,24.1c-0.1,0.2-0.1,0.4-0.3,0.5
	c-1.8,2.5-1,4,0.1,5.4c0.1,0.1,0.1,0.2,0.2,0.3c1,2.3,3.1,4.2,6.2,5.5c0,0,0,0,0,0c2.6,0.9,10.1,1.4,22.3,1.4
	c5.9,0,11.5-0.1,14.2-0.2c2.4-0.1,4.5-1.7,5-4C57.8,42.3,57.8,40.5,57.5,38.3z M43,17.7C43,17.7,43,17.7,43,17.7
	c-0.5-0.2-0.8-0.5-1.2-1c0,0,0,0,0,0c0.2-0.8,0.7-1.1,1.4-1.5c0.2,0.1,0.3,0.2,0.4,0.2c0.4,0.2,0.6,0.5,0.8,0.9c0,0,0,0,0,0
	C44.2,16.9,43.4,17.6,43,17.7z M55.8,43.4c-0.4,1.6-1.8,2.7-3.5,2.8c-14.8,0.4-32.1,0.3-35.9-1.1c0,0,0,0,0,0
	c-2.7-1.1-4.5-2.7-5.3-4.6c-0.1-0.2-0.2-0.4-0.4-0.6c-1-1.3-1.2-1.9-0.1-3.5c0.2-0.3,0.4-0.7,0.5-1c2.2-7.4,8.9-16.8,13.8-23.6
	c1.1-1.6,2.2-3.1,3.1-4.3c0.1-0.2,0.3-0.3,0.5-0.4c2.8-1,5-1.5,7.6-1.5c1.7,0,3.7,0.2,6.2,0.5c0,0,0,0,0,0c0.6,0.8,1.1,1.4,1.5,2
	c1.1,1.4,1.9,2.4,2.4,4.1c0,0,0,0,0,0c-0.3,0.9-0.7,1.6-1.1,2.2c0,0-0.1,0-0.1-0.1c0.3-0.8,0.4-1.5,0.5-2.2l0-0.1c0-0.2,0-0.3,0-0.5
	C44.8,10,42.6,7.3,42.4,7c-0.3-0.4-0.8-0.5-1.1-0.2c-0.4,0.3-0.5,0.8-0.2,1.1c0.3,0.5,2.2,2.7,2.9,4.1c0,0,0,0,0,0
	c-0.1,0.5-0.2,1-0.3,1.5c0,0,0,0,0,0c-0.2,0-0.4-0.1-0.6,0l0.2-1.5c0-0.2,0-0.4-0.1-0.6l-3.4-4.3c-0.3-0.4-0.8-0.5-1.1-0.2
	c-0.2,0.1-0.3,0.3-0.3,0.5c0,0.2,0,0.4,0.1,0.6l3.3,4.1c0,0,0,0,0,0l-0.3,2.3c0,0,0,0,0,0c-0.5,0-1.3-0.1-1.9-0.6c0,0,0,0,0,0
	c0,0,0.2-1.4,0.2-2c0-0.2,0-0.3-0.1-0.5c-1.2-2.2-2.6-2.9-2.8-3.2c-0.3-0.4-0.9-0.5-1.3-0.1c-0.1,0.2-0.2,0.4-0.2,0.6
	c0,0.2,0.1,0.4,0.2,0.5c0.1,0.1,1.8,1.3,2.6,2.7c0,0,0,0,0,0l-0.2,1.7c0,0,0,0,0,0c-0.4,0.2-0.3,0-1-0.3c-0.2-0.1,0-0.7,0-1.3l0-0.3
	c0-0.2-0.1-0.4-0.2-0.6C36.4,11.1,36.2,11,36,11c-0.2,0-0.4,0.1-0.6,0.2c-0.2,0.1-0.3,0.4-0.3,0.6c0,0.1,0,0.2,0,0.3
	c0,0.7-0.2,1.4,0.1,1.9c0,0,0.2,0.2,0.3,0.3c0.1,0.1,0.3,0.2,0.3,0.2c0.5,0.3,0.8,0.6,1.4,0.7c0.4,0.1,0.8,0,1.1-0.1c0,0,0,0,0,0
	c0.5,0.4,1,0.6,1.6,0.8l-1.5,0.2c0,0-0.1,0-0.1,0c0,0,0,0,0,0c-1.3,0.1-2.1-0.2-2.9-0.8c0,0-0.3-0.3-0.6-0.6
	c-0.2-0.3-0.4-0.9-0.7-1.3c-0.5-0.6-1.4-0.8-2-0.4c-3,2-4.1,7.5-5.2,12.9c-0.7,3.3-1.3,6.4-2.3,8.5c-0.2,0.3-0.1,0.7,0.1,1
	c0.3,0.4,0.9,0.4,1.2,0c3.2-3.2,8.6-5.9,15-7.3c3.4-0.7,7,0,9.8,2c2.9,2,4.8,5,5.3,8.5C56.1,40.5,56.1,42.1,55.8,43.4z"/>
</svg>
