<?xml version="1.0" encoding="utf-8"?>
<!-- Generator: Adobe Illustrator 24.1.1, SVG Export Plug-In . SVG Version: 6.00 Build 0)  -->
<svg version="1.1" id="Warstwa_1" xmlns="http://www.w3.org/2000/svg" xmlns:xlink="http://www.w3.org/1999/xlink" x="0px" y="0px"
	 viewBox="0 0 66 52" style="enable-background:new 0 0 66 52;" xml:space="preserve">
<style type="text/css">
	.st0{fill:#F45E20;stroke:#F45E20;stroke-width:0.7738;stroke-miterlimit:10;}
</style>
<g>
	<path class="st0" d="M12.3,39.4C12.3,39.4,12.3,39.4,12.3,39.4c0.8,1,1.8,1.9,2.8,2.6c1.9,1.3,4.2,1.9,6.5,1.9
		c5.4,0,10-3.7,11.4-8.7c1.4,5,6,8.7,11.4,8.7c2.3,0,4.5-0.7,6.5-1.9c1.1-0.7,2-1.6,2.8-2.6c0,0,0,0,0,0c0,0,0,0,0,0
		c3.8-5,3.6-13.2,3.5-13.6c0-1.9-0.3-3-1.7-3.6c-1-0.5-2.1-0.3-3,0.3l0-8.9c0,0,0,0,0,0c0,0,0,0,0,0c0-1.6-1.3-2.8-2.8-2.8
		c-0.8,0-1.5,0.3-2,0.8v-0.7c0-1.6-1.3-2.8-2.8-2.8c-1.6,0-2.8,1.3-2.8,2.8c-0.5-0.5-1.2-0.8-2-0.8c-1.6,0-2.8,1.3-2.8,2.8v1.6
		c-0.5-0.5-1.2-0.8-2-0.8c-1,0-1.9,0.5-2.4,1.3c-0.5-0.8-1.4-1.3-2.4-1.3c-0.8,0-1.5,0.3-2,0.8v-1.6c0-1.6-1.3-2.8-2.8-2.8
		c-0.8,0-1.5,0.3-2,0.8c0-1.5-1.3-2.8-2.8-2.8c-1.6,0-2.8,1.3-2.8,2.8v0.7c-0.5-0.5-1.2-0.8-2-0.8c-1.6,0-2.8,1.3-2.8,2.8
		c0,0,0,0,0,0c0,0,0,0,0,0l0,8.9c-0.8-0.6-1.9-0.8-3-0.3C9,22.9,8.7,24,8.7,25.8C8.7,26.2,8.4,34.5,12.3,39.4
		C12.3,39.4,12.3,39.4,12.3,39.4z M35.4,14.5c1.1,0,2,0.9,2,2v7.7c0,0.2,0.2,0.4,0.4,0.4c0.2,0,0.4-0.2,0.4-0.4V12.9
		c0-1.1,0.9-2,2-2c1.1,0,2,0.9,2,2v11.3c0,0.2,0.2,0.4,0.4,0.4c0.2,0,0.4-0.2,0.4-0.4V10.9c0-1.1,0.9-2,2-2c1.1,0,2,0.9,2,2v13.3
		c0,0.2,0.2,0.4,0.4,0.4c0.2,0,0.4-0.2,0.4-0.4V13.6c0-1.1,0.9-2,2-2c1.1,0,2,0.9,2,2l0,10.3l-0.5,5.5c-0.6,0.3-2.1,1-3.3,2.1
		c-1.9,1.9-3.2,4.6-3.3,4.7c-0.1,0.2,0,0.5,0.2,0.6c0.2,0.1,0.5,0,0.6-0.2c0,0,1.3-2.6,3.1-4.4c1.2-1.3,3.2-2,3.2-2
		c0.2-0.1,0.3-0.2,0.3-0.4l0.4-4.7c0.1-0.1,0.1-0.2,0.1-0.3l0-0.8l0-0.1c0.5-0.9,1.6-1.3,2.6-0.9c0.9,0.4,1.2,1.1,1.2,2.9
		c0,0.1,0.3,8.3-3.4,13c-0.7,0.9-1.6,1.7-2.6,2.4c-1.8,1.2-3.9,1.8-6,1.8c-6,0-10.9-4.8-11-10.7c0-0.1,0-0.2,0-0.3V16.5
		c0,0,0-0.1,0-0.1C33.5,15.3,34.4,14.5,35.4,14.5z M9.6,25.9c0-1.8,0.3-2.4,1.2-2.9c1-0.4,2.1-0.1,2.6,0.9l0,0.1l0,0.8
		c0,0.1,0,0.2,0.1,0.3l0.4,4.7c0,0.2,0.1,0.3,0.3,0.4c0,0,2,0.7,3.2,2c1.8,1.8,3.1,4.4,3.1,4.4c0.1,0.2,0.4,0.3,0.6,0.2
		c0.2-0.1,0.3-0.4,0.2-0.6c-0.1-0.1-1.4-2.7-3.3-4.7c-1.1-1.1-2.6-1.8-3.3-2.1l-0.5-5.5l0-10.3c0-1.1,0.9-2,2-2c1.1,0,2,0.9,2,2
		v10.6c0,0.2,0.2,0.4,0.4,0.4c0.2,0,0.4-0.2,0.4-0.4V10.9c0-1.1,0.9-2,2-2c1.1,0,2,0.9,2,2v13.3c0,0.2,0.2,0.4,0.4,0.4
		c0.2,0,0.4-0.2,0.4-0.4V12.9c0-1.1,0.9-2,2-2c1.1,0,2,0.9,2,2v11.3c0,0.2,0.2,0.4,0.4,0.4c0.2,0,0.4-0.2,0.4-0.4v-7.7
		c0-1.1,0.9-2,2-2c1,0,1.9,0.8,2,1.8c0,0,0,0.1,0,0.1v15.6c0,0.1,0,0.2,0,0.3c-0.1,5.9-5,10.7-11,10.7c-2.1,0-4.2-0.6-6-1.8
		c-1-0.7-1.9-1.5-2.6-2.4C9.3,34.2,9.6,25.9,9.6,25.9z"/>
</g>
</svg>
