<?xml version="1.0" encoding="utf-8"?>
<!-- Generator: Adobe Illustrator 24.1.2, SVG Export Plug-In . SVG Version: 6.00 Build 0)  -->
<svg version="1.1" id="Warstwa_1" xmlns="http://www.w3.org/2000/svg" xmlns:xlink="http://www.w3.org/1999/xlink" x="0px" y="0px"
	 viewBox="0 0 50 50" style="enable-background:new 0 0 50 50;" xml:space="preserve">
<style type="text/css">
	.st0{fill:#F45E20;}
</style>
<g>
	<path class="st0" d="M14.2,35.7c-0.7,0-1-0.5-1-1s0.3-1,1-1h21.6c0.7,0,1,0.5,1,1s-0.3,1-1,1H14.2z"/>
	<path class="st0" d="M25,50C11.2,50,0,38.8,0,25C0,11.2,11.2,0,25,0s25,11.2,25,25C50,38.8,38.8,50,25,50z M25,2
		C12.3,2,2,12.3,2,25s10.3,23,23,23s23-10.3,23-23S37.7,2,25,2z M31.3,19.7c-1.2,0-2.3-1-2.3-2.3c0-1.2,1-2.3,2.3-2.3
		c1.2,0,2.3,1,2.3,2.3C33.5,18.7,32.5,19.7,31.3,19.7z M18.7,19.7c-1.2,0-2.3-1-2.3-2.3c0-1.2,1-2.3,2.3-2.3c1.2,0,2.3,1,2.3,2.3
		C21,18.7,20,19.7,18.7,19.7z"/>
</g>
</svg>
