<?xml version="1.0" encoding="utf-8"?>
<!-- Generator: Adobe Illustrator 24.1.1, SVG Export Plug-In . SVG Version: 6.00 Build 0)  -->
<svg version="1.1" id="Warstwa_1" xmlns="http://www.w3.org/2000/svg" xmlns:xlink="http://www.w3.org/1999/xlink" x="0px" y="0px"
	 viewBox="0 0 66 52" style="enable-background:new 0 0 66 52;" xml:space="preserve">
<style type="text/css">
	.st0{fill:#F45E20;stroke:#F45E20;stroke-width:0.7738;stroke-miterlimit:10;}
</style>
<g>
	<path class="st0" d="M51.1,4.7c0-2.4-2-4.4-4.4-4.4c0,0,0,0,0,0H32.8C22.1,0.3,13.3,9,13.3,19.7c0,3.8,1.1,7.4,3.1,10.6l11.8,19.3
		c0,0,0,0,0,0c0.8,1.4,2.3,2.2,3.8,2.2c0.7,0,1.5-0.2,2.2-0.6c1.7-1,2.5-2.9,2.1-4.8c0,0,0,0,0,0c0,0,0,0,0,0L32.9,33h15.3
		c2.4,0,4.4-2,4.4-4.4c0-1.8-1-3.3-2.5-4c1.5-0.7,2.5-2.2,2.5-4c0-1.9-1.2-3.6-3-4.2c1.3-0.8,2.2-2.2,2.2-3.8c0-1.9-1.2-3.6-3-4.2
		C50.2,7.7,51.1,6.3,51.1,4.7z M46.7,8.2C46.6,8.2,46.6,8.2,46.7,8.2c-0.1,0-0.1,0-0.2,0h-5.2c-0.2,0-0.4,0.2-0.4,0.4
		c0,0.2,0.2,0.4,0.4,0.4h5.2c0,0,0.1,0,0.1,0c0,0,0.1,0,0.1,0c0.2,0,0.4,0,0.6,0c0.1,0,0.1,0,0.2,0c2,0,3.6,1.6,3.6,3.6
		c0,2-1.6,3.6-3.6,3.6h-6.1c-0.2,0-0.4,0.2-0.4,0.4s0.2,0.4,0.4,0.4h6.6c0.1,0,0.1,0,0.2,0c0,0,0.1,0,0.2,0c2,0,3.6,1.6,3.6,3.6
		s-1.6,3.6-3.6,3.6h-6.9c-0.2,0-0.4,0.2-0.4,0.4c0,0.2,0.2,0.4,0.4,0.4h6.9c2,0,3.6,1.6,3.6,3.6c0,2-1.6,3.6-3.6,3.6H32.4
		c0,0,0,0,0,0c0,0,0,0,0,0c0,0,0,0,0,0c0,0,0,0,0,0c0,0,0,0,0,0c0,0,0,0,0,0c0,0,0,0,0,0c0,0,0,0,0,0c0,0,0,0,0,0c0,0,0,0,0,0
		c0,0,0,0,0,0c0,0,0,0,0,0c0,0,0,0,0,0c0,0,0,0,0,0c0,0,0,0,0,0c0,0,0,0,0,0c0,0,0,0,0,0c0,0,0,0,0,0c0,0,0,0,0,0c0,0,0,0,0,0
		c0,0,0,0,0,0c0,0,0,0,0,0l3.6,13.9c0.3,1.5-0.3,3.1-1.7,3.9c-1.7,1-3.9,0.4-4.9-1.3c0,0,0,0,0,0c0,0,0,0,0,0L17.2,29.8
		c-2-3-3-6.5-3-10.1c0-10.2,8.3-18.6,18.6-18.6h13.9c0,0,0,0,0,0c2,0,3.6,1.6,3.6,3.6C50.2,6.6,48.6,8.2,46.7,8.2z"/>
</g>
</svg>
