<?xml version="1.0" encoding="utf-8"?>
<!-- Generator: Adobe Illustrator 24.1.1, SVG Export Plug-In . SVG Version: 6.00 Build 0)  -->
<svg version="1.1" id="Warstwa_1" xmlns="http://www.w3.org/2000/svg" xmlns:xlink="http://www.w3.org/1999/xlink" x="0px" y="0px"
	 viewBox="0 0 66 52" style="enable-background:new 0 0 66 52;" xml:space="preserve">
<style type="text/css">
	.st0{fill:#F45E20;stroke:#F45E20;stroke-width:0.7738;stroke-miterlimit:10;}
</style>
<g>
	<path class="st0" d="M36.4,5.7C36.4,5.7,36.4,5.7,36.4,5.7c0.4-1.9-0.4-3.8-2.1-4.8c-2.1-1.2-4.8-0.5-6,1.6c0,0,0,0,0,0L16.5,21.7
		c-2.1,3.1-3.1,6.8-3.1,10.6c0,10.7,8.7,19.4,19.4,19.4h13.9c2.4,0,4.4-2,4.4-4.4c0-1.6-0.9-3-2.2-3.8c1.7-0.6,3-2.2,3-4.2
		c0-1.6-0.9-3-2.2-3.8c1.7-0.6,3-2.2,3-4.2c0-1.8-1-3.3-2.5-4c1.5-0.7,2.5-2.2,2.5-4c0-2.4-2-4.4-4.4-4.4H32.9L36.4,5.7
		C36.4,5.7,36.4,5.7,36.4,5.7z M51.8,23.4c0,2-1.6,3.6-3.6,3.6h-6.9c-0.2,0-0.4,0.2-0.4,0.4c0,0.2,0.2,0.4,0.4,0.4h6.9
		c2,0,3.6,1.6,3.6,3.6c0,2-1.6,3.6-3.6,3.6c-0.1,0-0.1,0-0.2,0c0,0-0.1,0-0.2,0h-6.6c-0.2,0-0.4,0.2-0.4,0.4c0,0.2,0.2,0.4,0.4,0.4
		h6.1c2,0,3.6,1.6,3.6,3.6c0,2-1.6,3.6-3.6,3.6c-0.1,0-0.1,0-0.2,0c-0.2,0-0.4,0-0.6,0c0,0-0.1,0-0.1,0c0,0-0.1,0-0.1,0h-5.2
		c-0.2,0-0.4,0.2-0.4,0.4c0,0.2,0.2,0.4,0.4,0.4h5.2c0,0,0.1,0,0.1,0c0,0,0.1,0,0.1,0c2,0,3.6,1.6,3.6,3.6s-1.6,3.6-3.6,3.6H32.8
		c-10.2,0-18.6-8.3-18.6-18.6c0-3.6,1-7.1,3-10.1L29,2.9c0,0,0,0,0,0c0,0,0,0,0,0c1-1.7,3.2-2.3,4.9-1.3c1.4,0.8,2,2.3,1.7,3.9
		L32,19.3c0,0,0,0,0,0c0,0,0,0,0,0c0,0,0,0,0,0c0,0,0,0,0,0c0,0,0,0,0,0c0,0,0,0,0,0c0,0,0,0,0,0c0,0,0,0,0,0c0,0,0,0,0,0
		c0,0,0,0,0,0c0,0,0,0,0,0c0,0,0,0,0,0c0,0,0,0,0,0c0,0,0,0,0,0c0,0,0,0,0,0c0,0,0,0,0,0c0,0,0,0,0,0c0,0,0,0,0,0c0,0,0,0,0,0
		c0,0,0.1,0,0.1,0c0,0,0,0,0,0c0,0,0,0,0,0h15.9C50.2,19.9,51.8,21.4,51.8,23.4z"/>
</g>
</svg>
