<?xml version="1.0" encoding="utf-8"?>
<!-- Generator: Adobe Illustrator 24.1.1, SVG Export Plug-In . SVG Version: 6.00 Build 0)  -->
<svg version="1.1" id="Warstwa_1" xmlns="http://www.w3.org/2000/svg" xmlns:xlink="http://www.w3.org/1999/xlink" x="0px" y="0px"
	 viewBox="0 0 66 52" style="enable-background:new 0 0 66 52;" xml:space="preserve">
<style type="text/css">
	.st0{fill:#F45E20;stroke:#F45E20;stroke-width:0.7738;stroke-miterlimit:10;}
</style>
<path class="st0" d="M55,24.1l-5.7-0.3c-2.4-0.8-3.4-1.9-5.2-3.6c-1.3-1.4-3.2-3.2-6.3-5.6c-0.3-0.2-0.5-0.4-0.9-0.6l3.7-4.7
	c0.6-0.7,0.8-1.6,0.7-2.5c-0.1-0.9-0.6-1.7-1.3-2.2c-1.5-1.1-3.6-0.9-4.7,0.6l-5.5,7.1c-2.4,0.2-5.4,2.2-8,4.3
	C18.2,19.4,9.2,27.7,8,29.9c-1,1.4-1.3,2.7-1.1,3.8c0.2,0.9,0.8,1.7,1.7,2.3c0.7,0.5,1.4,0.7,2.1,0.7l-0.4,0.5
	c-0.1,0.2-0.2,0.3-0.3,0.5c0,0,0,0,0,0l-3.9,9.5c-0.2,0.3,0,0.6,0.1,0.7c0.1,0.1,0.2,0.1,0.3,0.1c0.1,0,0.3,0,0.4-0.2l8.1-6
	c0.4,0.3,0.9,0.5,1.5,0.7c0.4,1.9,2,3.3,4.1,3.3c1.6,0,3-0.9,3.7-2.3c0.7,1.4,2.1,2.3,3.6,2.3c0,0,0,0,0.1,0c1.6,0,3-0.9,3.7-2.2
	c0.1,0,0.1,0,0.2,0.1c1.4,0.7,4.1,1.4,8,1.4c2.2,0,4.9-0.3,7.7-0.9c1.7-0.4,7.7-0.6,7.8-0.6c1.6,0,3.1-1.1,3.6-2.6
	c0-0.1,0-0.1,0.1-0.2c1.9-6.6,1-11.9-0.4-14.6C57.8,25,56.5,24.2,55,24.1z M39.4,5.2c0.5,0.4,0.9,1,0.9,1.7c0.1,0.7-0.1,1.3-0.5,1.9
	l-0.4,0.5l-4-3.1l0.4-0.5C36.8,4.6,38.4,4.4,39.4,5.2z M35,6.3L35,6.3L35,6.3z M35,6.9l4,3.1L20.4,33.8l-1.1,0c-0.3,0-0.5,0-0.7,0
	c-0.2,0-0.3,0-0.5,0c0,0-0.1,0-0.1,0c-3.4,0-4.7,2.6-4.7,5c0,0.1,0,0.2,0,0.3l-2-1.5L35,6.9z M8.7,43.1l1.6,1.3l-3.1,2.3L8.7,43.1z
	 M11.1,43.8l-2-1.6l1.6-3.9l2.8,2.2c0.2,0.3,0.4,0.6,0.7,0.9L11.1,43.8z M21.4,33.9l3.6-4.6c3.2,0.9,4.5,3.7,4.9,4.9L21.4,33.9z
	 M9.1,35.4c-0.8-0.5-1.2-1.1-1.3-1.8c-0.2-0.9,0.2-2,1-3.2c0,0,0,0,0,0c1.1-2.1,10-10.4,13.5-13.1c2.2-1.8,4.7-3.5,6.7-4L11.5,35.8
	C10.7,36,9.9,35.9,9.1,35.4z M10.5,37.7L10.5,37.7L10.5,37.7z M20.5,45.2c-1.5,0-2.7-0.9-3.1-2.2c0.2,0,0.3,0.1,0.5,0.1
	c0,0,0.1,0,0.1,0l0,0c0,0,0.1,0,0.1,0c0,0,0,0,0.1,0c0,0,0,0,0,0c0,0,0.1,0,0.1,0l5.2,0.2C23,44.4,21.8,45.2,20.5,45.2z M27.9,45.2
	C27.9,45.2,27.9,45.2,27.9,45.2c-1.3,0-2.4-0.7-2.9-1.8l5.7,0.2c0,0,0,0,0,0C30.2,44.6,29.1,45.2,27.9,45.2z M58.1,40.8
	c0,0,0,0.1,0,0.1c-0.4,1.2-1.5,2-2.8,2c-0.3,0-6.2,0.2-7.9,0.6c-7.6,1.8-13.2,0.5-15.1-0.4c-0.4-0.2-0.9-0.3-1.4-0.4L19,42.3l-0.2,0
	l-0.7,0c-2.6-0.4-4.2-1.6-4.1-3.3c0-1,0.4-4.2,3.9-4.2c0,0,0,0,0.1,0c0.2,0,0.4,0,0.6,0c0.2,0,0.4,0,0.7,0L29.8,35l0.6,0
	c0,0,0,0,0,0c0,0,0,0,0,0c0,0,0,0,0.1,0c0,0,0,0,0,0c0,0,0,0,0,0c0.2-0.1,0.3-0.2,0.3-0.4c0-0.5-1.2-4.7-5.3-6.1l10.8-13.9
	c0.3,0.2,0.6,0.4,0.9,0.5c3.1,2.4,4.9,4.1,6.3,5.6c1.8,1.8,3,3,5.6,3.8c0,0,0.1,0,0.1,0l5.7,0.3c1.2,0.1,2.3,0.7,2.8,1.8
	C59.1,29.4,59.9,34.4,58.1,40.8z"/>
</svg>
