<?xml version="1.0" encoding="utf-8"?>
<!-- Generator: Adobe Illustrator 24.1.1, SVG Export Plug-In . SVG Version: 6.00 Build 0)  -->
<svg version="1.1" id="Warstwa_1" xmlns="http://www.w3.org/2000/svg" xmlns:xlink="http://www.w3.org/1999/xlink" x="0px" y="0px"
	 viewBox="0 0 50 50" style="enable-background:new 0 0 50 50;" xml:space="preserve">
<style type="text/css">
	.st0{fill:#F45E20;}
</style>
<path class="st0" d="M25,50C11.2,50,0,38.8,0,25C0,11.2,11.2,0,25,0c13.8,0,25,11.2,25,25C50,38.8,38.8,50,25,50z M25,2
	C12.3,2,2,12.3,2,25s10.3,23,23,23s23-10.3,23-23S37.7,2,25,2z M25,43.2c-3.1,0-5.6-2.5-5.6-5.6V35l-0.3-0.2
	c-2.5-1.3-4.5-3.4-5.8-5.9c-0.2-0.3-0.2-0.6,0-0.9c0.2-0.3,0.6-0.5,0.9-0.5c0.3,0,0.6,0.1,0.8,0.6c1.9,3.8,5.7,6.2,9.9,6.2
	c4.3,0,8.1-2.4,9.9-6.2c0.2-0.5,0.6-0.6,0.8-0.6c0.4,0,0.7,0.2,0.9,0.5c0.2,0.3,0.2,0.6,0,0.9c-1.2,2.5-3.3,4.6-5.8,5.9L30.6,35v2.7
	C30.6,40.7,28.1,43.2,25,43.2z M18.5,19.7c-1.2,0-2.3-1-2.3-2.3c0-1.2,1-2.3,2.3-2.3s2.3,1,2.3,2.3C20.8,18.7,19.8,19.7,18.5,19.7z
	 M28.3,18.4c-0.7,0-1-0.5-1-1c0-0.3,0.1-0.5,0.2-0.7c0.2-0.2,0.4-0.3,0.7-0.3h6c0.7,0,1,0.5,1,1s-0.3,1-1,1H28.3z"/>
</svg>
