<?xml version="1.0" encoding="utf-8"?>
<!-- Generator: Adobe Illustrator 24.1.1, SVG Export Plug-In . SVG Version: 6.00 Build 0)  -->
<svg version="1.1" id="Warstwa_1" xmlns="http://www.w3.org/2000/svg" xmlns:xlink="http://www.w3.org/1999/xlink" x="0px" y="0px"
	 viewBox="0 0 50 50" style="enable-background:new 0 0 50 50;" xml:space="preserve">
<style type="text/css">
	.st0{fill:#F45E20;}
</style>
<g>
	<path class="st0" d="M25,50C11.2,50,0,38.8,0,25S11.2,0,25,0s25,11.2,25,25S38.8,50,25,50z M25,2C12.3,2,2,12.3,2,25s10.3,23,23,23
		s23-10.3,23-23S37.7,2,25,2z M25,37.8c-5,0-9.5-2.8-11.7-7.3c-0.2-0.3-0.2-0.6,0-0.9c0.2-0.3,0.6-0.5,0.9-0.5
		c0.3,0,0.6,0.1,0.8,0.6c1.9,3.8,5.7,6.2,9.9,6.2s8.1-2.4,9.9-6.2c0.2-0.5,0.6-0.6,0.8-0.6c0.4,0,0.7,0.2,0.9,0.5
		c0.2,0.3,0.2,0.6,0,0.9C34.5,35,30,37.8,25,37.8z M18.5,19.7c-1.2,0-2.3-1-2.3-2.3s1-2.3,2.3-2.3c1.2,0,2.3,1,2.3,2.3
		S19.8,19.7,18.5,19.7z M28.3,18.4c-0.7,0-1-0.5-1-1c0-0.3,0.1-0.5,0.2-0.7c0.2-0.2,0.4-0.3,0.7-0.3h6c0.7,0,1,0.5,1,1
		c0,0.5-0.3,1-1,1H28.3z"/>
</g>
</svg>
