<?xml version="1.0" encoding="utf-8"?>
<!-- Generator: Adobe Illustrator 24.1.1, SVG Export Plug-In . SVG Version: 6.00 Build 0)  -->
<svg version="1.1" id="Warstwa_1" xmlns="http://www.w3.org/2000/svg" xmlns:xlink="http://www.w3.org/1999/xlink" x="0px" y="0px"
	 viewBox="0 0 66 52" style="enable-background:new 0 0 66 52;" xml:space="preserve">
<style type="text/css">
	.st0{fill:#F45E20;stroke:#F45E20;stroke-width:0.7738;stroke-miterlimit:10;}
</style>
<path class="st0" d="M51.9,21.6c-1.9-0.9-4.2-0.1-5.1,1.8l-3.4,7.3V26l2.4-16.4v0c0,0,0,0,0,0l0,0c0,0,0,0,0,0c0.2-1-0.1-2-0.6-2.8
	c-0.6-0.8-1.5-1.4-2.5-1.6c-1.4-0.2-2.7,0.3-3.5,1.2l0.2-1.3c0,0,0,0,0,0c0.1-1-0.1-2-0.8-2.8C38,1.6,37.1,1,36,0.9
	c-2-0.3-3.8,1-4.2,2.9c0,0,0,0.1,0,0.1l0,0.2c0,0,0,0,0,0c0,0,0,0,0,0L29.4,23L25.3,6.9c0,0,0-0.1,0-0.1c0,0,0,0,0-0.1l0-0.1
	c0,0,0-0.1,0-0.1c-0.7-1.9-2.7-2.9-4.6-2.3c-1,0.3-1.8,0.9-2.3,1.8c-0.5,0.9-0.6,1.9-0.3,2.9c0,0,0,0,0,0l0.4,1.6
	c-0.9-0.9-2.3-1.3-3.7-0.9c-1,0.3-1.8,0.9-2.3,1.8c-0.5,0.9-0.6,1.9-0.3,2.8c0,0,0,0,0,0l3.5,15.1v5.3c0,9.1,7.4,16.5,16.5,16.5
	c3.2,0,6.3-0.9,9-2.7c1.5-1,2.8-2.2,4-3.6c0,0,0,0,0,0c0,0,0,0,0,0c5.2-6.7,8.5-17.6,8.7-18.2c0.4-0.9,0.5-1.9,0.1-2.9
	C53.5,22.8,52.8,22,51.9,21.6z M53,26.3C53,26.3,53,26.3,53,26.3c-0.1,0.2-3.4,11.3-8.6,18.1c-1.1,1.3-2.3,2.5-3.8,3.4
	c-2.5,1.6-5.5,2.5-8.5,2.5c-8.6,0-15.7-7-15.7-15.6v-5.3c0,0,0,0,0,0c0,0,0,0,0-0.1c0,0,0,0,0,0c0,0,0,0,0,0l-3.5-15.2c0,0,0,0,0,0
	c-0.2-0.8-0.1-1.5,0.3-2.2c0.4-0.7,1-1.2,1.8-1.4c1.6-0.4,3.2,0.5,3.6,2l3.8,13.6c0.1,0.2,0.2,0.3,0.4,0.3c0,0,0.1,0,0.1,0
	c0.1,0,0.2-0.1,0.3-0.2c0.1-0.1,0.1-0.2,0.1-0.4L18.8,8.7c0,0,0,0,0,0c0,0,0,0,0,0C18.5,8,18.6,7.2,19,6.5c0.4-0.7,1-1.2,1.8-1.4
	c1.5-0.4,3.1,0.4,3.6,1.9l4.7,18.3c0,0.2,0.2,0.3,0.4,0.3c0,0,0.1,0,0.1,0c0.1,0,0.2-0.1,0.2-0.1c0.1-0.1,0.1-0.2,0.2-0.3l2.7-20.9
	c0.2-1.6,1.7-2.7,3.3-2.5c0.8,0.1,1.5,0.5,2,1.1c0.5,0.6,0.7,1.4,0.6,2.2c0,0,0,0,0,0l-2.7,20.9c0,0.2,0.1,0.4,0.4,0.5
	c0,0,0,0,0.1,0c0.2,0,0.4-0.1,0.4-0.4c0,0,0,0,0-0.1l2.5-17.6c0.3-1.6,1.8-2.7,3.4-2.4c0.8,0.1,1.5,0.6,1.9,1.2
	c0.4,0.6,0.6,1.4,0.5,2.2c0,0,0,0,0,0c0,0,0,0,0,0l-2.4,16.5c0,0,0,0,0,0c0,0,0,0,0,0v6.7c0,0,0,0,0,0c0,0,0,0,0,0c0,0,0,0,0,0
	c0,0,0,0,0,0c0,0,0,0,0,0c0,0,0,0,0,0c0,0,0,0,0,0c0,0,0,0,0,0c0,0,0,0,0,0c0,0,0,0,0,0c0,0,0,0,0,0c0,0,0,0,0,0l0,0c0,0,0,0,0,0
	c0,0,0,0,0,0c0,0,0,0,0,0c0,0,0,0,0,0c0,0,0,0,0.1,0c0,0,0,0,0,0c0,0,0,0,0,0c0,0,0,0,0.1,0c0,0,0,0,0,0c0,0,0,0,0.1,0c0,0,0,0,0,0
	c0,0,0,0,0,0c0,0,0,0,0,0c0,0,0,0,0,0c0,0,0,0,0,0c0,0,0,0,0,0c0,0,0,0,0,0c0,0,0,0,0,0c0,0,0,0,0,0l4.2-9.1
	c0.7-1.5,2.4-2.1,3.9-1.4c0.7,0.3,1.3,0.9,1.5,1.7C53.3,24.8,53.3,25.6,53,26.3z"/>
</svg>
