<?xml version="1.0" encoding="utf-8"?>
<!-- Generator: Adobe Illustrator 24.1.1, SVG Export Plug-In . SVG Version: 6.00 Build 0)  -->
<svg version="1.1" id="Warstwa_1" xmlns="http://www.w3.org/2000/svg" xmlns:xlink="http://www.w3.org/1999/xlink" x="0px" y="0px"
	 viewBox="0 0 66 52" style="enable-background:new 0 0 66 52;" xml:space="preserve">
<style type="text/css">
	.st0{fill:#F45E20;stroke:#F45E20;stroke-width:0.7738;stroke-miterlimit:10;}
</style>
<g>
	<path class="st0" d="M15.7,39.3c0.6,0.7,1.5,1.1,2.4,1.1c0,0,0,0,0,0c0.7,0,1.4-0.2,2-0.7c0,0.2,0,0.4,0,0.7c0.1,0.8,0.4,1.6,1,2.2
		c0.6,0.7,1.5,1.1,2.4,1.1c0,0,0,0,0,0c0.9,0,1.7-0.4,2.4-1l0.6-0.6c0,0.2,0,0.4,0,0.6c0.1,0.8,0.4,1.6,1,2.2
		c0.7,0.7,1.6,1.1,2.5,1.1c0.6,0,1.2-0.2,1.8-0.5c0,0,0,0,0.1,0l1.1-1.1l2.5,1.8c0.6,0.4,1.1,0.5,1.7,0.5c0.2,0,0.4,0,0.6-0.1
		c1.3-0.3,2-1.4,2.2-1.7c0.5-0.8,0.6-1.4,0.5-2.3c0-0.2-0.1-0.5-0.1-0.7l0.8,0.6c0.8,0.6,1.7,0.8,2.7,0.6c1-0.2,1.8-0.8,2.4-1.7
		c0.5-0.8,0.7-1.7,0.6-2.7c0-0.3-0.1-0.5-0.1-0.8c0.7,0.4,1.5,0.5,2.2,0.4c1-0.2,1.8-0.8,2.4-1.7c0.8-1.3,0.8-2.9,0.2-4.1
		c0.3,0,0.7,0,1,0c1-0.2,1.8-0.8,2.4-1.7c1.1-1.8,0.7-4.1-0.8-5.4c2.4-6.6,0.8-11-0.9-13.6c-2.9-4.2-8.2-6.1-12.2-6.1c0,0,0,0,0,0
		c0,0,0,0-0.1,0c-3.2,0.1-5.5,0.5-7.9,1.4c-0.9-0.3-2-0.6-3.4-0.9c-5.9-1.3-11.9,1.1-15.4,6.1L14,12.5c-3.3,4.8-3.4,10.9-0.8,15.8
		l-1.7,1.6c-1.3,1.4-1.3,3.6,0,5c0.6,0.7,1.5,1.1,2.4,1.1c0,0,0,0,0,0c0.3,0,0.6,0,0.9-0.1C14.5,36.9,14.8,38.3,15.7,39.3z
		 M14.9,12.7c2.7-3.9,7-6.1,11.5-6.1c1,0,2,0.1,3,0.3c0.9,0.2,1.6,0.4,2.3,0.6c-0.4,0.2-0.8,0.4-1.2,0.6l-9.4,5.4c0,0,0,0,0,0
		c-1.9,1.3-2.4,4-1.1,6c0.6,0.9,1.6,1.6,2.7,1.8c1.1,0.2,2.2,0,3.2-0.7L36.8,14L51,23.9c0.1,0.1,0.2,0.2,0.3,0.3c0,0,0,0,0,0
		l2.1,1.5c1.3,1,1.6,2.9,0.7,4.4c-0.4,0.7-1.1,1.2-1.8,1.3c-0.7,0.1-1.4,0-2-0.5c0,0,0,0,0,0c0,0,0,0,0,0l-5.8-4.1
		c-0.2-0.1-0.5-0.1-0.6,0.1c-0.1,0.2-0.1,0.5,0.1,0.6l5.8,4.1c1.3,1,1.6,2.9,0.7,4.4c-0.4,0.7-1.1,1.2-1.8,1.3c-0.7,0.1-1.4,0-2-0.5
		l-1.5-1.1c0,0,0,0,0,0l-4.5-3.3c-0.2-0.1-0.5-0.1-0.6,0.1c-0.1,0.2-0.1,0.5,0.1,0.6l4.5,3.3c0,0,0,0,0,0c0.7,0.5,1.1,1.3,1.2,2.2
		c0.1,0.7-0.1,1.5-0.5,2.1c-0.4,0.7-1.1,1.2-1.8,1.3c-0.7,0.1-1.4,0-2-0.5l-2.7-2l-1-0.9c-0.2-0.2-0.5-0.1-0.6,0
		c-0.2,0.2-0.1,0.5,0,0.6l1,0.9c0,0,0,0,0,0c0,0,0,0,0,0l0,0v0c0.7,0.5,1.1,1.3,1.2,2.2c0.1,0.7,0,1.2-0.4,1.8
		c-0.3,0.5-0.9,1.1-1.7,1.3c-0.5,0.1-1.1,0-1.6-0.3l-2.4-1.7l1-0.9c1.3-1.4,1.3-3.6,0-5c-0.6-0.7-1.5-1.1-2.4-1.1
		c-0.1,0-0.2,0-0.3,0c0.9-1.4,0.8-3.3-0.4-4.5C30.9,31.4,30,31,29.1,31c-0.7,0-1.4,0.2-2,0.7c0-0.2,0-0.4,0-0.7
		c-0.1-0.8-0.4-1.6-1-2.2c-0.6-0.7-1.5-1.1-2.4-1.1c-0.9,0-1.8,0.3-2.4,1l-0.6,0.6c0-0.2,0-0.4,0-0.6c-0.1-0.8-0.4-1.6-1-2.2
		c-1.1-1.2-2.9-1.4-4.3-0.5c0,0,0,0-0.1,0l-1.6,1.5c-2.3-4.5-2.2-10.2,0.9-14.7L14.9,12.7z M40.9,6.3C40.9,6.3,40.9,6.3,40.9,6.3
		c3.8,0,8.7,1.8,11.5,5.8c2.3,3.4,2.7,7.6,1,12.5L37.1,13.1c-0.1-0.1-0.2-0.1-0.2-0.1c-0.1,0-0.2,0-0.2,0.1l-11.2,6.7c0,0,0,0,0,0
		c-0.7,0.5-1.6,0.7-2.5,0.6c-0.9-0.2-1.7-0.7-2.2-1.4c-1.1-1.6-0.7-3.7,0.8-4.8l9.4-5.4C34,7.1,36.7,6.4,40.9,6.3
		C40.8,6.3,40.9,6.3,40.9,6.3L40.9,6.3z M28.1,44.2c-0.4-0.4-0.7-1-0.7-1.7c-0.1-0.8,0.2-1.6,0.7-2.2l0,0l2.3-2.2c0,0,0,0,0,0
		c0.5-0.5,1.1-0.8,1.8-0.8c0,0,0,0,0,0c0.7,0,1.3,0.3,1.8,0.8c1,1.1,1,2.8,0,3.8l-2.7,2.5C30.2,45.2,28.9,45.1,28.1,44.2z
		 M23.5,42.7c-0.7,0-1.3-0.3-1.8-0.8c-0.4-0.4-0.7-1-0.7-1.7c-0.1-0.8,0.2-1.6,0.8-2.2l4.4-4.2c0,0,0,0,0,0l1.2-1.2
		c0.5-0.5,1.1-0.8,1.8-0.8c0,0,0,0,0,0c0.7,0,1.3,0.3,1.8,0.8c1,1.1,1,2.8,0,3.8l-3.4,3.2L25.3,42C24.8,42.5,24.2,42.8,23.5,42.7z
		 M19.9,38.7c-0.5,0.5-1.1,0.8-1.8,0.8c-0.7,0-1.3-0.3-1.8-0.8c-1-1.1-1-2.8,0-3.8l3.4-3.2c0,0,0,0,0,0l2.2-2.2
		c0.5-0.5,1.1-0.8,1.8-0.8c0,0,0,0,0,0c0.7,0,1.3,0.3,1.8,0.8c0.4,0.4,0.7,1,0.7,1.7c0.1,0.8-0.2,1.6-0.8,2.2l-4.4,4.3L19.9,38.7z
		 M16,26.8c1-0.6,2.3-0.5,3.1,0.4c0.4,0.4,0.7,1,0.7,1.7c0.1,0.8-0.2,1.6-0.8,2.2l-2.5,2.4l-0.8,0.8c0,0,0,0,0,0l0,0
		c-0.5,0.5-1.1,0.8-1.8,0.8c-0.7,0-1.3-0.3-1.8-0.8c-1-1.1-1-2.8,0-3.8L16,26.8z"/>
</g>
</svg>
