<?xml version="1.0" encoding="utf-8"?>
<!-- Generator: Adobe Illustrator 24.1.1, SVG Export Plug-In . SVG Version: 6.00 Build 0)  -->
<svg version="1.1" id="Warstwa_1" xmlns="http://www.w3.org/2000/svg" xmlns:xlink="http://www.w3.org/1999/xlink" x="0px" y="0px"
	 viewBox="0 0 66 52" style="enable-background:new 0 0 66 52;" xml:space="preserve">
<style type="text/css">
	.st0{fill:#F45E20;stroke:#F45E20;stroke-width:0.7738;stroke-miterlimit:10;}
</style>
<path class="st0" d="M24.4,21.9c-0.7-0.9-1.8-1.5-3.1-1.5c-2.2,0-3.9,1.8-3.9,3.9v10.4c0,9.4,7.6,17,17.1,17c4.9,0,14-3.1,14-10.6
	V35c0-1.4-0.2-3-1.7-4l-0.7-0.5v-4.8l1.2-17.5c0,0,0,0,0,0c0.1-1-0.2-2-0.9-2.8c-0.7-0.8-1.6-1.3-2.7-1.4c-2.2-0.2-4.1,1.4-4.2,3.6
	c0,0,0,0,0,0c0,0,0,0,0,0l-1,12.5L36,3.5c0,0,0,0,0,0c0,0,0,0,0,0c-0.4-2.1-2.4-3.5-4.5-3.2c-1,0.2-1.9,0.8-2.5,1.6
	c-0.5,0.8-0.8,1.7-0.7,2.6c0,0,0,0.1,0,0.1l0,0.2c0,0,0,0,0,0c0,0,0,0,0,0l2.5,14.3c-0.7-0.5-1.5-0.9-2.5-0.9
	C26.3,18.3,24.6,19.9,24.4,21.9z M21.4,21.3c1.7,0,3.1,1.4,3.1,3.1v5.6c0,1.7-1.4,3.1-3.1,3.1c-1.7,0-3.1-1.4-3.1-3.1v-5.6
	C18.3,22.6,19.7,21.3,21.4,21.3z M47.7,35v6.2c0,6.9-8.6,9.7-13.2,9.7c-8.9,0-16.2-7.3-16.2-16.2v-2.4c0.7,0.9,1.8,1.5,3.1,1.5
	c1.5,0,2.8-0.9,3.5-2.1c0.6,1.3,2,2.1,3.5,2.1c2,0,3.7-1.6,3.9-3.6l5.3,3.7c0.4,0.3,0.6,0.6,0.6,1.1c0,0.4-0.2,0.8-0.6,1.1
	c-3.1,2.1-4.9,5.4-4.9,8.9c0,0.2,0.2,0.4,0.4,0.4c0.2,0,0.4-0.2,0.4-0.4c0-3.1,1.7-6.3,4.5-8.1c0.6-0.4,0.9-1.1,1-1.8
	c0-0.7-0.3-1.4-0.9-1.8l-6.2-4.4c-0.7-0.5-1.1-1.2-1.3-2c-0.1-0.8,0-1.6,0.5-2.3c1-1.4,2.9-1.7,4.3-0.7l11.1,7.8
	C47.3,32.3,47.7,33.3,47.7,35z M29.6,2.4c0.5-0.7,1.2-1.1,2-1.3c1.7-0.3,3.3,0.8,3.5,2.5c0,0,0,0,0,0l3.2,20.1c0,0,0,0,0,0
	c0,0,0,0.1,0,0.1c0,0,0,0,0,0c0,0,0.1,0.1,0.1,0.1c0,0,0,0,0,0c0,0,0.1,0,0.1,0.1c0,0,0,0,0,0c0,0,0.1,0,0.1,0c0,0,0,0,0,0
	c0,0,0,0,0,0s0,0,0,0c0,0,0,0,0,0c0,0,0,0,0,0c0,0,0,0,0.1,0c0,0,0.1,0,0.1,0c0,0,0,0,0,0c0,0,0.1,0,0.1-0.1c0,0,0,0,0,0
	c0,0,0.1-0.1,0.1-0.1c0,0,0,0,0,0c0,0,0-0.1,0-0.1c0,0,0,0,0,0l1.3-16c0,0,0,0,0,0c0.1-1.7,1.6-2.9,3.3-2.8c0.8,0.1,1.6,0.5,2.1,1.1
	c0.5,0.6,0.8,1.4,0.7,2.2c0,0,0,0,0,0c0,0,0,0,0,0l-1.2,17.5c0,0,0,0,0,0c0,0,0,0,0,0v4.2l-9.5-6.7c-1.1-0.8-2.4-0.9-3.6-0.5v-0.5
	c0-0.5-0.1-1.1-0.3-1.5l-2.8-16C29,3.9,29.2,3.1,29.6,2.4z M31.4,22.2v0.9c-0.4,0.3-0.7,0.6-1,1c-0.6,0.9-0.8,1.9-0.7,2.9
	c0.2,1,0.7,1.9,1.6,2.5l0.1,0.1v0.2c0,1.7-1.4,3.1-3.1,3.1c-1.7,0-3.1-1.4-3.1-3.1v-7.7c0-1.7,1.4-3.1,3.1-3.1
	C30,19.2,31.4,20.5,31.4,22.2z"/>
</svg>
