<?xml version="1.0" encoding="utf-8"?>
<!-- Generator: Adobe Illustrator 24.1.1, SVG Export Plug-In . SVG Version: 6.00 Build 0)  -->
<svg version="1.1" id="Warstwa_1" xmlns="http://www.w3.org/2000/svg" xmlns:xlink="http://www.w3.org/1999/xlink" x="0px" y="0px"
	 viewBox="0 0 50 50" style="enable-background:new 0 0 50 50;" xml:space="preserve">
<style type="text/css">
	.st0{fill:#F45E20;}
</style>
<path class="st0" d="M25,50C11.2,50,0,38.8,0,25C0,11.2,11.2,0,25,0c13.8,0,25,11.2,25,25C50,38.8,38.8,50,25,50z M25,2
	C12.3,2,2,12.3,2,25s10.3,23,23,23s23-10.3,23-23S37.7,2,25,2z M25,37.8c-5,0-9.5-2.8-11.7-7.3c-0.2-0.3-0.2-0.6,0-0.9
	c0.2-0.3,0.6-0.5,0.9-0.5c0.3,0,0.6,0.1,0.8,0.6c1.9,3.8,5.7,6.2,9.9,6.2s8.1-2.4,9.9-6.2c0.2-0.5,0.6-0.6,0.8-0.6
	c0.4,0,0.7,0.2,0.9,0.5c0.2,0.3,0.2,0.6,0,0.9C34.5,35,30,37.8,25,37.8z M36.6,20.2c-0.2,0-0.5-0.1-0.7-0.3l-3.6-3.6l-3.6,3.6
	c-0.2,0.2-0.4,0.3-0.7,0.3c-0.4,0-0.8-0.3-1-0.7c-0.1-0.3-0.1-0.6,0.2-1c0.8-0.8,1.5-1.5,2.1-2.1c1.4-1.5,2.3-2.4,2.9-2.4
	c0.6,0,1.4,0.9,2.9,2.4c0.6,0.6,1.3,1.3,2.1,2.1c0.4,0.4,0.3,0.8,0.2,1C37.4,20,37,20.2,36.6,20.2z M21.8,20.2
	c-0.2,0-0.5-0.1-0.7-0.3l-3.6-3.6L14,19.9c-0.2,0.2-0.4,0.3-0.7,0.3c-0.4,0-0.8-0.3-1-0.7c-0.1-0.3-0.1-0.6,0.2-1
	c0.8-0.8,1.5-1.5,2.1-2.1c1.4-1.5,2.3-2.4,2.9-2.4c0.6,0,1.4,0.9,2.9,2.4c0.6,0.6,1.3,1.3,2.1,2.1c0.4,0.4,0.3,0.8,0.2,1
	C22.6,20,22.2,20.2,21.8,20.2z"/>
</svg>
