<?xml version="1.0" encoding="utf-8"?>
<!-- Generator: Adobe Illustrator 24.1.1, SVG Export Plug-In . SVG Version: 6.00 Build 0)  -->
<svg version="1.1" id="Warstwa_1" xmlns="http://www.w3.org/2000/svg" xmlns:xlink="http://www.w3.org/1999/xlink" x="0px" y="0px"
	 viewBox="0 0 66 52" style="enable-background:new 0 0 66 52;" xml:space="preserve">
<style type="text/css">
	.st0{fill:#F45E20;stroke:#F45E20;stroke-width:0.7738;stroke-miterlimit:10;}
</style>
<path class="st0" d="M54.6,16.5l-24.8-0.1l8.4-3.9c1-0.5,1.8-1.3,2.2-2.4c0.4-1,0.3-2.2-0.1-3.2c-1-2.1-3.4-3-5.5-2
	c-0.7,0.2-12.9,3.9-20.4,9.6c0,0,0,0,0,0c0,0,0,0,0,0c-1.6,1.2-2.9,2.7-4,4.4c-1.9,3-3,6.4-3,10c0,4.9,1.9,9.5,5.3,13
	c3.5,3.5,8.1,5.4,12.9,5.4l11.2,0l0,0c0,0,0,0,0,0c0,0,0,0,0,0c0,0,0,0,0,0c1.1,0,2.2-0.4,3-1.2c0.8-0.8,1.2-1.8,1.2-3
	c0-1.1-0.4-2.2-1.2-3c-0.2-0.2-0.5-0.4-0.8-0.6c1.6-0.6,2.8-2.1,2.8-3.9c0-1.1-0.4-2.2-1.2-3c-0.2-0.2-0.5-0.4-0.8-0.6
	c1.6-0.6,2.8-2.1,2.8-3.9c0-1.1-0.4-2.2-1.2-3c-0.1-0.1-0.3-0.3-0.4-0.4l13.7,0c0,0,0,0,0,0c0,0,0,0,0,0c2.3,0,4.2-1.9,4.2-4.2
	c0-1.1-0.4-2.2-1.2-3C56.7,17,55.7,16.5,54.6,16.5z M54.5,24C54.5,24,54.5,24,54.5,24l-18.1,0c0,0,0,0,0,0c-0.2,0-0.4,0.2-0.4,0.4
	c0,0.2,0.2,0.4,0.4,0.4l1.9,0c0,0,0,0,0,0c0.9,0,1.7,0.3,2.4,1c0.6,0.6,1,1.5,1,2.4c0,1.8-1.5,3.3-3.3,3.3c0,0,0,0,0,0l-1.9,0
	c0,0,0,0,0,0c-0.2,0-0.4,0.2-0.4,0.4c0,0.2,0.2,0.4,0.4,0.4l1.1,0l0,0c0.9,0,1.7,0.3,2.4,1c0.6,0.6,1,1.5,1,2.4
	c0,1.8-1.5,3.3-3.3,3.3c0,0,0,0,0,0l-0.8,0h0c0,0,0,0,0,0l-0.4,0c0,0,0,0,0,0c-0.2,0-0.4,0.2-0.4,0.4c0,0.2,0.2,0.4,0.4,0.4l0.4,0
	l0,0c0.9,0,1.7,0.3,2.4,1c0.6,0.6,1,1.5,1,2.4c0,0.9-0.3,1.7-1,2.3c-0.6,0.6-1.5,1-2.3,1c0,0,0,0,0,0l-11.2,0
	c-4.7,0-9.1-1.8-12.3-5.1C9.9,38,8.1,33.7,8.1,29c0-3.4,1-6.7,2.8-9.5c1-1.6,2.3-3,3.8-4.2c0,0,0,0,0,0c7.5-5.8,20-9.5,20.1-9.5
	c0,0,0,0,0.1,0c1.7-0.8,3.6,0,4.4,1.6c0.4,0.8,0.4,1.7,0.1,2.5c-0.3,0.8-0.9,1.5-1.7,1.9l-10.1,4.7c-0.1,0-0.2,0.1-0.2,0.2
	c-0.1,0.1-0.1,0.3,0,0.4c0.1,0.2,0.2,0.3,0.4,0.2l3.4,0c0,0,0,0,0,0l23.3,0.1c0.9,0,1.7,0.3,2.4,1c0.6,0.6,1,1.5,1,2.4
	C57.9,22.6,56.4,24,54.5,24z"/>
</svg>
