<?xml version="1.0" encoding="utf-8"?>
<!-- Generator: Adobe Illustrator 24.1.1, SVG Export Plug-In . SVG Version: 6.00 Build 0)  -->
<svg version="1.1" id="Warstwa_1" xmlns="http://www.w3.org/2000/svg" xmlns:xlink="http://www.w3.org/1999/xlink" x="0px" y="0px"
	 viewBox="0 0 66 52" style="enable-background:new 0 0 66 52;" xml:space="preserve">
<style type="text/css">
	.st0{fill:#F45E20;stroke:#F45E20;stroke-width:0.7738;stroke-miterlimit:10;}
</style>
<path class="st0" d="M51.7,14.7C51.7,14.7,51.7,14.7,51.7,14.7C51.7,14.7,51.7,14.7,51.7,14.7C44.3,8.9,32.1,5.2,31.4,5
	c-2.1-0.9-4.6,0-5.5,2c-0.5,1-0.5,2.1-0.1,3.2c0.4,1,1.2,1.9,2.2,2.4l8.4,3.9l-24.8,0.1c0,0,0,0,0,0c-2.3,0-4.2,1.9-4.2,4.2
	c0,2.3,1.9,4.2,4.2,4.2c0,0,0,0,0,0c0,0,0,0,0,0c0,0,0,0,0,0l0,0l13.7,0c-1,0.8-1.7,2-1.6,3.3c0,1.1,0.4,2.2,1.2,3
	c0.4,0.4,1,0.8,1.5,1c-1.2,0.7-2,2.1-2,3.6c0,1.1,0.4,2.2,1.2,3c0.4,0.4,1,0.8,1.5,1c-0.3,0.2-0.6,0.4-0.8,0.6
	c-0.8,0.8-1.2,1.8-1.2,3c0,2.3,1.9,4.2,4.2,4.2c0,0,0,0,0,0c0,0,0,0,0,0l11.2,0c4.9,0,9.5-1.9,12.9-5.4c3.5-3.5,5.4-8.1,5.3-13
	c0-3.6-1-7-3-10C54.7,17.4,53.3,15.9,51.7,14.7z M52.8,41.4c-3.3,3.3-7.7,5.1-12.3,5.1l-11.2,0c0,0,0,0,0,0c-1.8,0-3.3-1.5-3.3-3.3
	c0-0.9,0.3-1.7,1-2.4c0.6-0.6,1.5-1,2.4-1c0,0,0,0,0,0l0.4,0c0.2,0,0.4-0.2,0.4-0.4c0-0.2-0.2-0.4-0.4-0.4c0,0,0,0,0,0l-1.1,0
	c0,0,0,0,0,0c-0.9,0-1.7-0.3-2.3-1c-0.6-0.6-1-1.5-1-2.3c0-1.8,1.5-3.3,3.3-3.3l1.1,0c0.2,0,0.4-0.2,0.4-0.4c0-0.2-0.2-0.4-0.4-0.4
	c0,0,0,0,0,0l-1.1,0c0,0,0,0,0,0c0,0,0,0,0,0c0,0,0,0,0,0l-0.7,0c0,0,0,0,0,0c-0.9,0-1.7-0.3-2.3-1c-0.6-0.6-1-1.5-1-2.3
	c0-1.8,1.5-3.3,3.3-3.3l1.9,0c0.2,0,0.4-0.2,0.4-0.4c0-0.2-0.2-0.4-0.4-0.4c0,0,0,0,0,0l-1.9,0c0,0,0,0,0,0c0,0,0,0,0,0c0,0,0,0,0,0
	l-16.2,0c0,0,0,0,0,0c-1.8,0-3.3-1.5-3.3-3.3c0-1.8,1.5-3.3,3.3-3.3l0,0l23.3-0.1c0,0,0,0,0,0l3.4,0c0.2,0,0.3-0.1,0.4-0.2
	c0.1-0.1,0.1-0.3,0-0.4c0-0.1-0.1-0.1-0.2-0.2l-10.1-4.7c-0.8-0.4-1.4-1-1.7-1.9c-0.3-0.8-0.3-1.7,0.1-2.5C27.4,5.7,29.4,5,31,5.8
	c0,0,0,0,0.1,0c0.1,0,12.6,3.7,20.1,9.5c0,0,0,0,0,0c1.5,1.2,2.8,2.6,3.8,4.2c1.9,2.8,2.8,6.1,2.8,9.5C57.9,33.7,56.1,38,52.8,41.4z
	"/>
</svg>
