<?xml version="1.0" encoding="utf-8"?>
<!-- Generator: Adobe Illustrator 24.1.1, SVG Export Plug-In . SVG Version: 6.00 Build 0)  -->
<svg version="1.1" id="Warstwa_1" xmlns="http://www.w3.org/2000/svg" xmlns:xlink="http://www.w3.org/1999/xlink" x="0px" y="0px"
	 viewBox="0 0 66 52" style="enable-background:new 0 0 66 52;" xml:space="preserve">
<style type="text/css">
	.st0{fill:#F45E20;stroke:#F45E20;stroke-width:0.7738;stroke-miterlimit:10;}
</style>
<path class="st0" d="M26.1,48.8c3,1.9,6.4,3,10,3c0,0,0,0,0,0c10.1,0,18.3-8.2,18.3-18.3l0-11.2c0-1.1-0.4-2.2-1.2-3
	c-0.8-0.8-1.8-1.2-3-1.2c0,0,0,0,0,0c-1.5,0-2.8,0.8-3.6,2c-0.2-0.6-0.5-1.1-1-1.5c-0.8-0.8-1.8-1.2-3-1.2c0,0,0,0,0,0
	c-1.5,0-2.8,0.8-3.6,2c-0.2-0.6-0.5-1.1-1-1.5c-0.8-0.8-1.8-1.2-3-1.2c0,0,0,0,0,0c-1.4,0-2.6,0.7-3.3,1.7l0-13.7
	c0-1.1-0.4-2.2-1.2-3c-0.8-0.8-1.8-1.2-3-1.2c0,0,0,0,0,0c-2.3,0-4.2,1.9-4.2,4.2l0,24.8l-3.9-8.4c-0.5-1-1.3-1.8-2.4-2.2
	c-1.1-0.4-2.2-0.3-3.2,0.1c-2.1,1-3,3.4-2,5.5c0.2,0.7,3.9,12.9,9.7,20.3c0,0,0,0,0,0c0,0,0,0,0,0C22.9,46.3,24.4,47.7,26.1,48.8z
	 M12.8,24.1c-0.8-1.7-0.1-3.6,1.6-4.4c0.8-0.4,1.7-0.4,2.5-0.1c0.8,0.3,1.5,0.9,1.9,1.7l4.7,10.1c0,0.1,0.1,0.2,0.2,0.2
	c0.1,0.1,0.3,0.1,0.4,0c0.2-0.1,0.2-0.2,0.2-0.4l0-3.4c0,0,0,0,0,0l0-23.3c0-1.8,1.5-3.3,3.3-3.3c0,0,0,0,0,0c0.9,0,1.7,0.3,2.4,1
	c0.6,0.6,1,1.5,1,2.4l0,16.2c0,0,0,0,0,0c0,0,0,0,0,0l0,1.9c0,0.2,0.2,0.4,0.4,0.4c0.2,0,0.4-0.2,0.4-0.4l0-1.9
	c0-1.8,1.5-3.3,3.3-3.3c0,0,0,0,0,0c0.9,0,1.7,0.3,2.4,1c0.6,0.6,1,1.5,1,2.4l0,0.7c0,0,0,0,0,0c0,0,0,0,0,0l0,1.1
	c0,0.2,0.2,0.4,0.4,0.4c0.2,0,0.4-0.2,0.4-0.4l0-1.1c0-1.8,1.5-3.3,3.3-3.3c0,0,0,0,0,0c0.9,0,1.7,0.3,2.4,1c0.6,0.6,1,1.5,1,2.4
	v1.1c0,0.2,0.2,0.4,0.4,0.4c0.2,0,0.4-0.2,0.4-0.4v-0.4c0-1.8,1.5-3.3,3.3-3.3c0,0,0,0,0,0c0.9,0,1.7,0.3,2.4,1c0.6,0.6,1,1.5,1,2.4
	l0,11.2c0,9.6-7.8,17.5-17.5,17.5c0,0,0,0,0,0c-3.4,0-6.7-1-9.5-2.8c-1.6-1-3-2.3-4.2-3.8C16.6,36.7,12.8,24.3,12.8,24.1
	C12.8,24.1,12.8,24.1,12.8,24.1z"/>
</svg>
