<?xml version="1.0" encoding="utf-8"?>
<!-- Generator: Adobe Illustrator 24.1.1, SVG Export Plug-In . SVG Version: 6.00 Build 0)  -->
<svg version="1.1" id="Warstwa_1" xmlns="http://www.w3.org/2000/svg" xmlns:xlink="http://www.w3.org/1999/xlink" x="0px" y="0px"
	 viewBox="0 0 50 50" style="enable-background:new 0 0 50 50;" xml:space="preserve">
<style type="text/css">
	.st0{fill:#F45E20;}
</style>
<path class="st0" d="M25,50C11.2,50,0,38.8,0,25C0,11.2,11.2,0,25,0s25,11.2,25,25C50,38.8,38.8,50,25,50z M25,2C12.3,2,2,12.3,2,25
	s10.3,23,23,23s23-10.3,23-23S37.7,2,25,2z M14.2,35.7c-0.7,0-1-0.5-1-1s0.3-1,1-1h21.6c0.7,0,1,0.5,1,1s-0.3,1-1,1H14.2z
	 M32.7,22.7c-0.2,0-0.5-0.1-0.7-0.3c-0.8-0.8-1.5-1.5-2.1-2.1c-1.5-1.4-2.4-2.3-2.4-2.9s0.9-1.4,2.4-2.9c0.6-0.6,1.3-1.3,2.1-2.1
	c0.2-0.2,0.4-0.3,0.7-0.3c0.4,0,0.8,0.3,1,0.7c0.1,0.3,0.1,0.6-0.2,1l-3.6,3.6l3.6,3.6c0.4,0.4,0.3,0.8,0.2,1
	C33.5,22.4,33.1,22.7,32.7,22.7z M17.3,22.7c-0.4,0-0.8-0.3-1-0.7c-0.1-0.3-0.1-0.6,0.2-1l3.6-3.6l-3.6-3.6c-0.4-0.4-0.3-0.8-0.2-1
	c0.2-0.4,0.6-0.7,1-0.7c0.2,0,0.5,0.1,0.7,0.3c0.8,0.8,1.5,1.5,2.1,2.1c1.5,1.4,2.4,2.3,2.4,2.9s-0.9,1.4-2.4,2.9
	c-0.6,0.6-1.3,1.3-2.1,2.1C17.8,22.6,17.6,22.7,17.3,22.7z"/>
</svg>
