<?xml version="1.0" encoding="utf-8"?>
<!-- Generator: Adobe Illustrator 24.1.1, SVG Export Plug-In . SVG Version: 6.00 Build 0)  -->
<svg version="1.1" id="Warstwa_1" xmlns="http://www.w3.org/2000/svg" xmlns:xlink="http://www.w3.org/1999/xlink" x="0px" y="0px"
	 viewBox="0 0 50 50" style="enable-background:new 0 0 50 50;" xml:space="preserve">
<style type="text/css">
	.st0{fill:#F45E20;}
</style>
<path class="st0" d="M25,50C11.2,50,0,38.8,0,25C0,11.2,11.2,0,25,0c13.8,0,25,11.2,25,25C50,38.8,38.8,50,25,50z M25,2
	C12.3,2,2,12.3,2,25s10.3,23,23,23s23-10.3,23-23S37.7,2,25,2z M11.9,38.7c-0.2,0-0.5-0.2-0.5-0.5v-9.5c0-0.2,0.2-0.5,0.5-0.5h26.2
	c0.2,0,0.5,0.2,0.5,0.5v9.5c0,0.2-0.2,0.5-0.5,0.5H11.9z M32,37.8h5.6V34H32V37.8z M25.5,37.8h5.6V34h-5.6V37.8z M18.9,37.8h5.6V34
	h-5.6V37.8z M12.4,37.8H18V34h-5.6V37.8z M32,33.1h5.6v-3.8H32V33.1z M25.5,33.1h5.6v-3.8h-5.6V33.1z M18.9,33.1h5.6v-3.8h-5.6V33.1
	z M12.4,33.1H18v-3.8h-5.6V33.1z M37.8,22c-0.2,0-0.5-0.1-0.7-0.3c-0.6-0.6-1.2-1.1-1.6-1.6c-0.3-0.3-0.5-0.5-0.8-0.8l-0.4-0.4
	l-0.4,0.4c-0.2,0.2-0.5,0.5-0.8,0.8c-0.5,0.5-1,1-1.6,1.6C31.2,21.9,31,22,30.8,22c-0.4,0-0.8-0.3-1-0.7c-0.1-0.3-0.1-0.6,0.2-1
	l2.8-2.8l-2.8-2.8c-0.4-0.4-0.3-0.8-0.2-1c0.2-0.4,0.6-0.7,1-0.7c0.2,0,0.5,0.1,0.7,0.3c0.6,0.6,1.2,1.1,1.6,1.6
	c0.3,0.3,0.5,0.5,0.8,0.8l0.4,0.4l0.4-0.4c0.2-0.2,0.5-0.5,0.8-0.8c0.5-0.5,1-1,1.6-1.6c0.2-0.2,0.4-0.3,0.7-0.3
	c0.4,0,0.8,0.3,1,0.7c0.1,0.3,0.1,0.6-0.2,1l-2.8,2.8l2.8,2.8c0.4,0.4,0.3,0.8,0.2,1C38.6,21.7,38.2,22,37.8,22z M19.2,22
	c-0.2,0-0.5-0.1-0.7-0.3c-0.6-0.6-1.2-1.1-1.6-1.6c-0.3-0.3-0.5-0.5-0.8-0.8l-0.4-0.4l-0.4,0.4c-0.2,0.2-0.5,0.5-0.8,0.8
	c-0.5,0.5-1,1-1.6,1.6c-0.2,0.2-0.4,0.3-0.7,0.3c-0.4,0-0.8-0.3-1-0.7c-0.1-0.3-0.1-0.6,0.2-1l2.8-2.8l-2.8-2.8
	c-0.4-0.4-0.3-0.8-0.2-1c0.2-0.4,0.6-0.7,1-0.7c0.2,0,0.5,0.1,0.7,0.3c0.6,0.6,1.2,1.1,1.6,1.6c0.3,0.3,0.5,0.5,0.8,0.8l0.4,0.4
	l0.4-0.4c0.2-0.2,0.5-0.5,0.8-0.8c0.5-0.5,1-1,1.6-1.6c0.2-0.2,0.4-0.3,0.7-0.3c0.4,0,0.8,0.3,1,0.7c0.1,0.3,0.1,0.6-0.2,1l-2.8,2.8
	l2.8,2.8c0.4,0.4,0.3,0.8,0.2,1C20,21.7,19.6,22,19.2,22z"/>
</svg>
