<?xml version="1.0" encoding="utf-8"?>
<!-- Generator: Adobe Illustrator 24.1.1, SVG Export Plug-In . SVG Version: 6.00 Build 0)  -->
<svg version="1.1" id="Warstwa_1" xmlns="http://www.w3.org/2000/svg" xmlns:xlink="http://www.w3.org/1999/xlink" x="0px" y="0px"
	 viewBox="0 0 66 52" style="enable-background:new 0 0 66 52;" xml:space="preserve">
<style type="text/css">
	.st0{fill:#F45E20;stroke:#F45E20;stroke-width:0.7738;stroke-miterlimit:10;}
</style>
<g>
	<path class="st0" d="M12.8,37.7l5.7,0.2c0.1,0.9,0.4,1.9,1.1,2.6c0.8,0.9,2,1.4,3.2,1.4c0.7,0,1.4-0.2,2.1-0.5l11.8-6.1
		c0.7-0.3,1.4-0.7,2-1.2l5.2-4.9c0.9-0.8,2.1-1.4,3.3-1.4c1.6-0.1,4.9-0.3,6.7-0.3c0.7,0,1.3-0.3,1.9-0.8c2.3-2.1,3.4-5.3,3.1-8.9
		c-0.3-3.2-1.7-6.1-3.4-7.2c-0.4-0.3-1.1-0.4-1.5-0.4L18,10.9c-3.2,0-5.4,1.6-6.1,4.4l0,0.1c-0.4,1.5-0.7,3-1.2,4.5l-3,9.5
		c-0.8,2.4-0.7,4.3,0.2,5.7C8.8,36.5,10.4,37.3,12.8,37.7C12.8,37.7,12.8,37.7,12.8,37.7z M8.6,34.6c-0.8-1.2-0.8-2.9-0.1-5l3-9.5
		c0.5-1.5,0.9-3.1,1.2-4.6l0-0.1c0.8-3,3.3-3.7,5.3-3.7L53.8,11c0.3,0,0.8,0.1,1.1,0.3c1.5,1,2.8,3.6,3,6.5c0.3,3.3-0.7,6.3-2.8,8.2
		c-0.4,0.3-0.8,0.5-1.3,0.5c-1.8,0.1-5.1,0.2-6.7,0.3c-1.4,0.1-2.8,0.7-3.8,1.7L38,33.5c-0.5,0.5-1.1,0.8-1.7,1.1c0,0,0,0,0,0
		l-11.8,6.1c-1.4,0.8-3.1,0.5-4.2-0.7c-0.6-0.7-0.9-1.5-0.9-2.4c0,0,0,0,0-0.1c0,0,0,0,0,0c0-0.7,0.3-1.5,0.9-2.1l6.4-5.5
		c0.2-0.2,0.4-0.5,0.3-0.9c0-0.3-0.3-0.6-0.6-0.7l-9-3.9c0,0-0.1,0-0.1,0c-0.3,0-0.7,0-1,0.7c-0.5,1.1-0.9,4.7-0.3,5.2
		c0.1,0.1,0.3,0.1,0.5,0.1l2.5-0.2c0.2,0,0.3-0.1,0.4-0.3l0.9-3.3L26,29c0,0,0,0,0,0.1c0,0,0,0.1,0,0.1l-6.4,5.5c0,0,0,0,0,0
		c-0.6,0.7-0.9,1.4-1.1,2.3l-5.7-0.2C10.8,36.5,9.3,35.8,8.6,34.6z M19.4,26.2l-0.8,3.2l-2,0.1c-0.1-0.9,0.2-3.8,0.6-4.3L19.4,26.2z
		"/>
</g>
</svg>
