<?xml version="1.0" encoding="utf-8"?>
<!-- Generator: Adobe Illustrator 24.1.1, SVG Export Plug-In . SVG Version: 6.00 Build 0)  -->
<svg version="1.1" id="Warstwa_1" xmlns="http://www.w3.org/2000/svg" xmlns:xlink="http://www.w3.org/1999/xlink" x="0px" y="0px"
	 viewBox="0 0 66 52" style="enable-background:new 0 0 66 52;" xml:space="preserve">
<style type="text/css">
	.st0{fill:#F45E20;stroke:#F45E20;stroke-width:0.7738;stroke-miterlimit:10;}
</style>
<g>
	<path class="st0" d="M55.7,20.4c-0.4-1.4-0.8-2.9-1.1-4.3l-0.2-0.9c-0.7-2.8-2.8-4.3-6.1-4.4l-36.1-0.8c-0.4,0-1.1,0.1-1.5,0.4
		c-1.8,1.1-3.2,4.1-3.4,7.3c-0.3,3.7,0.8,7,3.1,9.1c0.5,0.5,1.2,0.7,1.8,0.7c1.5,0.1,5,0.2,6.7,0.3c1.2,0.1,2.4,0.6,3.3,1.4l5.2,4.9
		c0.6,0.5,1.2,1,2,1.2l11.7,5.8c0.7,0.4,1.4,0.5,2.1,0.5c1.2,0,2.4-0.5,3.2-1.4c0.7-0.8,1-1.7,1.1-2.6l5.7-0.2c0,0,0,0,0,0
		c2.2-0.3,3.8-1.1,4.7-2.4c0.9-1.4,1.1-3.4,0.4-5.9L55.7,20.4z M57.3,34.8c-0.7,1.1-2.1,1.8-4.1,2.1L47.5,37
		c-0.1-0.8-0.5-1.6-1.1-2.3c0,0,0,0,0,0L40,29.2c0,0,0,0,0-0.1c0,0,0,0,0-0.1l5.8-2.5l0.9,3.3c0,0.2,0.2,0.3,0.4,0.3l2.5,0.2
		c0.2,0,0.3,0,0.5-0.1c0.6-0.5,0.2-4.1-0.3-5.2c-0.3-0.7-0.7-0.7-1-0.7c0,0-0.1,0-0.1,0l-9,3.9c-0.3,0.1-0.5,0.4-0.6,0.7
		c0,0.3,0.1,0.6,0.3,0.9l6.4,5.5c0.5,0.6,0.8,1.3,0.9,2.1c0,0,0,0,0,0c0,0,0,0,0,0.1c0,0.9-0.3,1.7-0.9,2.4
		c-1.1,1.2-2.8,1.5-4.2,0.7l-11.8-5.8c0,0,0,0,0,0c-0.6-0.2-1.2-0.6-1.7-1.1l-5.2-4.9c-1-1-2.4-1.6-3.8-1.7
		c-1.6-0.1-4.9-0.3-6.7-0.3c-0.5,0-0.9-0.2-1.3-0.5c-2.1-1.9-3.2-4.9-2.9-8.4c0.3-3,1.5-5.7,3-6.7c0.2-0.1,0.7-0.3,1-0.3
		c0,0,0,0,0,0l36.1,0.8c2,0,4.5,0.7,5.2,3.7l0.2,0.9c0.4,1.4,0.7,2.9,1.1,4.4l2.6,8.9C58.1,31.8,58.1,33.6,57.3,34.8z M46.6,26.2
		l2.3-1c0.4,0.5,0.7,3.3,0.6,4.3l-2-0.1L46.6,26.2z"/>
</g>
</svg>
