<?xml version="1.0" encoding="UTF-8" standalone="no"?>
<svg
   xmlns:dc="http://purl.org/dc/elements/1.1/"
   xmlns:cc="http://creativecommons.org/ns#"
   xmlns:rdf="http://www.w3.org/1999/02/22-rdf-syntax-ns#"
   xmlns:svg="http://www.w3.org/2000/svg"
   xmlns="http://www.w3.org/2000/svg"
   viewBox="0 0 480.82401 386.89868"
   height="386.89868"
   width="480.82401"
   xml:space="preserve"
   id="svg2"
   version="1.1"><metadata
     id="metadata8"><rdf:RDF><cc:Work
         rdf:about=""><dc:format>image/svg+xml</dc:format><dc:type
           rdf:resource="http://purl.org/dc/dcmitype/StillImage" /></cc:Work></rdf:RDF></metadata><defs
     id="defs6"><clipPath
       id="clipPath18"
       clipPathUnits="userSpaceOnUse"><path
         id="path16"
         d="M 0,290.174 H 360.618 V 0 H 0 Z" /></clipPath></defs><g
     transform="matrix(1.3333333,0,0,-1.3333333,0,386.89867)"
     id="g10"><g
       id="g12"><g
         clip-path="url(#clipPath18)"
         id="g14"><g
           transform="translate(197.7783,160.5684)"
           id="g20"><path
             id="path22"
             style="fill:#0a2a35;fill-opacity:1;fill-rule:nonzero;stroke:none"
             d="M 0,0 C 0.297,-0.277 0.611,-0.558 0.921,-0.807 2.39,-1.994 3.907,-2.728 3.907,-2.728 l -0.225,-0.52 c 0,0 -0.199,0.069 -0.501,0.165 -0.046,0.015 -0.09,0.028 -0.142,0.045 -0.711,0.22 -1.889,0.556 -2.885,0.699 -0.697,0.099 -3.016,0.177 -3.016,0.177 l 0.004,0.01 h -29.279 l 0.004,-0.01 c 0,0 -2.319,-0.078 -3.015,-0.177 -1.27,-0.182 -2.831,-0.676 -3.343,-0.846 -0.006,-0.002 -0.01,-0.002 -0.016,-0.003 -0.097,-0.034 -0.17,-0.06 -0.17,-0.06 l -0.225,0.52 c 0,0 1.517,0.734 2.988,1.921 0.36,0.292 0.731,0.625 1.066,0.946 l 17.356,17.353 z m -106.041,-18.307 c 1.174,-0.453 2.09,0.211 2.372,0.449 l 0.006,0.007 c 5.472,3.774 10.413,8.66 13.396,13.478 0.459,0.67 0.75,1.46 0.788,2.325 v 86.963 c -0.017,0.654 -0.068,1.937 -0.219,3.031 -0.114,0.803 -0.273,1.559 -0.427,2.19 -0.045,0.177 -0.087,0.338 -0.129,0.493 -0.013,0.041 -0.021,0.079 -0.031,0.118 -0.041,0.149 -0.081,0.287 -0.117,0.41 -0.007,0.024 -0.013,0.042 -0.019,0.064 -0.033,0.11 -0.064,0.207 -0.089,0.29 -0.006,0.016 -0.011,0.032 -0.015,0.048 -0.027,0.087 -0.049,0.154 -0.066,0.203 -0.008,0.021 -0.008,0.025 -0.014,0.04 -0.01,0.032 -0.018,0.054 -0.018,0.054 l 0.525,0.207 c 0,0 0.144,-0.299 0.371,-0.746 0.387,-0.755 1.025,-1.94 1.658,-2.839 0.327,-0.465 1.283,-1.603 1.802,-2.211 L -33.5,33.501 c 1.237,-1.082 2.754,-2.024 4.041,-2.573 l -0.002,-0.001 c 0.01,-0.004 0.017,-0.007 0.026,-0.011 0.223,-0.095 0.445,-0.182 0.652,-0.25 V 30.01 c -0.326,-0.081 -0.629,-0.19 -0.921,-0.306 l 0.009,-0.011 c -1.217,-0.49 -2.178,-1.245 -3.059,-2.059 l -44.001,-44 c -0.02,-0.022 -0.045,-0.056 -0.07,-0.086 l -0.008,-0.008 c -0.005,-0.008 -0.011,-0.018 -0.016,-0.023 -0.009,-0.012 -0.018,-0.029 -0.028,-0.042 -0.027,-0.038 -0.054,-0.077 -0.081,-0.124 -0.018,-0.026 -0.032,-0.054 -0.049,-0.08 -0.024,-0.045 -0.047,-0.09 -0.073,-0.137 -0.017,-0.035 -0.033,-0.074 -0.051,-0.113 -0.021,-0.047 -0.039,-0.096 -0.058,-0.151 -0.016,-0.043 -0.03,-0.088 -0.042,-0.131 -0.016,-0.058 -0.03,-0.117 -0.041,-0.174 -0.01,-0.05 -0.02,-0.099 -0.027,-0.15 -0.01,-0.064 -0.012,-0.133 -0.014,-0.2 -0.002,-0.052 -0.005,-0.101 -0.002,-0.155 0.002,-0.08 0.016,-0.16 0.031,-0.246 0.008,-0.044 0.01,-0.089 0.021,-0.138 0.032,-0.135 0.074,-0.268 0.136,-0.41 0.512,-1.151 1.627,-1.33 1.994,-1.36 l 0.161,-0.006 0.161,-0.005 v -0.008 H 39.81 v 0.008 l 0.161,0.005 0.162,0.006 c 0.367,0.03 1.482,0.209 1.991,1.36 0.615,1.385 -0.435,2.444 -0.435,2.444 l -10e-4,0.004 h -0.002 l -0.004,0.01 -43.039,43.036 c -0.05,0.026 -0.103,0.059 -0.163,0.116 -1.108,1.057 -2.228,2.154 -3.788,2.8 H -5.31 c -0.31,0.129 -0.63,0.246 -0.982,0.334 v 0.656 c 0.232,0.078 0.484,0.178 0.737,0.288 h 0.002 c 1.506,0.654 3.316,1.838 4.62,3.143 0.076,0.076 0.135,0.118 0.188,0.143 L 51.03,86.015 c 0.363,0.422 1.654,1.939 2.046,2.495 0.537,0.766 1.074,1.73 1.461,2.469 0.002,0.002 0.002,0.004 0.004,0.007 0.337,0.638 0.563,1.108 0.563,1.108 l 0.525,-0.206 c 0,0 -0.006,-0.018 -0.016,-0.046 -0.006,-0.018 -0.009,-0.031 -0.021,-0.064 -0.011,-0.03 -0.023,-0.067 -0.036,-0.109 -0.02,-0.057 -0.038,-0.121 -0.062,-0.199 -0.014,-0.041 -0.025,-0.083 -0.041,-0.13 -0.02,-0.066 -0.038,-0.129 -0.062,-0.205 -0.027,-0.096 -0.055,-0.198 -0.086,-0.309 -0.023,-0.083 -0.045,-0.169 -0.072,-0.259 -0.018,-0.07 -0.035,-0.14 -0.054,-0.213 -0.169,-0.667 -0.353,-1.49 -0.475,-2.375 -0.077,-0.577 -0.131,-1.208 -0.167,-1.772 V -1.896 c 0,-0.915 0.293,-1.75 0.764,-2.457 -0.002,0 -0.009,-0.003 -0.009,-0.003 2.957,-4.78 8.087,-9.875 13.52,-13.654 l 0.103,-0.099 c 0.078,-0.061 0.181,-0.121 0.293,-0.186 0.006,-0.004 0.011,-0.008 0.017,-0.012 l 0.002,0.002 c 0.438,-0.234 1.104,-0.433 1.894,-0.129 1.008,0.389 1.295,1.247 1.38,1.716 v 144.044 l -0.028,0.089 c 0,0 -0.004,1.491 -1.419,2.037 -1.174,0.451 -2.09,-0.211 -2.371,-0.449 l -0.236,-0.22 -0.025,0.025 -13.885,-13.882 v -0.108 l -0.052,0.053 -71.977,-71.976 -71.979,71.977 -0.008,-0.008 v 0.016 l -13.912,13.913 -0.008,-0.01 -0.237,0.22 c -0.282,0.238 -1.198,0.9 -2.372,0.449 -1.413,-0.546 -1.418,-2.037 -1.418,-2.037 l -0.013,-0.043 V -16.483 c 0.059,-0.426 0.309,-1.401 1.398,-1.824" /></g><g
           transform="translate(140.2607,283.2227)"
           id="g24"><path
             id="path26"
             style="fill:#0a2a35;fill-opacity:1;fill-rule:nonzero;stroke:none"
             d="M 0,0 C 0.049,-0.079 0.095,-0.147 0.136,-0.202 3.188,-5.028 8.285,-9.814 13.873,-13.86 l 0.004,0.004 c 0.617,-0.393 1.307,-0.62 2.014,-0.682 h 48.233 c 0.725,0.064 1.437,0.298 2.065,0.709 l 0.036,-0.031 c 5.675,4.11 10.853,8.983 13.887,13.884 0,0 -0.012,0.003 -0.017,0.004 0.257,0.426 0.536,1.164 0.144,2.046 -0.482,1.082 -1.493,1.302 -1.912,1.351 H 1.753 C 1.328,3.376 0.318,3.156 -0.163,2.074 -0.55,1.197 -0.272,0.454 -0.018,0.024 -0.012,0.016 -0.006,0.009 0,0" /></g><g
           transform="translate(38.3984,62.1563)"
           id="g28"><path
             id="path30"
             style="fill:#0a2a35;fill-opacity:1;fill-rule:nonzero;stroke:none"
             d="m 0,0 c 0,8.162 -3.718,11.521 -10.439,11.521 v -0.123 c -3.84,0 -6.84,-1.199 -9.719,-3.359 v -30.476 c 2.879,-2.163 5.879,-3.362 9.719,-3.362 v -0.119 C -3.718,-25.918 0,-22.559 0,-14.4 Z m 18.239,2.762 v -19.92 c 0,-12.602 -6.72,-22.199 -22.798,-22.199 -6,0 -11.879,2.4 -15.599,5.64 l -0.6,-0.601 c 0.479,-1.799 0.6,-3.598 0.6,-5.399 v -18.359 c -4.801,-2.52 -12.24,-4.08 -18.24,-4.08 v 82.797 c 4.8,2.64 12.24,4.08 18.24,4.08 0,-1.201 -0.121,-3.602 -0.6,-4.801 l 0.6,-0.602 c 3.72,3.243 9.599,5.643 15.599,5.643 16.078,0 22.798,-9.602 22.798,-22.199" /></g><g
           transform="translate(103.8223,86.1563)"
           id="g32"><path
             id="path34"
             style="fill:#0a2a35;fill-opacity:1;fill-rule:nonzero;stroke:none"
             d="m 0,0 c 0,-6.602 -1.08,-11.641 -3.358,-16.92 -7.322,0.959 -12.482,-0.721 -17.161,-5.281 v -39.955 c -4.919,-0.6 -13.319,-0.6 -18.239,0 v 58.797 c 4.8,2.64 12.239,4.08 18.239,4.08 0,-2.881 -0.36,-6.842 -1.081,-9.602 l 0.601,-0.599 C -17.4,-2.52 -10.56,1.32 0,0" /></g><g
           transform="translate(127.5098,86.877)"
           id="g36"><path
             id="path38"
             style="fill:#0a2a35;fill-opacity:1;fill-rule:nonzero;stroke:none"
             d="m 0,0 v -62.877 c -4.92,-0.6 -13.319,-0.6 -18.238,0 V -4.08 C -13.439,-1.439 -6,0 0,0" /></g><g
           transform="translate(196.6641,85.9141)"
           id="g40"><path
             id="path42"
             style="fill:#0a2a35;fill-opacity:1;fill-rule:nonzero;stroke:none"
             d="m 0,0 -20.758,-61.914 c -6.361,-0.6 -13.92,-0.6 -20.28,0 L -63.717,0 c 6.601,0.604 13.198,0.604 19.799,0 l 11.399,-33.715 c 0.602,-1.922 1.322,-4.922 1.56,-8.76 h 0.602 c 0.238,3.838 0.959,6.838 1.557,8.76 L -18.6,0 C -12.237,0.604 -6.238,0.604 0,0" /></g><g
           transform="translate(291.7383,70.6777)"
           id="g44"><path
             id="path46"
             style="fill:#0a2a35;fill-opacity:1;fill-rule:nonzero;stroke:none"
             d="m 0,0 v -46.678 c -5.039,-0.599 -13.319,-0.599 -18.239,0 v 39.237 c 0,7.441 -2.16,8.88 -7.32,9 -3.481,0 -6.359,-0.961 -10.2,-3.239 v -44.998 c -4.919,-0.599 -13.319,-0.599 -18.24,0 v 39.237 c 0,7.441 -2.159,8.88 -7.318,9 -3.48,0 -6.48,-1.079 -10.08,-3.239 v -44.998 c -4.919,-0.599 -13.32,-0.599 -18.24,0 v 58.797 c 4.8,2.641 12.241,4.08 18.24,4.08 0,-1.681 -0.121,-3.961 -0.599,-5.519 l 0.599,-0.602 c 5.759,4.682 11.521,6.361 17.519,6.361 7.44,0 13.44,-1.921 16.318,-7.562 5.881,5.043 12.841,7.562 19.321,7.562 C -7.68,16.439 0,12.598 0,0" /></g><g
           transform="translate(360.6182,24)"
           id="g48"><path
             id="path50"
             style="fill:#0a2a35;fill-opacity:1;fill-rule:nonzero;stroke:none"
             d="M 0,0 C -4.683,-0.6 -14.88,-0.6 -20.041,0 L -31.439,24.357 -43.318,0 c -5.282,-0.6 -14.641,-0.6 -19.32,0 l 13.32,25.557 c 1.558,3.119 3.001,4.92 5.278,5.64 v 0.721 c -2.639,0.838 -4.56,3.119 -5.881,5.641 l -12.597,24.355 c 4.799,0.604 14.88,0.604 20.039,0 l 11.281,-23.639 12.119,23.639 c 5.159,0.604 14.277,0.604 18.957,0 L -12.601,37.559 c -1.439,-2.522 -3.36,-4.803 -5.879,-5.641 v -0.721 c 2.28,-0.72 3.6,-2.521 5.16,-5.64 z" /></g></g></g></g></svg>