<?xml version="1.0" encoding="UTF-8" standalone="no"?>
<svg
   xmlns:dc="http://purl.org/dc/elements/1.1/"
   xmlns:cc="http://creativecommons.org/ns#"
   xmlns:rdf="http://www.w3.org/1999/02/22-rdf-syntax-ns#"
   xmlns:svg="http://www.w3.org/2000/svg"
   xmlns="http://www.w3.org/2000/svg"
   xmlns:sodipodi="http://sodipodi.sourceforge.net/DTD/sodipodi-0.dtd"
   xmlns:inkscape="http://www.inkscape.org/namespaces/inkscape"
   viewBox="0 0 1135.2423 274.24866"
   height="274.24866"
   width="1135.2423"
   xml:space="preserve"
   id="svg2"
   version="1.1"
   sodipodi:docname="logo.svg"
   inkscape:version="0.92.4 5da689c313, 2019-01-14"><sodipodi:namedview
     pagecolor="#ffffff"
     bordercolor="#666666"
     borderopacity="1"
     objecttolerance="10"
     gridtolerance="10"
     guidetolerance="10"
     inkscape:pageopacity="0"
     inkscape:pageshadow="2"
     inkscape:window-width="1481"
     inkscape:window-height="724"
     id="namedview24"
     showgrid="false"
     inkscape:zoom="0.22474516"
     inkscape:cx="536.18962"
     inkscape:cy="159.76609"
     inkscape:window-x="2817"
     inkscape:window-y="425"
     inkscape:window-maximized="0"
     inkscape:current-layer="svg2" /><metadata
     id="metadata8"><rdf:RDF><cc:Work
         rdf:about=""><dc:format>image/svg+xml</dc:format><dc:type
           rdf:resource="http://purl.org/dc/dcmitype/StillImage" /></cc:Work></rdf:RDF></metadata><defs
     id="defs6"><clipPath
       id="clipPath18"
       clipPathUnits="userSpaceOnUse"><path
         id="path16"
         d="M 0,449.294 H 944.403 V 0 H 0 Z"
         inkscape:connector-curvature="0" /></clipPath><clipPath
       id="clipPath58"
       clipPathUnits="userSpaceOnUse"><path
         id="path56"
         d="M 0,449.294 H 944.403 V 0 H 0 Z"
         inkscape:connector-curvature="0" /></clipPath></defs><g
     transform="matrix(2.7625984,0,0,-2.7625984,-1060.1413,720.04033)"
     id="g10"><g
       id="g12"><g
         clip-path="url(#clipPath18)"
         id="g14"><g
           transform="translate(427.5029,232.1968)"
           id="g28"><path
             id="path30"
             style="fill:#ffffff;fill-opacity:1;fill-rule:nonzero;stroke:none"
             d="M 0,0 C 0,9.299 -4.237,13.127 -11.896,13.127 V 12.99 c -4.375,0 -7.793,-1.366 -11.074,-3.827 v -34.731 c 3.281,-2.461 6.699,-3.83 11.074,-3.83 v -0.137 c 7.659,0 11.896,3.828 11.896,13.127 z m 20.786,3.145 v -22.697 c 0,-14.358 -7.658,-25.297 -25.981,-25.297 -6.836,0 -13.537,2.736 -17.775,6.426 l -0.684,-0.684 c 0.546,-2.049 0.684,-4.101 0.684,-6.15 v -20.924 c -5.47,-2.869 -13.948,-4.649 -20.785,-4.649 v 94.35 c 5.471,3.008 13.947,4.649 20.785,4.649 0,-1.367 -0.138,-4.103 -0.684,-5.47 l 0.684,-0.683 c 4.238,3.692 10.939,6.426 17.775,6.426 18.323,0 25.981,-10.939 25.981,-25.297"
             inkscape:connector-curvature="0" /></g><g
           transform="translate(502.0557,259.5449)"
           id="g32"><path
             id="path34"
             style="fill:#ffffff;fill-opacity:1;fill-rule:nonzero;stroke:none"
             d="m 0,0 c 0,-7.521 -1.23,-13.264 -3.829,-19.28 -8.34,1.094 -14.221,-0.82 -19.553,-6.016 V -70.83 c -5.607,-0.684 -15.178,-0.684 -20.786,0 v 67.002 c 5.472,3.008 13.948,4.649 20.786,4.649 0,-3.282 -0.411,-7.794 -1.233,-10.939 l 0.685,-0.684 C -19.829,-2.871 -12.035,1.504 0,0"
             inkscape:connector-curvature="0" /></g><g
           transform="translate(529.0488,260.3662)"
           id="g36"><path
             id="path38"
             style="fill:#ffffff;fill-opacity:1;fill-rule:nonzero;stroke:none"
             d="m 0,0 v -71.651 c -5.608,-0.684 -15.179,-0.684 -20.785,0 V -4.649 C -15.315,-1.642 -6.838,0 0,0"
             inkscape:connector-curvature="0" /></g><g
           transform="translate(607.8516,259.271)"
           id="g40"><path
             id="path42"
             style="fill:#ffffff;fill-opacity:1;fill-rule:nonzero;stroke:none"
             d="m 0,0 -23.656,-70.556 c -7.247,-0.684 -15.861,-0.684 -23.109,0 L -72.607,0 c 7.52,0.685 15.041,0.685 22.561,0 l 12.989,-38.423 c 0.686,-2.188 1.505,-5.606 1.779,-9.981 h 0.681 c 0.275,4.375 1.097,7.793 1.78,9.981 L -21.194,0 C -13.947,0.685 -7.11,0.685 0,0"
             inkscape:connector-curvature="0" /></g><g
           transform="translate(716.1885,241.9058)"
           id="g44"><path
             id="path46"
             style="fill:#3fbcd8;fill-opacity:1;fill-rule:nonzero;stroke:none"
             d="m 0,0 v -53.191 c -5.74,-0.684 -15.176,-0.684 -20.781,0 v 44.713 c 0,8.478 -2.462,10.119 -8.341,10.256 -3.967,0 -7.248,-1.094 -11.626,-3.692 v -51.277 c -5.604,-0.684 -15.176,-0.684 -20.783,0 v 44.713 c 0,8.478 -2.459,10.119 -8.339,10.256 -3.966,0 -7.385,-1.231 -11.486,-3.692 v -51.277 c -5.606,-0.684 -15.178,-0.684 -20.786,0 v 67.002 c 5.471,3.008 13.949,4.649 20.786,4.649 0,-1.915 -0.139,-4.512 -0.684,-6.291 l 0.684,-0.683 c 6.564,5.333 13.126,7.247 19.962,7.247 8.478,0 15.315,-2.188 18.597,-8.614 6.699,5.743 14.632,8.614 22.016,8.614 C -8.749,18.733 0,14.357 0,0"
             inkscape:connector-curvature="0" /></g><g
           transform="translate(794.6807,188.7148)"
           id="g48"><path
             id="path50"
             style="fill:#3fbcd8;fill-opacity:1;fill-rule:nonzero;stroke:none"
             d="M 0,0 C -5.334,-0.684 -16.957,-0.684 -22.837,0 L -35.825,27.758 -49.362,0 C -55.38,-0.684 -66.045,-0.684 -71.378,0 L -56.2,29.125 c 1.776,3.557 3.42,5.606 6.017,6.427 v 0.822 c -3.008,0.957 -5.197,3.554 -6.701,6.425 L -71.24,70.556 c 5.469,0.685 16.954,0.685 22.834,0 l 12.854,-26.936 13.811,26.936 c 5.879,0.685 16.271,0.685 21.603,0 L -14.357,42.799 c -1.642,-2.871 -3.83,-5.468 -6.702,-6.425 v -0.822 c 2.598,-0.821 4.102,-2.87 5.881,-6.427 z"
             inkscape:connector-curvature="0" /></g></g></g></g></svg>
