<?xml version="1.0" encoding="utf-8"?>
<!-- Generator: Adobe Illustrator 24.0.1, SVG Export Plug-In . SVG Version: 6.00 Build 0)  -->
<svg version="1.1" id="Warstwa_1" xmlns="http://www.w3.org/2000/svg" xmlns:xlink="http://www.w3.org/1999/xlink" x="0px" y="0px"
	 viewBox="0 0 86.5 89.93" style="enable-background:new 0 0 86.5 89.93;" xml:space="preserve">
<style type="text/css">
	.st0{fill:#0A2A35;}
</style>
<g>
	<path class="st0" d="M80.25,26.35c3.45,0,6.25-2.8,6.25-6.25V6.25C86.5,2.8,83.7,0,80.25,0h-74C2.8,0,0,2.8,0,6.25V20.1
		c0,3.45,2.8,6.25,6.25,6.25H40v5.44H6.25C2.8,31.79,0,34.59,0,38.04v13.85c0,3.45,2.8,6.25,6.25,6.25H40v5.44H6.25
		C2.8,63.58,0,66.38,0,69.83v13.85c0,3.45,2.8,6.25,6.25,6.25h74c3.45,0,6.25-2.8,6.25-6.25V69.83c0-3.45-2.8-6.25-6.25-6.25H46.5
		v-5.44h33.75c3.45,0,6.25-2.8,6.25-6.25V38.04c0-3.45-2.8-6.25-6.25-6.25H46.5v-5.44H80.25z M80,83.43H6.5V70.08H80V83.43z
		 M80,51.64H6.5V38.29H80V51.64z M6.5,6.5H80v13.35H6.5V6.5z"/>
	<path class="st0" d="M19.48,8.79c-2.42,0-4.39,1.96-4.39,4.39c0,2.42,1.96,4.39,4.39,4.39c2.42,0,4.39-1.96,4.39-4.39
		C23.87,10.75,21.91,8.79,19.48,8.79z"/>
	<path class="st0" d="M19.48,49.35c2.42,0,4.39-1.96,4.39-4.39c0-2.42-1.96-4.39-4.39-4.39c-2.42,0-4.39,1.96-4.39,4.39
		C15.1,47.39,17.06,49.35,19.48,49.35z"/>
	<path class="st0" d="M19.48,81.14c2.42,0,4.39-1.96,4.39-4.39s-1.96-4.39-4.39-4.39c-2.42,0-4.39,1.96-4.39,4.39
		S17.06,81.14,19.48,81.14z"/>
</g>
</svg>