<?xml version="1.0" standalone="no"?>
<!DOCTYPE svg PUBLIC "-//W3C//DTD SVG 1.1//EN" "http://www.w3.org/Graphics/SVG/1.1/DTD/svg11.dtd" >
<svg xmlns="http://www.w3.org/2000/svg" xmlns:xlink="http://www.w3.org/1999/xlink" version="1.1">
<metadata>
Created by FontForge 20170731 at Thu Jan 24 10:42:44 2019
 By developer,,,
Generated by Glyphter
</metadata>
<defs>
<font id="ico" horiz-adv-x="1024" >
  <font-face 
    font-family="ico"
    font-weight="400"
    font-stretch="normal"
    units-per-em="1024"
    panose-1="2 0 5 3 0 0 0 0 0 0"
    ascent="1024"
    descent="0"
    cap-height="890"
    bbox="0 0 1025 1025"
    underline-thickness="0"
    underline-position="10"
    unicode-range="U+0041-0069"
  />
<missing-glyph 
 />
    <glyph glyph-name=".notdef" 
 />
    <glyph glyph-name=".notdef" 
 />
    <glyph glyph-name="A" unicode="A" 
d="M943 885q-35 -36 -283 -287l-283 -286l-296 315l-81 -115l377 -372l647 630z" />
    <glyph glyph-name="B" unicode="B" 
d="M951 871q-31 -1 -52 -22l-509 -516l-265 269q-21 21 -52 21t-51.5 -21t-20.5 -52.5t20 -52.5l317 -321q21 -21 52 -21t52 21l561 568q20 21 20 52.5t-20.5 52.5t-51.5 22v0z" />
    <glyph glyph-name="C" unicode="C" 
d="M0 1024v-378v-378h488v-268l341 268h195v756h-1024v0zM926 366h-73h-73l-195 -147v147h-487v560h828v-560v0z" />
    <glyph glyph-name="D" unicode="D" 
d="M533 765q-5 11 -42 84l-43 85h-448v-843h1024v675l-491 -1v0zM939 175h-427h-427v674h320l86 -168h448v-506v0z" />
    <glyph glyph-name="E" unicode="E" 
d="M595 942q-7 -6 -50 -50l-50 -49l265 -265h-760v-132h760l-265 -264l100 -99l429 429z" />
    <glyph glyph-name="F" unicode="F" 
d="M348 430q-14 -14 -112 -113l-113 -112v205h-123v-410h410v123h-205l225 225l-82 82v0zM614 1024v-61v-62h205l-225 -225l82 -82l225 225v-205h123v410h-410v0z" />
    <glyph glyph-name="G" unicode="G" 
d="M1024 701v54v53h-188l26 189h-107l-27 -189h-350l26 189h-108l-26 -189h-216v-107h201l-48 -351h-207v-107h192l-30 -216h107l30 216h351l-30 -216h108l29 216h213v107h-198l49 351h203v0zM665 350h-176h-175l49 351h351l-49 -351v0z" />
    <glyph glyph-name="H" unicode="H" 
d="M884 931h-372h-372l-140 -325v-512h1024v512l-140 325v0zM209 838h303h303l93 -232h-187q-2 -90 -61 -149t-148 -61q-89 2 -148 61t-61 149h-187l93 232v0zM931 187h-419h-419v325h140q30 -92 103.5 -149.5t175.5 -59.5q102 2 175.5 59.5t103.5 149.5h140v-325v0z" />
    <glyph glyph-name="I" unicode="I" 
d="M0 890v-378v-377h1024v755h-1024v0zM918 805q-25 -20 -203 -163l-203 -163l-406 326h812v0zM85 712q15 -13 121 -100l121 -100l-242 -210v410v0zM122 219q17 16 137 121l137 121l116 -85l116 85l274 -242h-780v0zM939 302q-15 13 -121 105l-121 105l242 200v-410v0z" />
    <glyph glyph-name="J" unicode="J" 
d="M786 714q-7 148 -78 228.5t-196 80.5t-196 -80.5t-78 -228.5h-174v-714h896v714h-174v0zM512 929q98 -4 135 -68t39 -147h-348q1 83 38.5 147t135.5 68v0zM860 95h-348h-348v524h696v-524v0zM462 333v-71v-71h100v142q22 14 35.5 41t13.5 55q-1 40 -29 67t-70 27
t-70.5 -27t-29.5 -67q1 -28 14.5 -55t35.5 -41v0z" />
    <glyph glyph-name="K" unicode="K" 
d="M0 1024v-512v-512h1024v1024h-1024v0zM896 128h-384h-384v768h768v-768v0z" />
    <glyph glyph-name="L" unicode="L" 
d="M0 578v-66v-66h1024v132h-1024z" />
    <glyph glyph-name="M" unicode="M" 
d="M0 1024v-512v-512h683v1l341 340v683h-1024v0zM683 146v98v97h195l-195 -195v0zM926 439h-170h-171v-341h-487v828h828v-487v0z" />
    <glyph glyph-name="N" unicode="N" 
d="M879 826h-31h-30v-111l84 -210h-184q-2 -88 -60 -146.5t-146 -60.5q-88 2 -146 60.5t-60 146.5h-184l84 210v111h-61l-137 -321v-505h1009v505l-138 321v0zM925 92h-413h-413v321h138q30 -92 102.5 -148.5t172.5 -58.5q100 2 172.5 58.5t102.5 148.5h138v-321v0zM463 844
v-124v-124h98v248l123 -113l73 68l-245 225l-245 -225l73 -68l123 113v0z" />
    <glyph glyph-name="O" unicode="O" 
d="M0 668q17 -16 134 -133l133 -134v-289v0v-111l211 189l190 -189l356 1023l-1024 -356v0zM356 201v56v55l56 -56l-56 -55v0zM623 179q-13 12 -103 103l-103 103l295 350l-398 -247l-136 136l712 267l-267 -712v0z" />
    <glyph glyph-name="P" unicode="P" 
d="M512 1024q-218 -5 -362.5 -149.5t-149.5 -362.5q5 -218 149.5 -362.5t362.5 -149.5q218 5 362.5 149.5t149.5 362.5q-5 218 -149.5 362.5t-362.5 149.5v0zM512 85q-64 1 -122.5 18.5t-109.5 50.5l36 175q5 32 28.5 53t56.5 21h26q39 -19 85 -19t85 19h30q33 0 56.5 -21
t28.5 -53l35 -173q-51 -34 -110.5 -52t-124.5 -19v0zM384 619q2 53 38.5 89.5t89.5 38.5q53 -2 89.5 -38.5t38.5 -89.5q-2 -58 -40 -102.5t-88 -47.5q-50 3 -88 48t-40 102v0zM821 219q-1 8 -12 61l-13 62q-8 49 -38.5 85.5t-76.5 52.5q20 29 32 66t12 73q-2 89 -63 149.5
t-150 63.5q-89 -3 -150 -63.5t-63 -149.5q0 -36 12.5 -73.5t32.5 -67.5q-45 -16 -75 -52t-37 -84l-26 -127q-57 59 -88.5 134.5t-32.5 162.5q5 181 125.5 301.5t301.5 125.5q181 -5 301.5 -125.5t125.5 -301.5q-1 -86 -32 -160.5t-86 -132.5v0z" />
    <glyph glyph-name="Q" unicode="Q" 
d="M512 1024q-218 -5 -362.5 -149.5t-149.5 -362.5q5 -218 149.5 -362.5t362.5 -149.5q218 5 362.5 149.5t149.5 362.5q-5 218 -149.5 362.5t-362.5 149.5v0zM512 85q-181 5 -301.5 125.5t-125.5 301.5q5 181 125.5 301.5t301.5 125.5q181 -5 301.5 -125.5t125.5 -301.5
q-5 -181 -125.5 -301.5t-301.5 -125.5v0zM502 343q-27 -1 -44 -18.5t-17 -46.5t17 -46.5t44 -17.5t44.5 17.5t17.5 46.5t-17.5 46.5t-44.5 18.5v0zM508 789q-46 0 -82 -19.5t-63 -52.5l53 -49q18 20 39 31.5t46 11.5q32 0 49.5 -18t17.5 -48q-8 -53 -60.5 -104.5
t-47.5 -138.5h84q-1 76 54 125.5t63 124.5q-1 68 -43 102.5t-110 34.5v0z" />
    <glyph glyph-name="R" unicode="R" 
d="M512 782q-123 -1 -228 -57t-176 -152v181h-108v-398h377v114h-215q55 91 148 144t202 54q170 -4 285 -124t119 -301h108q-6 229 -151.5 381t-360.5 158v0z" />
    <glyph glyph-name="S" unicode="S" 
d="M582 768q-107 -1 -197.5 -49t-151.5 -131v156h-93v-342h325v98h-186q48 78 128.5 124t174.5 46q147 -3 246 -106.5t103 -258.5h93q-5 196 -130.5 327t-311.5 136v0zM93 598h-46h-47v-342h326v97h-233v245v0z" />
    <glyph glyph-name="T" unicode="T" 
d="M512 854q-213 -22 -359.5 -171t-152.5 -171q6 -21 152.5 -170.5t359.5 -170.5q213 21 359.5 170.5t152.5 170.5q-6 22 -152.5 171t-359.5 171v0zM512 256q-122 7 -231.5 91t-173.5 165q64 82 173 166t232 90q122 -6 231.5 -90t173.5 -166q-64 -81 -173 -165t-232 -91v0z
M512 683q-73 -2 -121 -50t-50 -121q2 -72 50 -120.5t121 -49.5q73 1 121 49.5t50 120.5q-2 73 -50 121t-121 50v0zM512 427q-40 0 -62.5 23t-22.5 62.5t22.5 62t62.5 22.5t62.5 -22.5t22.5 -62t-22.5 -62.5t-62.5 -23v0z" />
    <glyph glyph-name="U" unicode="U" 
d="M582 691q-35 14 -70 13q-59 0 -107.5 -32t-71.5 -90q-28 -77 3 -147t106 -101q35 -14 70 -14q59 1 107.5 33t71.5 90q28 77 -3 147t-106 101v0zM611 474q-12 -31 -38.5 -49.5t-60.5 -18.5q-20 0 -39 7q-40 17 -58 57t-2 81q12 31 38.5 49.5t60.5 18.5q20 0 39 -7
q40 -16 58 -56.5t2 -81.5v0zM1024 586q-5 13 -40 106l-40 107l-133 11l-10 132l-211 83l-110 -104l-126 84l-195 -116l13 -151l-143 -48l-29 -225l127 -82l-51 -143l160 -161l143 50l81 -128l225 26l49 144l151 -15l117 194l-83 127l105 109v0zM839 246q-6 0 -48 5l-116 11
l-53 -156l-119 -14l-88 140l-156 -55l-84 85l55 156l-139 89l15 119l158 52l-16 165l103 61l138 -92l120 113l111 -43l12 -151l151 -13l42 -112l-114 -119l90 -139l-62 -102v0z" />
    <glyph glyph-name="V" unicode="V" 
d="M0 15h512h512v410h-1024v-410v0zM146 278h366h366v-117h-732v117v0zM0 1010v-73v-74h1024v147h-1024v0zM0 571h512h512v146h-1024v-146v0z" />
    <glyph glyph-name="W" unicode="W" 
d="M614 1024v-512v-512h410v1024h-410v0zM878 146h-59h-58v732h117v-732v0zM0 878h234h234v146h-468v-146v0zM0 585h234h234v146h-468v-146v0zM0 293h234h234v146h-468v-146v0zM0 0h234h234v146h-468v-146v0z" />
    <glyph glyph-name="X" unicode="X" 
d="M758 800q-4 -4 -31 -33l-31 -34l205 -221l-205 -221l62 -66l266 287l-266 288v0zM328 733q-4 5 -31 34l-31 33l-266 -288l266 -287l62 66l-205 221l205 221v0zM393 203q5 -1 40 -11l39 -11l159 640l-79 23l-159 -641v0z" />
    <glyph glyph-name="Y" unicode="Y" 
d="M512 171h-213h-214v683h427v-214h85v299h-597v-853h597v298h-85v-213v0zM747 790l-32 -32l-32 -32l170 -171h-490v-85h490l-170 -171l64 -64l277 277l-277 278v0z" />
    <glyph glyph-name="Z" unicode="Z" 
d="M811 320q18 1 30 13t12 30t-12 30t-30.5 12t-30.5 -12t-12 -30t12 -30t31 -13v0zM939 555v85v86h-171v298l-768 -277v-746h939v170h85v384h-85v0zM683 896v-85v-85h-491l491 170v0zM853 86h-384h-384v554h768v-85h-256v-384h256v-85v0zM939 256h-128h-128v214h256v-214v0
z" />
    <glyph glyph-name="a" unicode="a" 
d="M1024 882q-8 7 -59 57l-58 57l-380 -370l-410 398l-116 -114l409 -398l-409 -398l116 -114l410 398l380 -370l117 114l-380 370z" />
    <glyph glyph-name="b" unicode="b" 
d="M713 758l-98 -98l-98 -98l-211 211l-61 -60l212 -212l-212 -211l61 -60l211 211l196 -196l60 60l-196 196l196 196l-60 61v0zM513 1024q-218 -5 -362.5 -149.5t-149.5 -362.5q5 -218 149.5 -362.5t362.5 -149.5q217 5 361.5 149.5t150.5 362.5q-6 218 -150.5 362.5
t-361.5 149.5v0zM513 85q-182 5 -302.5 125.5t-124.5 301.5q4 181 124.5 301.5t302.5 125.5q181 -5 301.5 -125.5t124.5 -301.5q-4 -181 -124.5 -301.5t-301.5 -125.5v0z" />
    <glyph glyph-name="c" unicode="c" 
d="M595 595v215v214h-133v-429h-462v-132h462v-462h133v462h429v132h-429z" />
    <glyph glyph-name="d" unicode="d" 
d="M866 847l-177 -177l-177 -177l-354 354l-158 -157l512 -512l512 512z" />
    <glyph glyph-name="e" unicode="e" 
d="M931 896q-89 87 -206 91.5t-207 -73.5v0l-458 -466q-62 -67 -59.5 -158.5t68.5 -161.5q31 -32 70.5 -49t83.5 -18h3q40 1 75.5 14.5t64.5 38.5h1l447 456q41 44 41 100.5t-41 100.5q-20 21 -45 31.5t-53.5 10.5t-53.5 -10.5t-45 -31.5l-387 -394l62 -63l387 394
q15 15 36.5 15t36.5 -15.5t15 -37t-15 -37.5l-437 -445q-18 -18 -41.5 -27.5t-50 -9t-50 10.5t-42.5 29q-40 43 -42.5 99t33.5 95l448 456q62 59 148 56.5t151 -64.5q30 -31 47.5 -72t19.5 -86t-11.5 -84t-41.5 -68l-415 -423l63 -63l414 422q42 43 62 99.5t17 121.5
q-3 62 -27 117.5t-66 98.5v0z" />
    <glyph glyph-name="f" unicode="f" 
d="M666 829v97v98h-331v-195h-308v-98h95v-731h757v731h118v98h-331v0zM429 926h71h71v-97h-142v97v0zM784 98h-284h-284v633h568v-633v0z" />
    <glyph glyph-name="g" unicode="g" 
d="M805 926v49v49h-97v-98h-147v98h-97v-98h-147v98h-97v-98h-219v-307v0v-98v0v-521h1023v926h-219v0zM927 98h-415h-414v414h829v-414v0zM98 610v109v110h122v-98h97v98h147v-98h97v98h147v-98h97v98h122v-219h-829v0z" />
    <glyph glyph-name="h" unicode="h" 
d="M999 146l-111 111l-112 112l-3 3q33 50 51 108.5t18 122.5q-5 179 -123.5 297.5t-297.5 123.5q-179 -5 -297.5 -123.5t-123.5 -297.5q5 -179 123.5 -297.5t297.5 -123.5q64 0 122.5 18t108.5 51l3 -3l223 -223q26 -25 60.5 -25t60 25.5t25.5 60t-25 60.5v0zM421 328
q-117 3 -194.5 80.5t-80.5 194.5q3 117 80.5 194.5t194.5 80.5q117 -3 194.5 -80.5t80.5 -194.5q-3 -117 -80.5 -194.5t-194.5 -80.5v0z" />
    <glyph glyph-name="i" unicode="i" 
d="M429 942q7 -6 50 -50l50 -49l-265 -265h760v-132h-760l265 -264l-100 -99l-429 429z" />
  </font>
</defs>
</svg>
