<?xml version="1.0" encoding="UTF-8" standalone="no"?>
<svg
   xmlns:dc="http://purl.org/dc/elements/1.1/"
   xmlns:cc="http://creativecommons.org/ns#"
   xmlns:rdf="http://www.w3.org/1999/02/22-rdf-syntax-ns#"
   xmlns:svg="http://www.w3.org/2000/svg"
   xmlns="http://www.w3.org/2000/svg"
   xmlns:sodipodi="http://sodipodi.sourceforge.net/DTD/sodipodi-0.dtd"
   xmlns:inkscape="http://www.inkscape.org/namespaces/inkscape"
   viewBox="0 0 387.59943 322.49851"
   height="387.59943"
   width="387.59943"
   xml:space="preserve"
   id="svg2"
   version="1.1"
   sodipodi:docname="app-icon-wh.svg"
   inkscape:version="0.92.4 5da689c313, 2019-01-14"><sodipodi:namedview
     pagecolor="#ffffff"
     bordercolor="#666666"
     borderopacity="1"
     objecttolerance="10"
     gridtolerance="10"
     guidetolerance="10"
     inkscape:pageopacity="0"
     inkscape:pageshadow="2"
     inkscape:window-width="1294"
     inkscape:window-height="806"
     id="namedview26"
     showgrid="false"
     inkscape:zoom="0.29733856"
     inkscape:cx="193.79966"
     inkscape:cy="20.153098"
     inkscape:window-x="2301"
     inkscape:window-y="305"
     inkscape:window-maximized="0"
     inkscape:current-layer="svg2" /><metadata
     id="metadata8"><rdf:RDF><cc:Work
         rdf:about=""><dc:format>image/svg+xml</dc:format><dc:type
           rdf:resource="http://purl.org/dc/dcmitype/StillImage" /></cc:Work></rdf:RDF></metadata><defs
     id="defs6"><clipPath
       id="clipPath18"
       clipPathUnits="userSpaceOnUse"><path
         id="path16"
         d="M 0,595.281 H 595.279 V 0 H 0 Z"
         inkscape:connector-curvature="0" /></clipPath></defs><g
     transform="matrix(2.1540362,0,0,-2.1540362,-447.32676,921.3701)"
     id="g10"><g
       id="g12"><g
         clip-path="url(#clipPath18)"
         id="g14"><g
           transform="translate(315.1221,307.501)"
           id="g20"><path
             id="path22"
             style="fill:#ffffff;fill-opacity:1;fill-rule:nonzero;stroke:none"
             d="M 0,0 C 0.295,-0.276 0.609,-0.557 0.92,-0.806 2.391,-1.993 3.906,-2.729 3.906,-2.729 L 3.68,-3.247 c 0,0 -0.2,0.068 -0.502,0.163 -0.047,0.015 -0.09,0.029 -0.141,0.045 -0.711,0.221 -1.891,0.559 -2.887,0.701 -0.695,0.099 -3.015,0.177 -3.015,0.177 l 0.004,0.009 h -29.28 l 0.004,-0.009 c 0,0 -2.317,-0.078 -3.016,-0.177 -1.271,-0.183 -2.829,-0.677 -3.341,-0.847 -0.006,-10e-4 -0.011,-0.003 -0.017,-0.004 -0.1,-0.034 -0.171,-0.058 -0.171,-0.058 l -0.226,0.518 c 0,0 1.517,0.736 2.987,1.923 0.359,0.291 0.73,0.625 1.066,0.943 L -17.5,17.492 Z m -106.041,-18.307 c 1.174,-0.453 2.09,0.209 2.369,0.447 l 0.008,0.008 c 5.472,3.77 10.412,8.661 13.397,13.478 0.459,0.67 0.748,1.46 0.788,2.325 v 86.965 c -0.02,0.653 -0.072,1.938 -0.223,3.032 -0.11,0.802 -0.272,1.558 -0.427,2.188 -0.044,0.177 -0.087,0.338 -0.128,0.493 -0.012,0.041 -0.02,0.08 -0.031,0.119 -0.041,0.149 -0.081,0.287 -0.116,0.41 -0.008,0.024 -0.014,0.042 -0.021,0.065 -0.032,0.109 -0.062,0.206 -0.089,0.288 -0.005,0.017 -0.011,0.033 -0.015,0.049 -0.028,0.088 -0.05,0.153 -0.066,0.203 -0.008,0.021 -0.009,0.025 -0.014,0.04 -0.011,0.033 -0.02,0.055 -0.02,0.055 l 0.526,0.206 c 0,0 0.142,-0.298 0.371,-0.745 0.387,-0.756 1.023,-1.94 1.655,-2.84 0.328,-0.465 1.286,-1.604 1.805,-2.21 l 52.766,-52.767 c 1.239,-1.082 2.756,-2.023 4.041,-2.573 l -0.001,-10e-4 c 0.011,-0.004 0.019,-0.006 0.027,-0.01 0.223,-0.095 0.442,-0.182 0.649,-0.25 v -0.655 c -0.325,-0.083 -0.629,-0.189 -0.921,-0.307 l 0.01,-0.009 c -1.218,-0.491 -2.179,-1.246 -3.06,-2.06 l -44.003,-44.003 c -0.019,-0.021 -0.044,-0.057 -0.068,-0.088 l -0.009,-0.008 c -0.004,-0.006 -0.01,-0.016 -0.013,-0.021 -0.011,-0.012 -0.022,-0.027 -0.03,-0.041 -0.026,-0.038 -0.054,-0.078 -0.083,-0.125 -0.017,-0.025 -0.03,-0.055 -0.048,-0.082 -0.023,-0.043 -0.048,-0.088 -0.072,-0.135 -0.017,-0.037 -0.032,-0.074 -0.051,-0.111 -0.02,-0.049 -0.04,-0.1 -0.059,-0.152 -0.017,-0.043 -0.03,-0.088 -0.043,-0.133 -0.018,-0.057 -0.029,-0.115 -0.041,-0.174 -0.011,-0.049 -0.021,-0.098 -0.026,-0.148 -0.008,-0.063 -0.011,-0.133 -0.013,-0.2 -0.002,-0.052 -0.006,-0.103 -0.003,-0.153 0.003,-0.08 0.017,-0.162 0.029,-0.244 0.009,-0.047 0.011,-0.093 0.022,-0.142 0.03,-0.134 0.073,-0.269 0.136,-0.408 0.511,-1.149 1.626,-1.329 1.993,-1.36 l 0.162,-0.006 0.161,-0.006 V -20.11 H 39.799 v 0.007 l 0.162,0.006 0.16,0.006 c 0.367,0.031 1.481,0.211 1.992,1.36 0.616,1.386 -0.437,2.442 -0.437,2.442 l -0.002,0.005 -0.004,0.008 -43.039,43.04 c -0.051,0.027 -0.104,0.059 -0.162,0.117 -1.108,1.057 -2.231,2.153 -3.789,2.8 h -0.002 c -0.313,0.128 -0.633,0.246 -0.981,0.334 v 0.655 c 0.233,0.078 0.481,0.178 0.737,0.289 h 0.002 c 1.505,0.654 3.314,1.837 4.619,3.142 0.076,0.076 0.136,0.118 0.187,0.143 l 51.776,51.777 c 0.359,0.42 1.652,1.937 2.045,2.493 0.537,0.766 1.074,1.73 1.462,2.469 0.002,0.002 0.002,0.005 0.004,0.007 0.336,0.638 0.561,1.108 0.561,1.108 l 0.525,-0.206 c 0,0 -0.006,-0.018 -0.015,-0.046 -0.006,-0.017 -0.01,-0.03 -0.022,-0.063 -0.01,-0.03 -0.021,-0.068 -0.035,-0.11 -0.022,-0.057 -0.039,-0.12 -0.063,-0.198 -0.013,-0.042 -0.025,-0.083 -0.041,-0.13 -0.019,-0.065 -0.037,-0.128 -0.06,-0.204 -0.027,-0.096 -0.059,-0.199 -0.088,-0.31 -0.023,-0.083 -0.047,-0.169 -0.07,-0.259 -0.018,-0.069 -0.037,-0.141 -0.055,-0.213 -0.172,-0.667 -0.355,-1.489 -0.477,-2.375 -0.078,-0.576 -0.13,-1.208 -0.166,-1.772 V -1.891 c 0,-0.915 0.29,-1.751 0.764,-2.458 -0.004,0 -0.012,-0.003 -0.012,-0.003 2.959,-4.781 8.088,-9.877 13.522,-13.656 L 68.9,-18.11 c 0.079,-0.059 0.182,-0.12 0.295,-0.184 0.004,-0.004 0.01,-0.008 0.016,-0.012 l 0.002,0.002 c 0.439,-0.234 1.105,-0.435 1.894,-0.131 1.008,0.389 1.297,1.248 1.381,1.715 v 144.048 l -0.027,0.088 c 0,0 -0.004,1.492 -1.418,2.037 -1.176,0.452 -2.09,-0.21 -2.371,-0.448 l -0.236,-0.22 -0.024,0.026 -13.883,-13.883 v -0.108 l -0.054,0.054 -71.979,-71.978 -71.978,71.979 -0.009,-0.008 v 0.016 l -13.912,13.912 -0.01,-0.009 -0.235,0.22 c -0.282,0.238 -1.198,0.9 -2.372,0.448 -1.415,-0.545 -1.418,-2.037 -1.418,-2.037 l -0.015,-0.042 V -16.483 c 0.07,-0.43 0.321,-1.404 1.412,-1.824"
             inkscape:connector-curvature="0" /></g><g
           transform="translate(257.6025,430.1562)"
           id="g24"><path
             id="path26"
             style="fill:#ffffff;fill-opacity:1;fill-rule:nonzero;stroke:none"
             d="M 0,0 C 0.049,-0.08 0.095,-0.147 0.136,-0.202 3.189,-5.028 8.284,-9.814 13.873,-13.86 l 0.005,0.004 c 0.615,-0.393 1.308,-0.62 2.014,-0.682 h 48.231 c 0.729,0.064 1.438,0.298 2.066,0.709 l 0.034,-0.031 c 5.675,4.11 10.853,8.983 13.89,13.885 0,0 -0.011,0.003 -0.017,0.004 0.256,0.425 0.533,1.164 0.142,2.045 -0.478,1.083 -1.49,1.303 -1.914,1.35 H 1.753 C 1.329,3.377 0.318,3.156 -0.161,2.074 -0.551,1.198 -0.271,0.455 -0.016,0.025 -0.012,0.017 -0.005,0.009 0,0"
             inkscape:connector-curvature="0" /></g><g
           transform="translate(155.7285,201.2393)"
           id="g28" /><g
           transform="translate(200.1523,230.1582)"
           id="g32" /><g
           transform="translate(226.6006,177.4814)"
           id="g36" /><g
           transform="translate(295.3936,239.3975)"
           id="g40" /><g
           transform="translate(390.8301,240.5977)"
           id="g44" /><g
           transform="translate(464.6289,203.0391)"
           id="g48" /></g></g></g></svg>
